<?xml version="1.0" encoding="UTF-8"?>
<svg id="Layer_1" data-name="Layer 1" xmlns="http://www.w3.org/2000/svg" viewBox="0 0 494.95 92.44">
  <defs>
    <style>
      .cls-1 {
        fill: #731c1b;
      }
    </style>
  </defs>
  <g>
    <g>
      <path class="cls-1" d="M24.63,77.36v-11.24c0-2.52-.07-4.4-.2-5.62-.14-1.22-.38-2.2-.73-2.94-.93-1.9-2.64-2.85-5.12-2.85-1.09,0-2.14.27-3.14.82-1.01.54-1.81,1.32-2.39,2.33-.31.5-.58,1.21-.81,2.12-.23.91-.35,2.03-.35,3.35v14.03l3.9,1.11v3.26H0v-3.26l4.48-1.11v-36.68l-4.48-1.11v-3.26h11.88v19.45c1.01-1.86,2.34-3.34,3.99-4.43,1.65-1.09,3.46-1.63,5.44-1.63,1.67,0,3.08.2,4.22.61,1.14.41,2.14,1.06,3,1.95,1.2,1.24,2.09,2.9,2.65,4.98.56,2.08.84,4.78.84,8.12v11.99l4.48,1.11v3.26h-15.78v-3.26l3.9-1.11Z"/>
      <path class="cls-1" d="M66.31,66.82h-20.32c0,2.64.39,4.83,1.16,6.58.62,1.32,1.46,2.34,2.5,3.06,1.05.72,2.35,1.08,3.9,1.08,1.71,0,3.41-.39,5.09-1.16,1.69-.78,3.13-1.94,4.34-3.49l3.14,2.45c-1.36,1.94-3.19,3.59-5.5,4.95-2.31,1.36-5.15,2.04-8.53,2.04-2.83,0-5.28-.57-7.34-1.72-2.06-1.14-3.63-2.82-4.72-5.04-.58-1.2-1.01-2.54-1.28-4.02-.27-1.47-.41-3.07-.41-4.77,0-5.43,1.25-9.64,3.76-12.6,2.5-2.97,6.04-4.45,10.63-4.45,4.23,0,7.58,1.23,10.04,3.7,2.46,2.47,3.7,5.87,3.7,10.22,0,.43,0,.84-.03,1.25-.02.41-.07,1.06-.15,1.95ZM52.63,53.72c-4,0-6.19,3.12-6.58,9.37h12.81v-1.51c0-2.52-.55-4.46-1.66-5.82-1.11-1.36-2.63-2.04-4.57-2.04Z"/>
      <path class="cls-1" d="M87.22,54.53c-.43,0-.91.26-1.46.79-.54.52-1.04,1.14-1.48,1.83-.45.7-.77,1.32-.96,1.86-.47,1.32-.87,2.68-1.22,4.08-.35,1.4-.52,3.11-.52,5.12v9.14l6.29,1.11v3.26h-18.17v-3.26l4.48-1.11v-23.58l-4.48-1.11v-2.39h10.13l1.28,7.69h.23c.89-2.64,2.1-4.68,3.61-6.11,1.51-1.44,3.18-2.15,5.01-2.15,1.51,0,2.77.48,3.78,1.43,1.01.95,1.51,2.22,1.51,3.81,0,1.16-.35,2.22-1.05,3.17-.7.95-1.69,1.43-2.97,1.43-1.55,0-2.66-.36-3.32-1.08-.66-.72-.99-1.5-.99-2.36,0-.27,0-.48.03-.61.02-.14.11-.46.26-.96Z"/>
      <path class="cls-1" d="M128.44,65.71c0,2.52-.37,4.91-1.11,7.16-.74,2.25-1.77,4.13-3.09,5.65-2.17,2.52-5.3,3.78-9.37,3.78-1.98,0-3.75-.46-5.3-1.37-1.55-.91-2.93-2.61-4.13-5.09l-1.75,5.88h-4.48v-41.05l-4.48-1.11v-3.26h11.88v17.35c1.16-1.47,2.46-2.5,3.9-3.09,1.44-.58,3.05-.87,4.83-.87,1.98,0,3.77.29,5.39.87,1.61.58,2.92,1.51,3.93,2.79,1.2,1.48,2.13,3.28,2.79,5.41.66,2.13.99,4.45.99,6.93ZM106.6,66c0,2.33.19,4.23.58,5.71.39,1.48.87,2.68,1.46,3.61.62.97,1.36,1.73,2.21,2.27.85.54,1.9.82,3.14.82s2.22-.26,2.94-.79c.72-.52,1.33-1.19,1.83-2.01.58-1.01,1.03-2.22,1.34-3.64.31-1.42.47-3.13.47-5.15,0-2.21-.17-4.18-.49-5.91-.33-1.73-.75-3.13-1.25-4.22-.47-1.01-1.09-1.78-1.86-2.3-.78-.52-1.79-.79-3.03-.79-1.05,0-2.05.19-3,.58-.95.39-1.72,1.09-2.3,2.1-.58,1.01-1.07,2.3-1.46,3.87-.39,1.57-.58,3.52-.58,5.85Z"/>
    </g>
    <g>
      <path class="cls-1" d="M230.8,82.07c0,3.57-1.28,6.19-3.84,7.86-2.56,1.67-6.64,2.5-12.23,2.5-2.48,0-4.75-.23-6.78-.7-2.04-.47-3.66-1.23-4.86-2.3-1.2-1.07-1.8-2.51-1.8-4.34s.56-3.22,1.69-4.31,2.79-1.67,5.01-1.75v-.23c-2.95-.82-4.42-2.29-4.42-4.42,0-.78.19-1.59.58-2.45.39-.85,1.03-1.61,1.92-2.27.89-.66,2.06-1.09,3.49-1.28-2.06-.5-3.67-1.54-4.83-3.11-1.17-1.57-1.75-3.43-1.75-5.56,0-3.1,1.05-5.55,3.14-7.34,2.1-1.79,5.1-2.68,9.02-2.68,2.6,0,4.64.22,6.11.67,1.47.45,2.77,1.12,3.9,2.01l1.98-.7,5.36-2.56h.99v6h-.99l-4.08-.47h-1.46c.78,1.2,1.17,2.78,1.17,4.72,0,3.18-.99,5.7-2.97,7.54-1.98,1.84-4.83,2.77-8.56,2.77-.39,0-.78,0-1.16-.03-.39-.02-.78-.05-1.17-.09-1.51.19-2.73.53-3.64,1.02s-1.37,1.17-1.37,2.07c0,.7.37,1.17,1.11,1.43.74.25,2.08.38,4.02.38h6.75c3.18,0,5.59.63,7.22,1.89,1.63,1.26,2.45,3.17,2.45,5.74ZM216.83,79.8h-2.04c-2.6,0-4.48.41-5.65,1.22-1.17.81-1.75,1.88-1.75,3.2,0,2.95,2.78,4.42,8.33,4.42,2.99,0,5.26-.44,6.81-1.31,1.55-.87,2.33-2.14,2.33-3.81,0-1.36-.6-2.32-1.8-2.88-1.2-.56-3.28-.84-6.23-.84ZM209.84,59.48c0,2.17.48,3.83,1.43,4.98.95,1.15,2.28,1.72,3.99,1.72,2.06,0,3.57-.57,4.54-1.72.97-1.14,1.46-2.8,1.46-4.98,0-2.06-.49-3.61-1.46-4.66-.97-1.05-2.48-1.57-4.54-1.57-1.75,0-3.09.52-4.02,1.57-.93,1.05-1.4,2.6-1.4,4.66Z"/>
      <path class="cls-1" d="M235.29,74.85c0-3.22,1.47-5.71,4.42-7.48,2.95-1.77,7.59-3.13,13.92-4.1-.16-1.94-.37-3.44-.64-4.48s-.62-1.94-1.05-2.68c-.5-.89-1.13-1.61-1.86-2.15-.74-.54-1.67-.81-2.79-.81-.81,0-1.56.16-2.24.47-.68.31-1.14.74-1.37,1.28.54.27.92.7,1.14,1.28.21.58.32,1.09.32,1.51,0,.97-.43,1.83-1.28,2.59-.85.76-1.88,1.14-3.09,1.14s-2.15-.4-2.85-1.19c-.7-.79-1.05-1.79-1.05-3,0-1.59.56-2.95,1.69-4.08,1.12-1.13,2.56-1.98,4.31-2.56,1.75-.58,3.51-.87,5.3-.87s3.46.26,4.92.79c1.46.52,2.63,1.17,3.52,1.95,3.07,2.72,4.6,7.03,4.6,12.93v7.57c0,1.9.13,3.22.38,3.96.25.74.8,1.11,1.66,1.11h2.62v2.62c-3.57,1.13-6.27,1.69-8.09,1.69-1.28,0-2.13-.43-2.56-1.28-.43-.85-.64-2.54-.64-5.07h-.23c-1.2,1.98-2.79,3.53-4.77,4.66-1.98,1.13-4.12,1.69-6.41,1.69-2.45,0-4.37-.66-5.76-1.98-1.4-1.32-2.1-3.14-2.1-5.47ZM246.7,78.05c.82,0,1.72-.27,2.71-.82.99-.54,1.85-1.3,2.59-2.27.43-.54.83-1.32,1.22-2.33.39-1.01.58-2.21.58-3.61,0-.47-.02-.99-.06-1.57-.04-.58-.1-1.12-.17-1.63-2.68.58-4.78,1.2-6.32,1.86-1.53.66-2.62,1.45-3.26,2.36-.64.91-.96,2.03-.96,3.35,0,1.67.39,2.86,1.17,3.58.78.72,1.61,1.08,2.5,1.08Z"/>
      <path class="cls-1" d="M286.06,54.53c-.43,0-.91.26-1.46.79-.54.52-1.04,1.14-1.48,1.83-.45.7-.77,1.32-.96,1.86-.47,1.32-.87,2.68-1.22,4.08s-.52,3.11-.52,5.12v9.14l6.29,1.11v3.26h-18.17v-3.26l4.48-1.11v-23.58l-4.48-1.11v-2.39h10.13l1.28,7.69h.23c.89-2.64,2.1-4.68,3.61-6.11,1.51-1.44,3.18-2.15,5.01-2.15,1.51,0,2.77.48,3.78,1.43,1.01.95,1.51,2.22,1.51,3.81,0,1.16-.35,2.22-1.05,3.17-.7.95-1.69,1.43-2.97,1.43-1.55,0-2.66-.36-3.32-1.08-.66-.72-.99-1.5-.99-2.36,0-.27,0-.48.03-.61.02-.14.11-.46.26-.96Z"/>
      <path class="cls-1" d="M295.72,66.06c0-2.56.36-4.96,1.08-7.19.72-2.23,1.68-4.03,2.88-5.39,1.13-1.24,2.46-2.18,4.02-2.82,1.55-.64,3.3-.96,5.24-.96,1.82,0,3.43.33,4.83.99,1.4.66,2.66,1.84,3.79,3.55v-13.57l-4.48-1.11v-3.26h11.88v41.05l4.48,1.11v3.26l-10.77.58-.47-4.77c-1.2,1.79-2.56,3.03-4.08,3.73s-3.28,1.05-5.3,1.05c-2.14,0-3.93-.32-5.39-.96-1.46-.64-2.69-1.54-3.7-2.71-1.2-1.36-2.17-3.13-2.91-5.33-.74-2.19-1.11-4.61-1.11-7.25ZM317.56,66.24c0-2.25-.2-4.21-.58-5.88-.39-1.67-.85-2.93-1.4-3.78-.58-.93-1.31-1.65-2.18-2.15-.87-.5-1.93-.76-3.17-.76-.93,0-1.88.19-2.85.58-.97.39-1.73,1.09-2.27,2.1-.5.93-.88,2.21-1.14,3.84-.25,1.63-.38,3.42-.38,5.36,0,2.25.15,4.21.47,5.88.31,1.67.7,2.95,1.16,3.84.54.97,1.29,1.74,2.24,2.3.95.56,1.97.84,3.06.84.89,0,1.8-.2,2.74-.61.93-.41,1.71-1.1,2.33-2.07.62-1.01,1.11-2.34,1.46-3.99.35-1.65.52-3.48.52-5.5Z"/>
      <path class="cls-1" d="M359.59,66.82h-20.32c0,2.64.39,4.83,1.17,6.58.62,1.32,1.46,2.34,2.5,3.06,1.05.72,2.35,1.08,3.9,1.08,1.71,0,3.41-.39,5.09-1.16,1.69-.78,3.13-1.94,4.34-3.49l3.14,2.45c-1.36,1.94-3.19,3.59-5.5,4.95-2.31,1.36-5.15,2.04-8.53,2.04-2.83,0-5.28-.57-7.34-1.72-2.06-1.14-3.63-2.82-4.72-5.04-.58-1.2-1.01-2.54-1.28-4.02-.27-1.47-.41-3.07-.41-4.77,0-5.43,1.25-9.64,3.76-12.6,2.5-2.97,6.04-4.45,10.62-4.45,4.23,0,7.58,1.23,10.04,3.7,2.46,2.47,3.7,5.87,3.7,10.22,0,.43-.01.84-.03,1.25-.02.41-.07,1.06-.15,1.95ZM345.91,53.72c-4,0-6.19,3.12-6.58,9.37h12.81v-1.51c0-2.52-.55-4.46-1.66-5.82-1.11-1.36-2.63-2.04-4.57-2.04Z"/>
      <path class="cls-1" d="M366.29,77.36v-22.71l-4.48-1.11v-3.26h10.13l1.28,5.82h.23c1.16-1.98,2.74-3.54,4.72-4.69,1.98-1.14,4.09-1.72,6.35-1.72,3.22,0,5.61,1.05,7.16,3.14.78,1.09,1.33,2.61,1.66,4.57.33,1.96.5,4.61.5,7.95v11.99l4.48,1.11v3.26h-15.78v-3.26l3.9-1.11v-11.24c0-2.33-.07-4.14-.2-5.44-.14-1.3-.38-2.34-.73-3.12-.43-1.01-1.01-1.71-1.75-2.1-.74-.39-1.61-.58-2.62-.58-1.9,0-3.51.62-4.83,1.86-1.59,1.48-2.46,3.75-2.62,6.81v13.8l3.9,1.11v3.26h-15.78v-3.26l4.48-1.11Z"/>
      <path class="cls-1" d="M430.45,49.7c2.41,0,4.54.38,6.4,1.14s3.33,1.81,4.4,3.17c1.07,1.36,1.6,2.95,1.6,4.77s-.47,3.08-1.4,3.99c-.93.91-2.08,1.37-3.44,1.37-1.51,0-2.57-.47-3.17-1.4-.6-.93-.9-1.88-.9-2.85s.24-1.81.73-2.53c.49-.72,1.21-1.21,2.18-1.48-.5-.7-1.31-1.26-2.42-1.69-1.11-.43-2.34-.64-3.7-.64-2.45,0-4.35.89-5.71,2.68-1.36,1.79-2.04,4.99-2.04,9.61,0,2.1.13,3.75.41,4.95.27,1.2.64,2.25,1.11,3.14.62,1.13,1.42,2.01,2.39,2.65.97.64,2.21.96,3.73.96,1.59,0,3.27-.38,5.04-1.13,1.77-.76,3.23-1.93,4.4-3.52l3.14,2.45c-1.79,2.48-3.88,4.27-6.29,5.36-2.41,1.09-4.97,1.63-7.69,1.63-2.87,0-5.31-.55-7.31-1.66-2-1.11-3.56-2.73-4.69-4.86-1.4-2.6-2.1-5.76-2.1-9.49,0-3.38.61-6.31,1.83-8.79,1.22-2.48,2.98-4.4,5.27-5.76,2.29-1.36,5.03-2.04,8.21-2.04Z"/>
      <path class="cls-1" d="M477.2,66c0,2.48-.36,4.82-1.08,7.02-.72,2.19-1.76,4.03-3.12,5.5-1.28,1.36-2.82,2.33-4.63,2.91-1.81.58-3.91.87-6.32.87s-4.51-.29-6.32-.87-3.35-1.55-4.63-2.91c-1.36-1.47-2.4-3.31-3.12-5.5-.72-2.19-1.08-4.53-1.08-7.02s.36-4.83,1.08-7.04c.72-2.21,1.76-4.04,3.12-5.47,1.28-1.36,2.82-2.33,4.63-2.91,1.8-.58,3.91-.87,6.32-.87s4.51.29,6.32.87c1.8.58,3.35,1.55,4.63,2.91,1.36,1.44,2.4,3.26,3.12,5.47.72,2.21,1.08,4.56,1.08,7.04ZM456.76,76.08c.54.78,1.25,1.36,2.12,1.75.87.39,1.93.58,3.17.58s2.31-.19,3.2-.58c.89-.39,1.59-.97,2.1-1.75,1.24-1.9,1.86-5.26,1.86-10.07,0-2.45-.16-4.5-.47-6.17-.31-1.67-.78-2.97-1.4-3.9-.5-.78-1.2-1.36-2.1-1.75-.89-.39-1.96-.58-3.2-.58s-2.3.19-3.17.58c-.87.39-1.58.97-2.12,1.75-1.24,1.9-1.86,5.26-1.86,10.07s.62,8.17,1.86,10.07Z"/>
      <path class="cls-1" d="M481.97,78.7c0-1.47.41-2.63,1.22-3.46.82-.83,1.92-1.25,3.32-1.25s2.51.43,3.35,1.28c.83.85,1.25,1.98,1.25,3.38s-.41,2.5-1.22,3.32c-.82.82-1.96,1.22-3.43,1.22-1.4,0-2.5-.39-3.29-1.16-.8-.78-1.19-1.88-1.19-3.32Z"/>
    </g>
  </g>
  <g>
    <path class="cls-1" d="M180.24,59.59c-.3-.86-1.11-1.71-2.06-1.78-1.15-.03-2.29.05-3.43.16-2.26-.07-4.53-.2-6.8-.13-2.6.04-5.21.01-7.81-.02-1.73-.02-3.47-.04-5.2-.04-1.37.03-2.75,0-4.07.37-.25.06-.53.14-.66.39-.26.59-.37,1.23-.55,1.85-.14.69-.63,1.72.13,2.21.76.37,1.57.63,2.4.81h.02s.03,0,.03,0h.03s.03,0,.03,0h.03s.03,0,.03,0h.03s.03,0,.03,0h.03s.03,0,.03,0h.03s.03,0,.03,0h.03s.03,0,.03,0h.03s.03,0,.03,0h.03s.03,0,.03,0h.03s.03,0,.03,0h.03s.03,0,.03,0h.03s.03,0,.03,0h.03s.03,0,.03,0h.03s.03,0,.03,0h.03s.03,0,.03,0h.03s.03,0,.03,0h.03s.03,0,.03,0h.03s.03,0,.03,0h.03s.03,0,.03,0h.04s.04,0,.04,0h.04s.04,0,.04,0h.04s.04,0,.04,0h.04s.04,0,.04,0h.04s.04,0,.04,0h.04s.04,0,.04,0h.04s.04,0,.04,0h.04s.04,0,.04,0h.04s.04,0,.04,0h.04s.04,0,.04,0h.04s.04,0,.04,0h.04s.04,0,.04,0h.04s.04,0,.04,0h.04s.04,0,.04,0h.04s.04,0,.04,0h.04s.04,0,.04,0h.04s.04,0,.04,0h.04s.04,0,.04,0h.04s.04,0,.04,0h.04s.04,0,.04,0h.04s.04,0,.04,0h.04s.04,0,.04,0h.04s.04,0,.04,0h.04s.04,0,.04,0h.04s.05,0,.05,0h.05s.05,0,.05,0h.05s.05,0,.05,0h.21s.06,0,.06,0h.06s.06,0,.06,0h.06s.06,0,.06,0h.05s.05,0,.05,0h.05s.05,0,.05,0h.05s.05,0,.05,0h.05s.05,0,.05,0h.05s.05,0,.05,0h.05s.05,0,.05,0h.05s.05,0,.05,0h.05s.05,0,.05,0h.05s.05,0,.05,0h.05s.05,0,.05,0h.05s.05,0,.05,0h.05s.05,0,.05,0h.05s.05,0,.05,0h.05s.05,0,.05,0h.05s.05,0,.05,0h.05s.05,0,.05,0h.05s.05,0,.05,0h.05s.05,0,.05,0h.09s.05,0,.05,0h.18s.05,0,.05,0h.05s.05,0,.05,0h.05s.05,0,.05,0h.05s.05,0,.05,0h.05s.05,0,.05,0h.05s.05,0,.05,0h.05s.06,0,.06,0h.11s.06,0,.06,0h.06s.06,0,.06,0h.06s.06,0,.06,0h.06s.06,0,.06,0h.06s.06,0,.06,0h.06s.06,0,.06,0h.06s.06,0,.06,0h.06s.06,0,.06,0h.06s.06,0,.06,0h.06s.06,0,.06,0h.06s.06,0,.06,0h.06s.07,0,.07,0h.07s.07,0,.07,0h.07s.07,0,.07,0h.07s.07,0,.07,0h.07s.07,0,.07,0h.07s.07,0,.07,0h.07s.07,0,.07,0h.07s.07,0,.07,0h.07s.07,0,.07,0h.07s.07,0,.07,0h.07s.07,0,.07,0h.07s.07,0,.07,0h.07s.07,0,.07,0h.07s.07,0,.07,0h.07s.07,0,.07,0h.07s.07,0,.07,0h.07s.07,0,.07,0h.07s.07,0,.07,0h.07s.07,0,.07,0h.07s.06,0,.06,0h.06s.06,0,.06,0h.06s.06,0,.06,0h.06s.06,0,.06,0h.06s.06,0,.06,0h.06s.06,0,.06,0h.06s.06,0,.06,0h.06s.06,0,.06,0h.06s.06,0,.06,0h.06s.05,0,.05,0h.05s.05,0,.05,0h.05s.05,0,.05,0h.05s.05,0,.05,0h.05s.05,0,.05,0h.05s.05,0,.05,0h.05s.05,0,.05,0h.05s.05,0,.05,0h.05s.05,0,.05,0h.05s.05,0,.05,0h.05s.04,0,.04,0h.04s.04,0,.04,0h.04s.04,0,.04,0h.04s.04,0,.04,0h.05s.05,0,.05,0h.05s.05,0,.05,0h.05s.05,0,.05,0h.05s.05,0,.05,0h.06s.06,0,.06,0h.06s.06,0,.06,0h.06s.06,0,.06,0h.07s.07,0,.07,0h.07s.07,0,.07,0h.07s.07,0,.07,0h.07s.07,0,.07,0h.07s.07,0,.07,0h.07s.07,0,.07,0h.07s.07,0,.07,0h.07s.07,0,.07,0h.07s.07,0,.07,0h.07s.07,0,.07,0h.07s.07,0,.07,0h.07s.07,0,.07,0h.07s.07,0,.07,0h.47s.05,0,.05,0h.14s.05,0,.05,0h.05s.05,0,.05,0h.05s.05,0,.05,0h.05s.05,0,.05,0h.05s.05,0,.05,0h.05s.05,0,.05,0h.05s.05,0,.05,0h.05s.05,0,.05,0h.05s.05,0,.05,0h.05s.05,0,.05,0h.05s.05,0,.05,0h.05s.05,0,.05,0h.05s.05,0,.05,0h.05s.05,0,.05,0h.05s.05,0,.05,0h.05s.05,0,.05,0h.05s.05,0,.05,0h.05s.05,0,.05,0h.05s.05,0,.05,0h.05s.05,0,.05,0h.05s.05,0,.05,0h.05s.05,0,.05,0h.04s.04,0,.04,0h.04s.04,0,.04,0h.04s.04,0,.04,0h.04s.04,0,.04,0h.04s.04,0,.04,0h.04s.04,0,.04,0h.04s.04,0,.04,0h.04s.04,0,.04,0h.04s.04,0,.04,0h.05s.05,0,.05,0h.05s.05,0,.05,0h.05s.05,0,.05,0h.05s.05,0,.05,0h.05s.05,0,.05,0h.05s.05,0,.05,0h.05s.05,0,.05,0h.05s.05,0,.05,0h.05s.05,0,.05,0h.05s.05,0,.05,0h.09s.05,0,.05,0h.05s.05,0,.05,0h.05s.05,0,.05,0h.05s.04,0,.04,0h.04s.04,0,.04,0h.04s.04,0,.04,0h.04s.04,0,.04,0h.08s.04,0,.04,0h.04s.04,0,.04,0h.04s.04,0,.04,0h.08s.04,0,.04,0h.04s.04,0,.04,0h.04s.04,0,.04,0h.17s.04,0,.04,0h.14s.05,0,.05,0h.05s.04,0,.04,0h.04s.04,0,.04,0h.08s.04,0,.04,0h.04s.04,0,.04,0h.08s.04,0,.04,0h.08s.04,0,.04,0h.04s.04,0,.04,0h.04s.04,0,.04,0h.04s.04,0,.04,0h.04s.04,0,.04,0h.04s.04,0,.04,0h.04s.04,0,.04,0h.04s.04,0,.04,0h.04s.04,0,.04,0h.04s.04,0,.04,0h.04s.04,0,.04,0h.11s.04,0,.04,0h.04s.04,0,.04,0h.04s.04,0,.04,0h.04s.04,0,.04,0h.04s.04,0,.04,0h.07s.04,0,.04,0h.1s.03,0,.03,0h.03s.03,0,.03,0h.03s.03,0,.03,0h.03s.03,0,.03,0h.03s.02,0,.02,0h.02s.02,0,.02,0h.02s.02,0,.02,0h.02s.02,0,.02,0h.02s.02,0,.02,0h.02s.03,0,.03,0h.03s.03,0,.03,0h.03s.03,0,.03,0h.03s.03,0,.03,0h.03s.04,0,.04,0h.04s.04,0,.04,0h.04s.04,0,.04,0h.04s.04,0,.04,0h.04s.04,0,.04,0h.04s.04,0,.04,0h.04s.04,0,.04,0h.04s.04,0,.04,0h.04s.04,0,.04,0h.04s.04,0,.04,0h.04s.04,0,.04,0h.04s.04,0,.04,0h.04s.04,0,.04,0h.04s.04,0,.04,0h.03s.01-.05.02-.07c.23-.05.46-.11.69-.14.63-.17,1.37-.24,1.86-.69.15-.19.11-.46.11-.69-.02-.6.03-1.23-.13-1.82Z"/>
    <path class="cls-1" d="M177.38,63.97h-.04s-.04,0-.04,0h-.04s-.04,0-.04,0h-.04s-.04,0-.04,0h-.04s-.04,0-.04,0h-.04s-.04,0-.04,0h-.04s-.04,0-.04,0h-.04s-.04,0-.04,0h-.04s-.04,0-.04,0h-.04s-.04,0-.04,0h-.05s-.05,0-.05,0h-.05s-.05,0-.05,0h-.05s-.05,0-.05,0h-.05s-.05,0-.05,0h-.06s-.06,0-.06,0h-.06s-.06,0-.06,0h-.06s-.06,0-.06,0h-.06s-.06,0-.06,0h-.06s-.06,0-.06,0h-.06s-.06,0-.06,0h-.06s-.06,0-.06,0h-.06s-.06,0-.06,0h-.06s-.06,0-.06,0h-.05s-.05,0-.05,0h-.05s-.05,0-.05,0h-.05s-.04,0-.04,0h-.04s-.04,0-.04,0h-.04s-.04,0-.04,0h-.04s-.04,0-.04,0h-.04s-.04,0-.04,0h-.04s-.04,0-.04,0h-.04s-.04,0-.04,0h-.04s-.04,0-.04,0h-.04s-.04,0-.04,0h-.04s-.04,0-.04,0h-.04s-.05,0-.05,0h-.05s-.05,0-.05,0h-.05s-.05,0-.05,0h-.05s-.05,0-.05,0h-.2s-.05,0-.05,0h-.05s-.05,0-.05,0h-.05s-.05,0-.05,0h-.05s-.05,0-.05,0h-.05s-.05,0-.05,0h-.05s-.05,0-.05,0h-.05s-.05,0-.05,0h-.05s-.05,0-.05,0h-.1s-.05,0-.05,0h-.05s-.05,0-.05,0h-.05s-.05,0-.05,0h-.05s-.05,0-.05,0h-.05s-.05,0-.05,0h-.05s-.05,0-.05,0h-.04s-.04,0-.04,0h-.04s-.04,0-.04,0h-.04s-.04,0-.04,0h-.04s-.04,0-.04,0h-.04s-.04,0-.04,0h-.04s-.04,0-.04,0h-.04s-.04,0-.04,0h-.04s-.04,0-.04,0h-.04s-.04,0-.04,0h-.04s-.04,0-.04,0h-.04s-.04,0-.04,0h-.04s-.04,0-.04,0h-.04s-.05,0-.05,0h-.05s-.05,0-.05,0h-.05s-.05,0-.05,0h-.05s-.05,0-.05,0h-.05s-.05,0-.05,0h-.05s-.05,0-.05,0h-.06s-.06,0-.06,0h-.06s-.06,0-.06,0h-.06s-.06,0-.06,0h-.05s-.05,0-.05,0h-.05s-.05,0-.05,0h-.05s-.05,0-.05,0h-.05s-.04,0-.04,0h-.09s-.04,0-.04,0h-.04s-.04,0-.04,0h-.04s-.04,0-.04,0h-.04s-.04,0-.04,0h-.04s-.04,0-.04,0h-.04s-.04,0-.04,0h-.04s-.04,0-.04,0h-.04s-.03,0-.03,0h-.03s-.03,0-.03,0h-.03s-.03,0-.03,0h-.03s-.03,0-.03,0h-.03s-.03,0-.03,0h-.04s-.04,0-.04,0h-.04s-.04,0-.04,0h-.04s-.04,0-.04,0h-.04s-.04,0-.04,0h-.04s-.04,0-.04,0h-.04s-.05,0-.05,0h-.05s-.05,0-.05,0h-.05s-.05,0-.05,0h-.05s-.05,0-.05,0h-.05s-.05,0-.05,0h-.05s-.06,0-.06,0h-.06s-.06,0-.06,0h-.06s-.06,0-.06,0h-.06s-.06,0-.06,0h-.06s-.06,0-.06,0h-.06s-.06,0-.06,0h-.06s-.06,0-.06,0h-.06s-.06,0-.06,0h-.06s-.06,0-.06,0h-.11s-.06,0-.06,0h-.27s-.05,0-.05,0h-.11s-.05,0-.05,0h-.05s-.06,0-.06,0h-.06s-.06,0-.06,0h-.06s-.06,0-.06,0h-.22s-.05,0-.05,0h-.05s-.05,0-.05,0h-.05s-.05,0-.05,0h-.05s-.04,0-.04,0h-.04s-.04,0-.04,0h-.04s-.04,0-.04,0h-.04s-.04,0-.04,0h-.04s-.04,0-.04,0h-.04s-.04,0-.04,0h-.04s-.04,0-.04,0h-.04s-.05,0-.05,0h-.05s-.05,0-.05,0h-.05s-.05,0-.05,0h-.05s-.05,0-.05,0h-.05s-.05,0-.05,0h-.05s-.05,0-.05,0h-.05s-.05,0-.05,0h-.06s-.06,0-.06,0h-.06s-.06,0-.06,0h-.06s-.06,0-.06,0h-.06s-.06,0-.06,0h-.06s-.06,0-.06,0h-.06s-.06,0-.06,0h-.06s-.06,0-.06,0h-.06s-.06,0-.06,0h-.06s-.06,0-.06,0h-.06s-.06,0-.06,0h-.06s-.06,0-.06,0h-.06s-.06,0-.06,0h-.06s-.07,0-.07,0h-.07s-.07,0-.07,0h-.07s-.08,0-.08,0h-.08s-.08,0-.08,0h-.08s-.08,0-.08,0h-.08s-.08,0-.08,0h-.08s-.08,0-.08,0h-.08s-.07,0-.07,0h-.07s-.07,0-.07,0h-.07s-.07,0-.07,0h-.07s-.07,0-.07,0h-.07s-.07,0-.07,0h-.07s-.07.01-.07.01h-.07s-.08,0-.08,0h-.08s-.08,0-.08,0h-.07s-.07,0-.07,0h-.07s-.07,0-.07,0h-.07s-.07,0-.07,0h-.06s-.06,0-.06,0h-.06s-.06,0-.06,0h-.06s-.06,0-.06,0h-.05s-.05,0-.05,0h-.05s-.05,0-.05,0h-.05s-.05,0-.05,0h-.05s-.05,0-.05,0h-.05s-.05,0-.05,0h-.05s-.05,0-.05,0h-.05s-.05,0-.05,0h-.05s-.05,0-.05,0h-.05s-.05,0-.05,0h-.05s-.05,0-.05,0h-.05s-.06,0-.06,0h-.06s-.06,0-.06,0h-.06s-.06,0-.06,0h-.06s-.06,0-.06,0h-.06s-.06,0-.06,0h-.06s-.06,0-.06,0h-.06s-.06,0-.06,0h-.06s-.06,0-.06,0h-.06s-.06,0-.06,0h-.06s-.05,0-.05,0h-.06s-.05,0-.05,0h-.06s-.06,0-.06,0h-.06s-.06,0-.06,0h-.06s-.06,0-.06,0h-.18s-.06,0-.06,0h-.06s-.06,0-.06,0h-.06s-.06,0-.06,0h-.18s-.06,0-.06,0h-.06s-.06,0-.06,0h-.06s-.06,0-.06,0h-.17s-.06,0-.06,0h-.06s-.06,0-.06,0h-.06s-.06,0-.06,0h-.06s-.07,0-.07,0h-.07s-.07-.01-.07-.01h-.07s-.07-.01-.07-.01h-.08s-.08-.01-.08-.01h-.08s-.08-.01-.08-.01h-.08s-.08-.01-.08-.01h-.08s-.08-.01-.08-.01h-.08s-.08-.01-.08-.01h-.08s-.08,0-.08,0h-.07s-.07,0-.07,0h-.07s-.07,0-.07,0h-.07s-.07,0-.07,0h-.07s-.07,0-.07,0h-.07s-.07,0-.07,0h-.07s-.07,0-.07,0h-.07s-.07,0-.07,0h-.07s-.07,0-.07,0h-.07s-.02,0-.02,0c.04.14.08.28.13.43.14.8.27,1.6.42,2.4.43,1.9.89,3.78,1.25,5.7.36,1.36.72,2.72.99,4.11.14.48.26.97.41,1.46.1.5.23.99.43,1.46.1.26.21.51.3.78,0,.04.02.09.04.13,0,0,0,.01,0,.02.04.11.11.18.2.22.13.41.76.27,1.11.33.11.01.22,0,.33-.01,1,.18,2.01.17,3.02.14,1.41-.03,2.84,0,4.26.06.3.01.6.02.9.02,1.24,0,2.49-.08,3.73-.13.23-.03.47-.03.71-.03.57,0,1.16,0,1.57-.41.18-.17.31-.37.38-.6h0s.04-.07.05-.11c.15-.44.29-.88.42-1.33.79-2.49,1.31-5,1.78-7.58.51-2.29.96-4.59,1.53-6.87.06-.24.12-.47.18-.71h-.04ZM174.39,74.67s-.01,0-.02,0c.01-.04.03-.09.04-.14,0,.04-.02.08-.02.13Z"/>
    <path class="cls-1" d="M159.42,18.16c.72.57,1.47,1.11,2.22,1.65.91.59,1.91,1.03,2.94,1.38-.02,0-.05.01-.07.02-.65.22-1.27.57-1.85.94-.12.04-.22.15-.22.29.02.49,1.01.4,1.37.43.97-.04,1.98-.1,2.82-.64.31.32.6.6.75.72,1.06.77,2.37,1.18,3.36,2.07.09.08.25.26.35.38.05.1.14.19.25.22.21.06.43-.08.47-.3.01-.28-.11-.56-.18-.83-.25-.92-.74-1.75-1.24-2.55-.07-.12-.15-.23-.23-.34.35-.08.7-.16,1.04-.24,2.08-.51,4.15-1.29,5.9-2.54,1.11-.88,2.25-1.77,3.09-2.92.31-.42.59-.86.84-1.31.11-.22.29-.45.25-.71-.05-.31-.43-.38-.66-.21-.26.12-.52.22-.78.35-.92.51-1.94.81-2.97,1.02-1.09.27-2.1.67-3.14,1.13-.23.11-.46.24-.68.38,1.3-2.1,2.02-4.53,2.9-6.82.18-.47.37-.93.55-1.4.08-.24.23-.5.15-.76-.3-.69-.94,0-1.27.29-.72.7-1.44,1.42-2.08,2.2-.63.83-1.25,1.77-1.83,2.65-.13.23-.26.47-.39.7.37-1.47.58-2.98.75-4.49.15-1.06.34-2.12.4-3.19.05-1.07.02-2.14.05-3.21,0-.43.02-.86.04-1.29,0-.3.09-.62.03-.92-.08-.25-.4-.38-.62-.23-.28.23-.41.61-.59.91-.79,1.62-1.93,3.06-2.51,4.77-.52,1.4-1.06,2.79-1.48,4.22-.45,1.5-.75,3.05-1.01,4.59,0,.02,0,.04,0,.06-.54-1.54-1.36-2.97-2.18-4.38-.43-.68-.81-1.39-1.25-2.06-.35-.51-.8-1.01-1.26-1.48-.35-.48-.76-.98-1.11-.98-.57.06-.41.72-.31,1.1.66,2.33,1.26,4.68,2.03,6.98.47,1.47.96,3.16,1.82,4.55-.37-.16-.75-.31-1.13-.45-.61-.22-1.23-.37-1.87-.47-.45-.03-1.82-.55-2.04-.07-.11.38.35.57.58.8Z"/>
    <path class="cls-1" d="M138.19,17.43c1.34.77,2.55,1.78,3.82,2.67,1.37,1.17,2.86,2.2,4.4,3.14,1.15.76,2.33,1.45,3.56,2.08,1.14.61,2.3,1.24,3.49,1.77-.86.02-1.72.11-2.58.23-1.33.11-2.66.26-3.97.54-.98.18-1.93.41-2.87.74-.71.17-1.39.25-2.12.35-.4.08-1.27.11-1.49.52-.06.16.03.33.18.39.96.22,1.9.53,2.87.71,1.3.32,2.6.58,3.93.68.99.16,2,.14,3,.04,1.03-.01,2-.35,2.97-.63.18-.06.37-.13.55-.19-.03.03-.05.07-.08.1-.86.95-1.66,1.98-2.14,3.18-.08.24-.32.56-.1.79.52.31,2.13-.73,2.63-1.04.9-.56,1.67-1.28,2.31-2.11.02.75.19,1.49.4,2.21.13.46.13,1,.48,1.36.27.23.53-.06.59-.32.23-.66.42-1.34.59-2.02.2-.85.49-2.59.38-3.89.7.04,1.43-.03,2.1-.25.41-.18.79-.42,1.16-.67.66-.43,1.12-1.06,1.6-1.67.1-.13.24-.24.29-.41.06-.27-.28-.47-.49-.3-.26.07-.53.13-.8.17-.94.19-1.97.32-2.88.68.12-.27.22-.52.3-.7.4-.92.75-1.87.88-2.87.1-.69.03-1.5-.12-2.2-.03-.34-.45-.55-.67-.24-.6.91-1.49,1.73-2,2.67-.03.06-.05.11-.08.17-.25-.87-.6-1.72-.97-2.55-.28-.63-.48-1.31-.84-1.9-.69-1.01-1.36-2.12-2.33-2.91-.56-.45-1.14-.85-1.65-1.35-.51-.43-.99-.91-1.58-1.24-.36-.21-.74-.4-1.12-.57-.15-.07-.31-.14-.48-.09-.49.24-.03.83.15,1.15.56.91,1.01,1.92,1.44,2.9.95,1.8,1.76,3.68,2.73,5.48,0,0,.01.02.02.03-.32-.25-.66-.48-1-.69-1.87-1.3-3.95-2.27-6.04-3.17-2.03-.84-4.11-1.71-6.33-1.88-.74-.08-1.54-.1-2.23.22-.67.32-.38.71.14.92Z"/>
    <path class="cls-1" d="M195.17,25.11c-2.19-.31-4.39-.59-6.6-.31-2.44.18-4.9.72-7.12,1.76-.34.16-.67.33-1,.51.3-.38.59-.76.89-1.15.62-.75,1.26-1.49,1.79-2.31.87-1.22,1.68-2.46,2.16-3.89.2-.49.4-.99.66-1.46.1-.13.13-.3.03-.45-.26-.35-.6-.02-.83.18-.26.2-.56.4-.84.62-.81.67-1.6,1.38-2.5,1.94-1.95,1.38-3.83,3-5.16,5-.37.59-.66,1.23-.92,1.87-.03-.64-.09-1.28-.17-1.91-.1-.68-.17-1.38-.19-2.07-.03-.31.15-.97-.36-.92-.2.04-.26.25-.35.41-.37.62-.78,1.22-1.1,1.87-.54,1.09-1.11,2.18-1.38,3.37-.28,1.09-.42,2.31-.07,3.41.12.32.24.67.42.98-.56,0-1.12.01-1.68,0-1.04.08-2.04.42-3.04.71-.24.06-.34.34-.17.53.28.28.71.38,1.08.5.47.13.95.26,1.43.36.73.12,1.44.15,2.17.23h0s0,0,0,0h0s0,0,0,0h0s0,0,0,0h0s0,0,0,0h0s0,0,0,0h0s0,0,0,0h0s0,0,0,0h0s0,0,0,0h0s0,0,0,0h0s0,0,0,0h0s0,0,0,0h0s0,0,0,0h0s0,0,0,0h0s0,0,0,0h0s0,0,0,0h0s0,0,0,0h0s0,0,0,0h0s0,0,0,0h0s0,0,0,0h0s0,0,0,0h0s0,0,0,0h0s0,0,0,0h0s0,0,0,0h0s0,0,0,0h0s0,0,0,0h0s0,0,0,0h0s0,0,0,0h0s0,0,0,0h0s0,0,0,0h0s0,0,0,0h0s0,0,0,0h0s0,0,0,0h0s0,0,0,0h0s0,0,0,0h0s0,0,0,0h0s0,0,0,0h0s0,0,0,0h0s0,0,0,0h0s0,0,0,0h0s0,0,0,0h0s0,0,0,0h0s0,0,0,0h0s0,0,0,0h0s0,0,0,0h0s0,0,0,0h0s0,0,0,0h0s0,0,0,0h0s0,0,0,0h0s0,0,0,0h0s0,0,0,0h0s0,0,0,0h0s0,0,0,0h0s0,0,0,0h0s0,0,0,0h0s0,0,0,0h0s0,0,0,0h0s0,0,0,0h0s0,0,0,0h0s0,0,0,0h0s0,0,0,0h0s0,0,0,0h0s0,0,0,0h0s0,0,0,0h0s0,0,0,0h0s0,0,0,0h0s0,0,0,0h0s0,0,0,0h0s0,0,0,0h0s0,.01,0,.01h0s0,.01,0,.01h0s0,.02,0,.02h0s0,.02,0,.02h0s0,.02,0,.02h0s0,.02,0,.02h0s0,.02,0,.02h0s0,.02,0,.02h0s0,.02,0,.02h0s0,.02,0,.02h0s0,.02,0,.02h0s0,.02,0,.02h0s0,.03,0,.03h0s0,.03,0,.03h0s0,.03,0,.03h0s0,.03,0,.03h0s0,.03,0,.03h0s0,.03,0,.03h0s0,.03,0,.03v.02s0,.02,0,.02v.02s0,.02,0,.02v.02s0,.02,0,.02v.02s0,.02,0,.02v.02s0,.02,0,.02v.02s0,.02,0,.02v.02s0,.02,0,.02v.02s0,.02,0,.02v.02s0,.01,0,.01h0s0,.03,0,.03h0s0,.03,0,.03h0s0,.03,0,.03h0s0,.03,0,.03h0s0,.03,0,.03h0s0,.03,0,.03h0s0,.03,0,.03h0s0,.03,0,.03h0s0,.03,0,.03v.02s0,.02,0,.02v.02s0,.02,0,.02v.02s0,.02,0,.02v.02s0,.02,0,.02v.02s0,.02,0,.02v.02s0,.02,0,.02v.02s0,.02,0,.02v.02s0,.02,0,.02v.02s0,.02,0,.02v.02s0,.02,0,.02v.02s0,.02,0,.02v.02s0,.02,0,.02v.02s0,.02,0,.02v.02s0,.02,0,.02v.02s0,.02,0,.02v.02s0,.02,0,.02v.02s0,.02,0,.02v.02s0,.02,0,.02v.02s0,.02,0,.02v.02s0,.02,0,.02v.02s0,.02,0,.02v.02s0,.02,0,.02v.02s0,.02,0,.02v.02s0,.02,0,.02v.02s0,.02,0,.02v.02s0,.02,0,.02v.02s0,.02,0,.02v.02s0,.02,0,.02v.02s0,.02,0,.02v.02s0,.02,0,.02v.02s0,.02,0,.02v.02s0,.02,0,.02v.02s0,.02,0,.02v.02s0,.02,0,.02v.02s0,.02,0,.02v.02s0,.02,0,.02v.02s0,.02,0,.02v.02s0,.02,0,.02v.02s0,.02,0,.02v.02s0,.02,0,.02v.02s0,.02,0,.02v.02s0,.02,0,.02v.02s0,.02,0,.02v.02s0,.02,0,.02v.02s0,.02,0,.02v.02s0,.02,0,.02v.02s0,.02,0,.02v.02s0,.02,0,.02v.02s0,.02,0,.02v.02s0,.02,0,.02v.02s0,.02,0,.02v.02s0,.02,0,.02v.02s0,.02,0,.02v.02s0,.02,0,.02v.02s0,.02,0,.02v.02s0,.02,0,.02v.02s0,.02,0,.02v.02s0,.02,0,.02v.02s0,.02,0,.02v.02s0,.02,0,.02v.02s0,.02,0,.02v.02s0,.02,0,.02v.02s0,.02,0,.02v.02s0,.02,0,.02h0s0,.01,0,.01h0s0,.03,0,.03v.02s0,.02,0,.02v.02s0,.02,0,.02v.02s0,.02,0,.02v.02s0,.02,0,.02v.02s0,.02,0,.02v.02s0,.02,0,.02h0c.08.22.17.44.26.65.19.49.44.96.82,1.34.2.22.46.43.67.68h0s.01.02.01.02h.01s.01.02.01.02h.01s.01.02.01.02h.01s.01.02.01.02h.01s.01.02.01.02h.01s.01.02.01.02h.01s.01.02.01.02h.01s.01.02.01.02h.01s.01.02.01.02h.01s.01.02.01.02h.01s.01.02.01.02h.01s.01.02.01.02h.01s.01.02.01.02h.01s.01.02.01.02h.01s.01.02.01.02h.01s.01.01.01.01h.01s.01.01.01.01h.01s.01.01.01.01h0s0,.01,0,.01h0s0,.01,0,.01h0s0,0,0,0h0s0,0,0,0h0s0,0,0,0h0s0,0,0,0h0s0,0,0,0h0s0,0,0,0h0s0,0,0,0h0s0,0,0,0h0s0,0,0,0h0s0,0,0,0h0s0,0,0,0h0s0,0,0,0h0s0,0,0,0h0c.11-.08.16-.24.09-.37-.05-.65-.09-1.3-.17-1.95-.07-.93-.28-1.84-.54-2.73.55.65,1.19,1.23,1.9,1.71.99.63,2.07,1.11,3.14,1.6.54.24,1.09.44,1.64.64.75.24,1.53.59,2.33.41.05,0,.11-.02.17-.05.23-.09.46-.28.33-.53-.3-.34-.76-.51-1.13-.78-1-.58-1.95-1.25-2.87-1.95-.06-.04-.11-.09-.16-.14.66.19,1.32.36,1.99.49,1.37.18,2.75.27,4.13.24.1,0,.19,0,.29,0,.37,0,.75-.03,1.12-.06,1.22-.1,2.42-.31,3.61-.6.66-.19,1.3-.46,1.95-.7.38-.16.8-.28,1.11-.54.16-.18.06-.47-.15-.56-.31-.1-.66-.04-.99-.07-.81-.04-1.54-.19-2.33-.46-1.92-.6-3.86-1.15-5.71-1.97-.93-.41-1.95-.52-2.93-.75-.13-.03-.26-.05-.39-.08,2.92-1.02,5.72-2.37,8.32-4.05,1.14-.68,2.33-1.29,3.54-1.84.42-.19.86-.36,1.28-.55.14-.06.27-.14.32-.29.09-.27-.15-.5-.41-.52Z"/>
    <path class="cls-1" d="M154.07,48.8s-.03.06-.04.08c-.53.58-.99,1.23-1.47,1.84-.78.99-1.57,1.95-1.9,3.21,0,.04-.02.09-.03.15-.1.28-.2.57-.28.86-.12.41-.07.86-.21,1.26,0,0,0,0,0,0-.02.06-.02.12,0,.19.22.44.59.03.8-.19.66-.62,1.24-1.34,1.96-1.89.66-.48,1.25-1.07,1.84-1.63.73-.68,1.44-1.38,2.06-2.17.31-.33.6-.67.88-1.03-.1,1.74.34,3.51,1.06,5.08.59.49.74-.61.85-.99.34-1.4.6-2.83.58-4.28.03-.51-.02-1.03-.13-1.53,1.06-.23,2.07-.67,2.93-1.34.45-.43.89-.87,1.32-1.31.1-.11.2-.21.28-.34.11-.18-.04-.43-.25-.39-.72.31-1.52.34-2.27.54-.54.12-1.08.26-1.58.47.11-.56.17-1.13.26-1.64.17-1.36-.02-2.8-.65-4.03-.36-.78-.82-1.53-1.55-2-.37-.28-.68-.64-1.02-.95-.08-.07-.18-.15-.29-.15-.3,0-.32.31-.27.53.02.29.07.58.14.86.14.53.2,1.08.33,1.61.1,1.07.22,2.15.22,3.22,0,.05,0,.11,0,.16-.69-1.46-1.8-2.76-3.07-3.61-1.07-.76-2.24-1.36-3.43-1.92-1.18-.63-2.38-1.22-3.61-1.73-.64-.27-1.32-.49-2.02-.56-.32-.04-.86-.08-.9.36.04.42.52.6.8.85.85.67,1.67,1.37,2.49,2.07,1,.92,2.02,1.81,3.05,2.69-.09-.05-.18-.09-.28-.14-.91-.46-1.88-.76-2.87-1.02-1.14-.39-2.37-.5-3.58-.57-1.65.04-3.34-.03-4.94.44-.95.08-1.91.16-2.79.57-.17.08-.35.15-.48.28-.16.17-.07.48.16.53,1.04.31,2.06.44,3.14.5.79,0,1.54.2,2.29.41,1.03.27,2.05.56,3.08.82,1.32.34,2.57.87,3.85,1.29.87.3,1.75.57,2.63.84-1.5.15-2.98.63-4.36,1.25-1.46.62-3,1.13-4.24,2.15-.95.78-1.86,1.72-2.33,2.88-.33.5-.57,1.29-.07,1.38.13.01.26-.07.37-.12.72-.36,1.41-.81,2.21-1.01.87-.29,1.7-.72,2.59-1.02,1.09-.48,2.24-.82,3.41-1.06,1-.15,1.99-.36,2.99-.48.78-.07,1.56-.14,2.33-.26Z"/>
    <path class="cls-1" d="M191.23,49.5c-.78-.79-1.62-1.53-2.59-2.08-1.52-.9-3.23-1.42-4.94-1.85-1.42-.31-2.87-.34-4.32-.38-.16,0-.31.02-.47.03h0s.01-.01.01-.01h.01s.01-.02.01-.02h.01s.01-.02.01-.02h.01s.01-.02.01-.02h.01s.01-.02.01-.02h.01s.02-.02.02-.02h.01s.02-.02.02-.02h.02s.01-.02.01-.02h.01s.02-.02.02-.02h.01s.01-.02.01-.02h.01s.01-.02.01-.02h.01s.01-.02.01-.02h.01s.01-.02.01-.02h.01s.01-.02.01-.02h.01s.01-.02.01-.02h.01s0-.01,0-.01h0s0-.01,0-.01h0s0-.01,0-.01h0s0-.01,0-.01h0s0-.01,0-.01h0s0-.01,0-.01h0s0-.01,0-.01h0s0-.01,0-.01h0s0-.01,0-.01h0s0,0,0,0c-.02,0-.03,0-.05.01.47-.4.92-.83,1.38-1.24.39-.34.77-.69,1.21-.97.15-.06.29-.18.28-.36-.02-.24-.29-.36-.5-.26-.08,0-.17.01-.26.02-.11,0-.21,0-.31.03-.97.1-1.94.21-2.84.59-1.29.44-2.54,1.06-3.63,1.89-.65.5-1.2,1.09-1.72,1.71.04-.82-.02-1.74-.02-2.26-.01-.43-.07-.86-.14-1.29-.03-.16-.05-.34-.21-.42-.47-.25-1.06,1-1.25,1.33-.48.82-.94,2.05-1.03,3.15-.17-.07-.35-.13-.52-.19-.25-.1-.5-.19-.76-.24-.27-.03-.64-.23-.81.08-.1.18.02.38.09.55.11.28.25.55.37.82.32.65.85,1.23,1.47,1.63-.68.94-.97,2.11-1.07,3.26.01.33-.21,1.19.29,1.19.17,0,.28-.17.38-.29.66-.68,1.25-1.44,1.63-2.31.31.79.66,1.59,1.24,2.22.58.8,1.28,1.48,2.09,2.05.19.12.35.32.57.36.56.03.45-.78.52-1.15.04-.98-.22-1.97-.53-2.9-.07-.18-.15-.37-.22-.55,2.9,2.35,6.48,3.67,9.99,4.87.07.04.15.05.23.04.17-.01.33-.13.34-.32,0-.13-.05-.25-.15-.32-.24-.41-.43-.85-.66-1.26-.49-.88-1.34-1.44-2.14-2.02-.96-.8-1.99-1.55-3.08-2.17.1.02.2.04.3.05,2.66.41,5.35.15,8.02.1.35,0,.7-.03,1.04-.06.67-.06,1.33-.11,1.99.04.04,0,.08,0,.11,0,.38-.03.48-.6.08-.74Z"/>
    <path class="cls-1" d="M171.45,35.45c-.9,1.15-1.7,2.39-2.51,3.57-.49.76-.98,1.66-1.44,2.46-.13.24-.24.49-.33.75-.03-.1-.05-.2-.08-.3-.03-.31-.05-.62-.09-.93-.17-1.31-.39-2.61-.6-3.92-.12-.7-.27-1.4-.41-2.1-.12-1.03-.21-2.07-.14-3.11.19-2.74.7-5.44,1.34-8.11-.13-.09-.25-.18-.36-.29h0c-.14-.13-.28-.25-.42-.38,0,0,0,0,0,0h0s0,0,0,0c-.19.04-.38.07-.57.1-.56,3.04-1.09,6.09-1.04,9.19.04,1.47.22,2.94.44,4.39-.57-1.06-1.19-2.1-1.84-3.12-.9-1.36-2.04-2.54-2.99-3.86-.05-.08-.11-.16-.16-.24-.15,0-.3,0-.45-.02-.01.12-.03.25-.04.37,0,.06-.01.11-.02.17-.03.22-.06.45-.09.67.53.62,1.06,1.24,1.55,1.89.36.55.81,1.11,1.22,1.64,1.07,1.66,1.97,3.4,2.86,5.16.26.52.46,1.07.65,1.62.02.13.04.25.05.38.21,1.58.25,3.2.24,4.81-.05.43-.11.85-.19,1.28-.29,1.29-.59,2.57-.79,3.88,0,.04,0,.07-.01.11-.01.16-.02.31-.03.47-.42-1.11-1.09-2.11-1.99-2.89-.48-.48-1.03-.91-1.62-1.24-.08.02-.16.03-.24.05-.1.03-.2.06-.3.09-.01,0-.02,0-.03,0-.09.02-.19.04-.28.05,0,0,0,0,0,0,0,0,0,0,0,0,0,.01,0,.02,0,.03,0,.04,0,.07.02.11,0,0,0,0,0,0,.03.17.04.33.05.5,0,.01,0,.02,0,.04.25.16.48.34.71.52.5.47.97.98,1.41,1.5.22.35.41.71.6,1.07.08.14.16.27.24.41.4,1.06.69,2.15.89,3.26.05.41.05.82.05,1.23.05,0,.1,0,.15-.01.15-.01.3-.02.45-.03.02,0,.03,0,.05,0,.02,0,.04,0,.06,0,.05,0,.09,0,.14-.01.22-.03.45-.05.67-.06.03,0,.06,0,.09,0,0,0,0-.02,0-.03.09-1.15.23-2.29.39-3.43.16-.36.35-.72.55-1.06.51-.64,1.18-1.14,1.91-1.53.03-.1.06-.19.09-.29.04-.15.07-.3.12-.45.02-.06.04-.12.06-.18-.02-.04-.05-.08-.07-.12,0,0,0,0,0,0-.02-.03-.04-.07-.06-.1-.07-.11-.16-.21-.23-.31-.73.21-1.38.53-1.94,1,.03-.24.06-.48.09-.72.14-.83.21-1.66.23-2.5.22-1.02.46-2.03.72-3.04.46-1.21,1.08-2.36,1.65-3.52.59-1.02,1.23-2,1.92-2.96.2-.27.41-.53.63-.79-.01-.05-.02-.1-.03-.14-.07-.3-.13-.6-.16-.91,0,0,0,0,0,0h0c-.11-.02-.22-.04-.33-.05,0,0,0,0,0,0h0s0,0,0,0c0,0,0,0,0,0,0,0,0,0,0,0,0,0,0,0,0,0-.1,0-.21,0-.31-.02-.01,0-.02,0-.04,0Z"/>
  </g>
</svg>