<?xml version="1.0" encoding="UTF-8"?>
<svg id="Layer_1" data-name="Layer 1" xmlns="http://www.w3.org/2000/svg" viewBox="0 0 204.8 130.81">
  <defs>
    <style>
      .cls-1 {
        fill: #097663;
      }

      .cls-2 {
        fill: #f5f1f0;
      }
    </style>
  </defs>
  <path class="cls-1" d="M5.13,38.94c3.81-9.75,9.74-18.06,17.81-22.96C57.8-5.18,106.88-.69,145.36,3.58c35.47,3.93,61.67,36.3,59.3,72.64-4.41,67.41-90.07,53.5-135.57,53.21-12.27-.08-24.97-.25-36.14-5.32-10.98-4.98-19.54-14.42-25.08-25.12C-1.72,80.47-2.43,58.27,5.13,38.94Z"/>
  <g>
    <path class="cls-2" d="M95.85,54.63l-2.09-.59v-7.41c0-.69.06-1.28.18-1.76.12-.47.26-.84.42-1.1.3-.52.71-.92,1.22-1.2.52-.28,1.06-.42,1.62-.42,1.29,0,2.14.47,2.62,1.45.18.38.31.89.38,1.53.07.64.11,1.65.11,3v5.92l-2.09.59v1.99h8.73v-1.99l-2.4-.59v-6.32c0-1.79-.15-3.27-.46-4.39-.31-1.13-.8-2.05-1.45-2.73-.47-.49-1.03-.85-1.66-1.08-.63-.22-1.4-.34-2.31-.34-1.08,0-2.09.3-2.99.9-.76.5-1.41,1.17-1.92,1.98v-10.05h-6.64v2l2.4.59v19.44l-2.4.59v1.99h8.73v-1.99Z"/>
    <path class="cls-2" d="M108.5,53.23c.59,1.21,1.46,2.13,2.58,2.76,1.12.62,2.47.94,4,.94,1.82,0,3.39-.37,4.64-1.11,1.25-.74,2.26-1.64,2.99-2.69l.08-.11-1.9-1.48-.09.11c-.63.81-1.39,1.43-2.27,1.83-.88.41-1.78.61-2.67.61-.8,0-1.48-.19-2.01-.55-.54-.37-.97-.9-1.29-1.58-.39-.88-.6-2-.61-3.33h10.88v-.13c.05-.48.08-.83.09-1.05.01-.22.02-.45.02-.68,0-2.36-.68-4.23-2.02-5.57-1.34-1.34-3.19-2.02-5.48-2.02-2.49,0-4.44.82-5.8,2.44-1.36,1.61-2.05,3.91-2.05,6.84,0,.92.07,1.79.22,2.58.15.8.38,1.54.7,2.19ZM115.37,41.61c.99,0,1.78.35,2.34,1.04.57.7.86,1.72.86,3.03v.67h-6.58c.23-3.19,1.33-4.75,3.38-4.75Z"/>
    <path class="cls-2" d="M135,39.18c-1.01,0-1.94.4-2.78,1.19-.77.73-1.4,1.76-1.88,3.06l-.66-3.94h-5.69v1.53l2.4.59v12.42l-2.4.59v1.99h10.01v-2l-3.37-.59v-4.78c0-1.07.09-1.98.28-2.71.19-.74.41-1.47.65-2.17.1-.28.27-.61.5-.97.23-.36.49-.68.78-.96.18-.17.34-.29.48-.34-.04.15-.07.26-.08.32-.01.08-.02.19-.02.35,0,.49.19.95.57,1.36.38.41,1.01.62,1.88.62.73,0,1.3-.28,1.7-.82.39-.53.59-1.13.59-1.78,0-.89-.29-1.61-.86-2.15-.57-.53-1.28-.8-2.12-.8Z"/>
    <path class="cls-2" d="M140.01,56.62h2.64l.87-2.91c.62,1.18,1.33,2.01,2.11,2.48.85.5,1.83.75,2.91.75,2.22,0,3.94-.7,5.13-2.08.72-.82,1.28-1.86,1.68-3.07.4-1.22.6-2.52.6-3.88s-.18-2.6-.54-3.75c-.36-1.16-.87-2.15-1.52-2.95-.56-.7-1.29-1.22-2.17-1.54-.87-.32-1.86-.48-2.93-.48-.97,0-1.86.16-2.64.48-.69.28-1.32.75-1.9,1.4v-9.05h-6.64v2l2.4.59v22.03ZM144.56,44.95c.2-.82.46-1.51.77-2.04.29-.51.69-.87,1.17-1.06.49-.2,1.01-.3,1.55-.3.63,0,1.15.13,1.55.4.39.27.71.66.95,1.18.26.57.49,1.32.66,2.23.17.91.26,1.97.26,3.14,0,1.07-.08,1.99-.25,2.73-.16.74-.4,1.38-.7,1.91-.26.42-.58.77-.95,1.04-.36.26-.86.39-1.49.39s-1.18-.14-1.61-.42c-.44-.28-.82-.67-1.14-1.17-.3-.49-.56-1.12-.76-1.9-.2-.78-.31-1.79-.31-3.02s.1-2.27.31-3.1Z"/>
    <path class="cls-2" d="M104.04,68.78h.67v-3.49h-.67l-2.92,1.38-.99.35c-.6-.46-1.3-.82-2.08-1.05-.8-.24-1.92-.37-3.32-.37-2.12,0-3.78.49-4.93,1.47-1.15.98-1.73,2.34-1.73,4.04,0,1.17.32,2.2.96,3.06.53.72,1.24,1.24,2.11,1.55-.54.13-1,.33-1.37.61-.49.37-.86.79-1.07,1.27-.22.47-.32.93-.32,1.37,0,1.11.7,1.91,2.08,2.38-1.01.1-1.8.42-2.35.95-.63.6-.95,1.42-.95,2.41s.34,1.83,1.01,2.43c.66.59,1.56,1.01,2.67,1.26,1.1.25,2.33.38,3.67.38,3.01,0,5.24-.46,6.63-1.36,1.41-.92,2.12-2.37,2.12-4.33,0-1.41-.46-2.48-1.36-3.18-.89-.69-2.22-1.04-3.95-1.04h-3.62c-1.02,0-1.73-.07-2.11-.2-.34-.12-.5-.32-.5-.63,0-.43.22-.75.66-.98.47-.25,1.11-.43,1.87-.53.21.02.42.04.63.05.21.01.42.02.63.02,2.03,0,3.6-.51,4.68-1.52,1.08-1.01,1.64-2.4,1.64-4.14,0-.95-.17-1.75-.52-2.39h.52s2.2.25,2.2.25ZM94.55,82h1.09c1.55,0,2.66.15,3.28.44.6.28.89.74.89,1.42,0,.85-.38,1.48-1.18,1.92-.81.45-2.01.68-3.58.68-2.87,0-4.32-.75-4.32-2.23,0-.66.29-1.19.88-1.6.6-.42,1.59-.63,2.95-.63ZM97.13,73.55c-.49.58-1.27.87-2.33.87-.88,0-1.54-.28-2.03-.87-.49-.58-.73-1.45-.73-2.58,0-1.06.24-1.87.71-2.4.47-.53,1.16-.8,2.05-.8,1.06,0,1.84.27,2.33.8.49.53.74,1.34.74,2.4,0,1.13-.25,1.99-.75,2.58Z"/>
    <path class="cls-2" d="M119.81,80.26c-.13-.38-.2-1.08-.2-2.08v-4.06c0-3.19-.84-5.55-2.51-7.03-.49-.43-1.14-.79-1.93-1.07-.79-.29-1.69-.43-2.68-.43s-1.94.16-2.88.48c-.95.32-1.75.79-2.36,1.41-.63.63-.95,1.4-.95,2.28,0,.68.2,1.25.6,1.7.4.45.95.69,1.63.69s1.26-.22,1.75-.64c.49-.43.73-.93.73-1.49,0-.24-.06-.53-.18-.86-.11-.3-.3-.53-.56-.7.12-.21.32-.37.61-.5.34-.16.73-.24,1.14-.24.57,0,1.05.14,1.42.41.38.28.7.65.96,1.11.22.38.41.86.55,1.4.14.53.25,1.29.33,2.25-3.33.52-5.81,1.26-7.38,2.2-1.62.97-2.44,2.36-2.44,4.13,0,1.28.39,2.3,1.17,3.03.77.73,1.84,1.1,3.18,1.1,1.24,0,2.42-.31,3.5-.92,1.01-.57,1.84-1.36,2.48-2.34.02,1.23.13,2.05.36,2.5.25.51.76.76,1.5.76.99,0,2.46-.31,4.38-.91l.1-.03v-1.64h-1.54c-.4,0-.64-.16-.76-.5ZM115.07,77.98c-.2.53-.42.93-.64,1.21-.38.5-.83.9-1.34,1.18-1.06.58-1.88.58-2.63-.12-.38-.36-.58-.97-.58-1.82,0-.68.16-1.25.49-1.72.33-.47.9-.87,1.69-1.22.78-.34,1.86-.66,3.21-.96.03.23.05.47.07.72.02.32.03.59.03.83,0,.73-.1,1.36-.3,1.88Z"/>
    <path class="cls-2" d="M134.52,65.6c-1.01,0-1.94.4-2.78,1.19-.77.73-1.4,1.76-1.88,3.06l-.66-3.94h-5.69v1.53l2.4.59v12.42l-2.4.59v1.99h10.01v-2l-3.37-.59v-4.78c0-1.07.09-1.98.28-2.71.19-.74.41-1.47.65-2.17.1-.28.27-.61.5-.97.23-.36.49-.68.78-.96.18-.17.34-.29.48-.34-.04.15-.07.26-.08.32-.01.08-.02.19-.02.35,0,.49.19.95.57,1.36.38.41,1.01.62,1.88.62.73,0,1.3-.28,1.7-.82.39-.53.59-1.13.59-1.78,0-.89-.29-1.61-.86-2.14-.57-.53-1.28-.8-2.12-.8Z"/>
    <path class="cls-2" d="M154.16,59.53h-6.64v2l2.4.59v5.61c-.55-.74-1.17-1.27-1.83-1.59-.76-.36-1.66-.54-2.65-.54-1.06,0-2.02.18-2.86.53-.85.35-1.59.87-2.2,1.55-.66.74-1.18,1.73-1.57,2.94-.39,1.2-.58,2.51-.58,3.9s.2,2.75.6,3.93c.4,1.19.93,2.16,1.59,2.9.55.64,1.23,1.14,2.03,1.49.8.35,1.78.53,2.94.53,1.1,0,2.07-.19,2.9-.57.74-.34,1.42-.93,2.03-1.74l.23,2.32,6.04-.33v-1.99l-2.4-.59v-20.92ZM149.64,77.52c-.18.86-.44,1.57-.76,2.09-.32.49-.71.85-1.19,1.06-1.06.47-2.09.41-2.98-.12-.49-.29-.87-.68-1.15-1.18-.24-.47-.45-1.14-.61-2.02-.16-.88-.25-1.93-.25-3.13,0-1.03.07-1.99.2-2.85.13-.85.33-1.53.59-2.01.27-.51.66-.87,1.15-1.06.5-.2,1-.3,1.48-.3.64,0,1.19.13,1.63.39s.82.63,1.12,1.11c.28.44.53,1.11.73,1.98.2.88.31,1.93.31,3.12,0,1.07-.09,2.05-.28,2.92Z"/>
    <path class="cls-2" d="M165.3,65.6c-2.49,0-4.44.82-5.8,2.44-1.36,1.61-2.05,3.91-2.05,6.84,0,.92.07,1.79.22,2.58.15.8.38,1.54.7,2.19.59,1.21,1.46,2.13,2.58,2.76,1.12.62,2.47.94,4,.94,1.82,0,3.39-.37,4.64-1.11,1.25-.74,2.26-1.64,2.99-2.69l.08-.11-1.9-1.48-.09.11c-.63.81-1.39,1.43-2.27,1.83-.88.41-1.78.61-2.67.61-.8,0-1.48-.19-2.01-.55-.54-.37-.97-.9-1.29-1.58-.39-.88-.6-2-.61-3.33h10.88v-.13c.05-.48.08-.83.09-1.05.01-.22.02-.45.02-.68,0-2.36-.68-4.23-2.02-5.57-1.34-1.34-3.19-2.02-5.48-2.02ZM168.43,72.77h-6.58c.23-3.19,1.33-4.75,3.38-4.75.99,0,1.78.35,2.34,1.04.57.7.86,1.72.86,3.03v.67Z"/>
    <path class="cls-2" d="M191.37,80.45v-6.32c0-1.79-.09-3.23-.27-4.28-.18-1.07-.49-1.91-.91-2.51-.86-1.16-2.18-1.74-3.95-1.74-1.23,0-2.39.32-3.47.94-1.03.59-1.86,1.41-2.49,2.41l-.67-3.04h-5.68v1.99l2.4.59v11.95l-2.4.59v1.99h8.73v-1.99l-2.09-.59v-7.28c.08-1.6.54-2.79,1.36-3.56.68-.64,1.52-.96,2.49-.96.52,0,.97.1,1.34.3.36.19.66.55.87,1.06.18.4.31.95.38,1.63.07.69.11,1.67.11,2.9v5.92l-2.09.59v1.99h8.73v-1.99l-2.4-.59Z"/>
    <path class="cls-2" d="M101.06,104.49c-.61.83-1.38,1.45-2.3,1.84-.93.4-1.81.6-2.64.6-.78,0-1.43-.17-1.92-.49-.5-.33-.91-.79-1.23-1.37-.24-.47-.44-1.02-.58-1.65-.14-.63-.21-1.51-.21-2.62,0-2.43.36-4.14,1.06-5.06.7-.92,1.69-1.38,2.95-1.38.71,0,1.36.11,1.93.33.48.19.85.42,1.11.7-.45.16-.81.43-1.05.79-.27.41-.41.89-.41,1.43s.17,1.09.51,1.6c.35.54.96.81,1.82.81.76,0,1.41-.26,1.94-.77.52-.51.79-1.27.79-2.24s-.3-1.89-.89-2.64c-.59-.74-1.4-1.33-2.41-1.74-1.01-.41-2.18-.62-3.48-.62-1.72,0-3.23.37-4.47,1.11-1.25.74-2.21,1.8-2.88,3.15-.66,1.34-1,2.95-1,4.77,0,2.01.38,3.74,1.14,5.15.61,1.16,1.48,2.06,2.57,2.66,1.09.6,2.43.91,3.98.91,1.47,0,2.87-.3,4.18-.89,1.31-.59,2.46-1.57,3.43-2.92l.08-.11-1.9-1.48-.08.12Z"/>
    <path class="cls-2" d="M118.63,94.08c-.7-.74-1.55-1.28-2.54-1.6-.98-.31-2.13-.48-3.43-.48s-2.45.16-3.43.48c-.99.32-1.84.85-2.54,1.6-.74.78-1.31,1.79-1.7,2.99-.39,1.19-.58,2.48-.58,3.82s.2,2.62.58,3.8c.39,1.19.96,2.2,1.7,3,.7.74,1.55,1.28,2.54,1.6.98.31,2.13.48,3.43.48s2.45-.16,3.43-.48c.99-.32,1.84-.86,2.54-1.6.74-.8,1.31-1.81,1.7-3,.39-1.18.58-2.46.58-3.8s-.2-2.63-.58-3.82c-.39-1.2-.96-2.2-1.7-2.99ZM115.39,106.21c-.25.39-.61.69-1.06.88-.46.2-1.02.3-1.66.3s-1.2-.1-1.64-.3c-.44-.2-.8-.49-1.08-.89-.65-.99-.97-2.78-.97-5.32s.33-4.33.97-5.32c.27-.39.64-.69,1.08-.89.45-.2,1-.3,1.64-.3s1.2.1,1.66.3c.45.2.81.49,1.06.89.32.48.57,1.17.73,2.04.16.88.25,1.98.25,3.28,0,2.54-.33,4.33-.98,5.32Z"/>
    <path class="cls-2" d="M125.22,105.02c-.78,0-1.41.24-1.88.71-.46.47-.69,1.13-.69,1.95s.23,1.44.68,1.88c.45.44,1.08.66,1.86.66.83,0,1.48-.23,1.94-.7.46-.46.7-1.09.7-1.88s-.24-1.42-.71-1.91c-.47-.48-1.11-.73-1.89-.73Z"/>
    <path class="cls-2" d="M71.64,85.34c-.36-1.04-1.34-2.06-2.48-2.14-1.39-.04-2.76.06-4.13.19-2.73-.09-5.45-.24-8.18-.15-3.13.05-6.27.01-9.4-.03-2.09-.03-4.18-.05-6.26-.05-1.64.04-3.3,0-4.9.45-.31.08-.64.17-.8.47-.31.71-.45,1.48-.66,2.22-.17.83-.76,2.07.15,2.66.91.44,1.89.76,2.89.98h.02s.04,0,.04,0h.04s.04,0,.04,0h.04s.04,0,.04,0h.04s.04,0,.04,0h.04s.04,0,.04,0h.04s.04,0,.04,0h.04s.04,0,.04,0h.04s.04,0,.04,0h.04s.04,0,.04,0h.04s.04,0,.04,0h.04s.04,0,.04,0h.04s.04,0,.04,0h.04s.04,0,.04,0h.03s.03,0,.03,0h.03s.03,0,.03,0h.03s.03,0,.03,0h.03s.03,0,.03,0h.03s.04,0,.04,0h.04s.04,0,.04,0h.04s.04,0,.04,0h.05s.05,0,.05,0h.05s.05,0,.05,0h.05s.05,0,.05,0h.05s.05,0,.05,0h.05s.05,0,.05,0h.05s.05,0,.05,0h.05s.05,0,.05,0h.05s.05,0,.05,0h.05s.04,0,.04,0h.04s.04,0,.04,0h.04s.04,0,.04,0h.04s.04,0,.04,0h.04s.04,0,.04,0h.04s.04,0,.04,0h.04s.05,0,.05,0h.05s.05,0,.05,0h.05s.05,0,.05,0h.05s.05,0,.05,0h.05s.05,0,.05,0h.05s.05,0,.05,0h.05s.05,0,.05,0h.05s.05,0,.05,0h.05s.05,0,.05,0h.05s.05,0,.05,0h.06s.06,0,.06,0h.06s.06,0,.06,0h.26s.07,0,.07,0h.07s.07,0,.07,0h.07s.07,0,.07,0h.07s.07,0,.07,0h.07s.07,0,.07,0h.07s.07,0,.07,0h.07s.06,0,.06,0h.06s.06,0,.06,0h.06s.06,0,.06,0h.06s.06,0,.06,0h.06s.06,0,.06,0h.06s.06,0,.06,0h.06s.06,0,.06,0h.06s.06,0,.06,0h.06s.06,0,.06,0h.06s.06,0,.06,0h.06s.06,0,.06,0h.06s.05,0,.05,0h.05s.06,0,.06,0h.05s.05,0,.05,0h.05s.05,0,.05,0h.11s.05,0,.05,0h.22s.06,0,.06,0h.06s.06,0,.06,0h.06s.06,0,.06,0h.06s.06,0,.06,0h.06s.06,0,.06,0h.06s.06,0,.06,0h.07s.07,0,.07,0h.14s.07,0,.07,0h.07s.07,0,.07,0h.07s.07,0,.07,0h.07s.07,0,.07,0h.07s.07,0,.07,0h.07s.07,0,.07,0h.07s.07,0,.07,0h.07s.07,0,.07,0h.07s.07,0,.07,0h.07s.07,0,.07,0h.07s.08,0,.08,0h.08s.08,0,.08,0h.08s.08,0,.08,0h.08s.08,0,.08,0h.08s.08,0,.08,0h.08s.08,0,.08,0h.08s.08,0,.08,0h.08s.08,0,.08,0h.08s.08,0,.08,0h.08s.08,0,.08,0h.08s.09,0,.09,0h.09s.09,0,.09,0h.09s.09,0,.09,0h.09s.09,0,.09,0h.09s.09,0,.09,0h.09s.08,0,.08,0h.08s.08,0,.08,0h.08s.08,0,.08,0h.08s.08,0,.08,0h.08s.08,0,.08,0h.08s.08,0,.08,0h.08s.08,0,.08,0h.07s.07,0,.07,0h.07s.07,0,.07,0h.07s.07,0,.07,0h.07s.07,0,.07,0h.07s.07,0,.07,0h.07s.07,0,.07,0h.07s.07,0,.07,0h.07s.07,0,.07,0h.07s.07,0,.07,0h.06s.06,0,.06,0h.07s.07,0,.07,0h.07s.07,0,.07,0h.07s.07,0,.07,0h.06s.06,0,.06,0h.06s.06,0,.06,0h.06s.06,0,.06,0h.06s.06,0,.06,0h.05s.05,0,.05,0h.05s.05,0,.05,0h.05s.05,0,.05,0h.05s.05,0,.05,0h.05s.06,0,.06,0h.06s.06,0,.06,0h.06s.06,0,.06,0h.06s.06,0,.06,0h.07s.07,0,.07,0h.07s.07,0,.07,0h.08s.08,0,.08,0h.08s.08,0,.08,0h.08s.08,0,.08,0h.08s.08,0,.08,0h.08s.08,0,.08,0h.08s.08,0,.08,0h.08s.08,0,.08,0h.08s.08,0,.08,0h.08s.08,0,.08,0h.08s.08,0,.08,0h.08s.08,0,.08,0h.08s.08,0,.08,0h.08s.08,0,.08,0h.08s.08,0,.08,0h.56s.06,0,.06,0h.17s.05,0,.05,0h.05s.06,0,.06,0h.06s.06,0,.06,0h.06s.06,0,.06,0h.06s.06,0,.06,0h.06s.06,0,.06,0h.06s.06,0,.06,0h.06s.06,0,.06,0h.06s.06,0,.06,0h.06s.06,0,.06,0h.06s.06,0,.06,0h.06s.06,0,.06,0h.06s.06,0,.06,0h.06s.06,0,.06,0h.06s.06,0,.06,0h.06s.06,0,.06,0h.06s.07,0,.07,0h.07s.07,0,.07,0h.07s.06,0,.06,0h.06s.06,0,.06,0h.06s.06,0,.06,0h.06s.06,0,.06,0h.05s.05,0,.05,0h.05s.05,0,.05,0h.05s.05,0,.05,0h.04s.05,0,.05,0h.04s.04,0,.04,0h.05s.05,0,.05,0h.05s.05,0,.05,0h.05s.05,0,.05,0h.05s.05,0,.05,0h.06s.06,0,.06,0h.06s.06,0,.06,0h.06s.06,0,.06,0h.06s.06,0,.06,0h.06s.06,0,.06,0h.06s.06,0,.06,0h.06s.06,0,.06,0h.06s.06,0,.06,0h.06s.06,0,.06,0h.06s.06,0,.06,0h.11s.06,0,.06,0h.06s.06,0,.06,0h.06s.06,0,.06,0h.05s.05,0,.05,0h.05s.05,0,.05,0h.05s.05,0,.05,0h.05s.05,0,.05,0h.1s.05,0,.05,0h.05s.05,0,.05,0h.05s.05,0,.05,0h.1s.05,0,.05,0h.05s.05,0,.05,0h.05s.05,0,.05,0h.21s.05,0,.05,0h.17s.06,0,.06,0h.05s.05,0,.05,0h.05s.05,0,.05,0h.1s.05,0,.05,0h.05s.05,0,.05,0h.09s.05,0,.05,0h.09s.05,0,.05,0h.05s.05,0,.05,0h.05s.05,0,.05,0h.05s.05,0,.05,0h.05s.05,0,.05,0h.05s.05,0,.05,0h.05s.05,0,.05,0h.05s.05,0,.05,0h.05s.05,0,.05,0h.05s.05,0,.05,0h.05s.05,0,.05,0h.13s.04,0,.04,0h.04s.04,0,.04,0h.04s.04,0,.04,0h.04s.04,0,.04,0h.05s.04,0,.04,0h.09s.04,0,.04,0h.12s.04,0,.04,0h.04s.04,0,.04,0h.04s.03,0,.03,0h.03s.03,0,.03,0h.03s.03,0,.03,0h.03s.03,0,.03,0h.03s.03,0,.03,0h.03s.03,0,.03,0h.03s.03,0,.03,0h.03s.03,0,.03,0h.03s.03,0,.03,0h.04s.04,0,.04,0h.04s.04,0,.04,0h.04s.04,0,.04,0h.04s.04,0,.04,0h.05s.05,0,.05,0h.05s.05,0,.05,0h.05s.05,0,.05,0h.04s.04,0,.04,0h.04s.04,0,.04,0h.04s.04,0,.04,0h.04s.04,0,.04,0h.04s.04,0,.04,0h.05s.05,0,.05,0h.05s.05,0,.05,0h.05s.05,0,.05,0h.05s.05,0,.05,0h.04s.01-.05.02-.08c.28-.07.55-.13.83-.17.75-.21,1.65-.29,2.24-.84.18-.23.13-.55.13-.82-.02-.73.04-1.48-.16-2.19Z"/>
    <path class="cls-2" d="M68.2,90.62h-.05s-.05,0-.05,0h-.05s-.05,0-.05,0h-.05s-.05,0-.05,0h-.05s-.05,0-.05,0h-.05s-.05,0-.05,0h-.05s-.05,0-.05,0h-.05s-.05,0-.05,0h-.05s-.05,0-.05,0h-.05s-.05,0-.05,0h-.05s-.06,0-.06,0h-.06s-.06,0-.06,0h-.06s-.06,0-.06,0h-.06s-.06,0-.06,0h-.07s-.07,0-.07,0h-.07s-.07,0-.07,0h-.07s-.07,0-.07,0h-.07s-.07,0-.07,0h-.07s-.07,0-.07,0h-.07s-.07,0-.07,0h-.07s-.07,0-.07,0h-.07s-.07,0-.07,0h-.07s-.07,0-.07,0h-.06s-.06,0-.06,0h-.06s-.06,0-.06,0h-.05s-.05,0-.05,0h-.05s-.05,0-.05,0h-.05s-.05,0-.05,0h-.04s-.04,0-.04,0h-.04s-.04,0-.04,0h-.04s-.04,0-.04,0h-.04s-.05,0-.05,0h-.05s-.05,0-.05,0h-.05s-.05,0-.05,0h-.05s-.05,0-.05,0h-.05s-.05,0-.05,0h-.06s-.06,0-.06,0h-.06s-.06,0-.06,0h-.06s-.06,0-.06,0h-.24s-.06,0-.06,0h-.06s-.06,0-.06,0h-.06s-.06,0-.06,0h-.06s-.06,0-.06,0h-.06s-.06,0-.06,0h-.06s-.06,0-.06,0h-.06s-.06,0-.06,0h-.06s-.06,0-.06,0h-.12s-.06,0-.06,0h-.06s-.06,0-.06,0h-.06s-.06,0-.06,0h-.06s-.06,0-.06,0h-.06s-.06,0-.06,0h-.06s-.05,0-.05,0h-.05s-.05,0-.05,0h-.05s-.05,0-.05,0h-.05s-.05,0-.05,0h-.05s-.05,0-.05,0h-.05s-.05,0-.05,0h-.05s-.05,0-.05,0h-.05s-.05,0-.05,0h-.05s-.05,0-.05,0h-.05s-.05,0-.05,0h-.05s-.05,0-.05,0h-.05s-.05,0-.05,0h-.05s-.05,0-.05,0h-.05s-.05,0-.05,0h-.06s-.06,0-.06,0h-.06s-.06,0-.06,0h-.06s-.06,0-.06,0h-.06s-.07,0-.07,0h-.07s-.07,0-.07,0h-.07s-.07,0-.07,0h-.07s-.07,0-.07,0h-.07s-.07,0-.07,0h-.06s-.06,0-.06,0h-.06s-.06,0-.06,0h-.06s-.06,0-.06,0h-.05s-.05,0-.05,0h-.11s-.05,0-.05,0h-.05s-.05,0-.05,0h-.05s-.05,0-.05,0h-.05s-.05,0-.05,0h-.05s-.05,0-.05,0h-.04s-.04,0-.04,0h-.04s-.04,0-.04,0h-.04s-.04,0-.04,0h-.04s-.04,0-.04,0h-.04s-.04,0-.04,0h-.04s-.04,0-.04,0h-.04s-.04,0-.04,0h-.04s-.04,0-.04,0h-.04s-.04,0-.04,0h-.05s-.05,0-.05,0h-.05s-.05,0-.05,0h-.05s-.05,0-.05,0h-.05s-.05,0-.05,0h-.06s-.06,0-.06,0h-.06s-.06,0-.06,0h-.06s-.06,0-.06,0h-.06s-.06,0-.06,0h-.07s-.07,0-.07,0h-.07s-.07,0-.07,0h-.07s-.07,0-.07,0h-.07s-.07,0-.07,0h-.07s-.07,0-.07,0h-.07s-.07,0-.07,0h-.07s-.07,0-.07,0h-.07s-.07,0-.07,0h-.07s-.07,0-.07,0h-.14s-.07,0-.07,0h-.33s-.06,0-.06,0h-.13s-.07,0-.07,0h-.07s-.07,0-.07,0h-.07s-.07,0-.07,0h-.07s-.07,0-.07,0h-.26s-.06,0-.06,0h-.06s-.06,0-.06,0h-.06s-.06,0-.06,0h-.05s-.05,0-.05,0h-.05s-.05,0-.05,0h-.05s-.05,0-.05,0h-.05s-.05,0-.05,0h-.05s-.05,0-.05,0h-.05s-.05,0-.05,0h-.05s-.05,0-.05,0h-.05s-.05,0-.05,0h-.05s-.06,0-.06,0h-.06s-.06,0-.06,0h-.06s-.06,0-.06,0h-.06s-.06.01-.06.01h-.06s-.06.01-.06.01h-.06s-.07.01-.07.01h-.07s-.07.01-.07.01h-.07s-.07.01-.07.01h-.07s-.07.01-.07.01h-.07s-.07.01-.07.01h-.07s-.07.01-.07.01h-.07s-.07.01-.07.01h-.07s-.07.01-.07.01h-.07s-.07.01-.07.01h-.07s-.07,0-.07,0h-.07s-.07,0-.07,0h-.07s-.07,0-.07,0h-.07s-.07,0-.07,0h-.08s-.08,0-.08,0h-.08s-.09,0-.09,0h-.09s-.09,0-.09,0h-.1s-.1,0-.1,0h-.1s-.1,0-.1,0h-.1s-.1,0-.1,0h-.1s-.09,0-.09,0h-.09s-.09,0-.09,0h-.09s-.08,0-.08,0h-.08s-.08,0-.08,0h-.08s-.08.01-.08.01h-.09s-.09.01-.09.01h-.09s-.09.01-.09.01h-.09s-.09.01-.09.01h-.09s-.09.01-.09.01h-.09s-.09,0-.09,0h-.09s-.09,0-.09,0h-.08s-.08,0-.08,0h-.08s-.07,0-.07,0h-.07s-.07,0-.07,0h-.07s-.07,0-.07,0h-.07s-.06,0-.06,0h-.06s-.06,0-.06,0h-.06s-.06,0-.06,0h-.07s-.07,0-.07,0h-.07s-.06,0-.06,0h-.06s-.06,0-.06,0h-.06s-.06,0-.06,0h-.06s-.06,0-.06,0h-.06s-.06,0-.06,0h-.06s-.06,0-.06,0h-.07s-.07,0-.07,0h-.07s-.07,0-.07,0h-.07s-.07,0-.07,0h-.07s-.07,0-.07,0h-.07s-.07,0-.07,0h-.07s-.07,0-.07,0h-.07s-.07,0-.07,0h-.07s-.07,0-.07,0h-.07s-.07,0-.07,0h-.07s-.07,0-.07,0h-.07s-.07,0-.07,0h-.07s-.07,0-.07,0h-.07s-.07,0-.07,0h-.07s-.07,0-.07,0h-.22s-.07,0-.07,0h-.07s-.07,0-.07,0h-.07s-.07,0-.07,0h-.22s-.07,0-.07,0h-.07s-.07,0-.07,0h-.07s-.07,0-.07,0h-.21s-.07,0-.07,0h-.07s-.07,0-.07,0h-.07s-.07,0-.07,0h-.08s-.08,0-.08,0h-.08s-.09-.01-.09-.01h-.09s-.09-.01-.09-.01h-.09s-.09-.02-.09-.02h-.09s-.1-.02-.1-.02h-.1s-.1-.02-.1-.02h-.1s-.1-.01-.1-.01h-.09s-.09-.01-.09-.01h-.09s-.09-.01-.09-.01h-.09s-.09,0-.09,0h-.09s-.09,0-.09,0h-.08s-.08,0-.08,0h-.08s-.08,0-.08,0h-.08s-.08,0-.08,0h-.08s-.08,0-.08,0h-.08s-.08,0-.08,0h-.08s-.09,0-.09,0h-.09s-.03,0-.03,0c.05.17.1.34.15.51.17.97.33,1.93.51,2.89.52,2.28,1.07,4.55,1.51,6.85.44,1.64.87,3.28,1.19,4.95.16.57.31,1.17.49,1.76.13.6.28,1.19.52,1.76.12.31.26.61.36.93,0,.05.02.1.05.15,0,0,0,.01,0,.02.04.13.13.21.24.27.15.49.92.33,1.34.39.14.01.27,0,.4-.02,1.2.21,2.42.2,3.63.17,1.69-.03,3.42,0,5.12.07.36.01.73.02,1.09.02,1.5,0,2.99-.09,4.49-.15.27-.04.56-.03.86-.03.69,0,1.4.01,1.9-.49.21-.2.38-.44.45-.72h0s.05-.08.06-.13c.18-.53.35-1.06.5-1.6.95-2.99,1.58-6.02,2.14-9.12.62-2.75,1.15-5.52,1.84-8.26.07-.29.14-.57.22-.86h-.05ZM64.6,103.49s-.01,0-.02.01c.02-.05.03-.11.05-.16-.01.05-.02.1-.03.15Z"/>
    <path class="cls-2" d="M46.58,35.48c.87.69,1.77,1.34,2.67,1.99,1.09.71,2.29,1.25,3.54,1.66-.03,0-.06.01-.09.02-.79.27-1.52.69-2.22,1.13-.15.04-.27.18-.26.35.02.6,1.22.49,1.65.52,1.17-.05,2.39-.12,3.4-.77.37.39.72.72.9.87,1.27.93,2.85,1.43,4.05,2.49.11.09.3.31.42.46.06.12.16.22.3.26.25.08.52-.1.56-.36.02-.34-.13-.67-.21-1-.3-1.11-.89-2.1-1.49-3.07-.09-.14-.18-.28-.27-.41.42-.09.84-.19,1.26-.28,2.5-.61,4.99-1.56,7.1-3.06,1.34-1.06,2.71-2.13,3.72-3.52.37-.5.71-1.04,1.02-1.58.13-.27.35-.54.31-.86-.06-.38-.51-.45-.79-.25-.31.15-.63.27-.94.42-1.11.61-2.33.97-3.57,1.22-1.32.33-2.53.81-3.78,1.36-.28.14-.55.29-.81.45,1.56-2.52,2.43-5.45,3.49-8.21.21-.56.44-1.12.66-1.69.09-.29.28-.6.18-.91-.36-.83-1.13,0-1.53.35-.87.85-1.73,1.71-2.51,2.64-.76,1-1.51,2.13-2.2,3.19-.16.28-.31.56-.46.84.45-1.77.69-3.59.91-5.41.18-1.28.41-2.55.48-3.84.06-1.29.03-2.58.06-3.86,0-.51.03-1.03.05-1.55,0-.37.11-.74.04-1.1-.09-.3-.48-.46-.75-.28-.34.28-.49.73-.71,1.1-.95,1.95-2.32,3.68-3.02,5.74-.62,1.69-1.28,3.36-1.79,5.08-.54,1.81-.91,3.67-1.21,5.53,0,.03,0,.05-.01.08-.65-1.86-1.63-3.57-2.62-5.27-.51-.82-.98-1.67-1.51-2.48-.42-.61-.96-1.22-1.52-1.78-.42-.58-.92-1.18-1.34-1.18-.68.08-.5.87-.38,1.33.8,2.8,1.52,5.63,2.44,8.4.57,1.77,1.16,3.81,2.19,5.47-.45-.19-.9-.37-1.36-.54-.73-.27-1.49-.44-2.25-.56-.54-.04-2.19-.67-2.46-.09-.14.45.43.69.69.96Z"/>
    <path class="cls-2" d="M21.02,34.6c1.61.93,3.07,2.14,4.59,3.21,1.65,1.41,3.45,2.65,5.3,3.78,1.38.92,2.81,1.75,4.29,2.5,1.37.74,2.77,1.49,4.21,2.13-1.04.03-2.07.13-3.11.27-1.6.14-3.2.32-4.78.66-1.17.21-2.33.49-3.45.89-.85.21-1.67.31-2.55.42-.48.09-1.53.13-1.79.62-.08.19.04.39.22.47,1.15.26,2.29.64,3.45.85,1.56.38,3.13.7,4.74.82,1.2.19,2.4.16,3.61.05,1.24-.02,2.4-.42,3.58-.76.22-.08.44-.15.67-.23-.03.04-.06.08-.09.13-1.03,1.14-2,2.38-2.58,3.82-.1.29-.39.68-.12.95.63.37,2.56-.88,3.17-1.25,1.09-.67,2.01-1.54,2.78-2.54.02.9.23,1.79.48,2.65.15.55.16,1.2.57,1.63.32.27.64-.07.71-.39.28-.8.51-1.61.71-2.43.25-1.02.59-3.11.46-4.68.85.05,1.72-.04,2.52-.31.49-.21.95-.5,1.39-.8.8-.51,1.35-1.28,1.93-2.01.12-.16.29-.29.34-.49.07-.32-.34-.57-.59-.36-.32.08-.64.16-.96.21-1.13.22-2.38.38-3.47.82.14-.32.26-.62.36-.85.48-1.11.91-2.25,1.06-3.45.12-.83.03-1.8-.15-2.65-.04-.41-.54-.66-.81-.29-.72,1.09-1.79,2.08-2.41,3.21-.03.07-.06.14-.09.2-.3-1.05-.73-2.07-1.17-3.06-.34-.76-.57-1.57-1.01-2.29-.83-1.21-1.64-2.55-2.8-3.5-.67-.54-1.37-1.03-1.99-1.62-.62-.52-1.19-1.09-1.9-1.49-.44-.25-.89-.48-1.35-.69-.18-.08-.38-.17-.58-.11-.59.29-.04,1,.18,1.39.68,1.09,1.21,2.31,1.73,3.49,1.15,2.17,2.12,4.43,3.29,6.59,0,.01.01.02.02.04-.39-.3-.79-.58-1.21-.83-2.25-1.57-4.76-2.74-7.28-3.82-2.45-1.01-4.95-2.06-7.62-2.27-.9-.09-1.85-.11-2.69.27-.8.38-.46.86.17,1.1Z"/>
    <path class="cls-2" d="M78.29,44.01c-1.78-.37-3.58-.72-5.37-.38-1.99.22-1.55.4-3.36,1.66-.28.19-.55.4-.81.62.24-.47.48-.93.73-1.4.51-.92,1.03-1.83,1.46-2.83.71-1.5,1.37-3.01,1.76-4.76.16-.6.33-1.21.53-1.78.08-.16.11-.37.03-.55-.21-.43-.49-.03-.68.22-.21.24-.45.48-.69.75-.66.82-1.31,1.69-2.04,2.38-1.59,1.69-3.12,3.66-4.2,6.11-.3.73-.54,1.5-.75,2.28-.03-.78-.08-1.56-.14-2.34-.08-.83-.14-1.69-.16-2.53-.03-.38.12-1.18-.29-1.12-.16.05-.21.31-.29.5-.3.76-.64,1.49-.9,2.29-.44,1.33-.9,2.66-1.12,4.12-.23,1.34-.34,2.82-.06,4.17.1.39.2.82.34,1.2-.45,0-.91.02-1.36,0-.85.1-1.66.51-2.47.87-.19.07-.28.42-.13.65.23.35.58.46.88.61.38.16.77.32,1.16.44.6.15,1.17.19,1.77.28h0s0,0,0,0h0s0,0,0,0h0s0,0,0,0h0s0,0,0,0h0s0,0,0,0h0s0,0,0,0h0s0,0,0,0h0s0,0,0,0h0s0,0,0,0h0s0,0,0,0h0s0,0,0,0h0s0,0,0,0h0s0,0,0,0h0s0,0,0,0h0s0,0,0,0h0s0,0,0,0h0s0,0,0,0h0s0,0,0,0h0s0,0,0,0h0s0,0,0,0h0s0,0,0,0h0s0,0,0,0h0s0,0,0,0h0s0,0,0,0h0s0,0,0,0h0s0,0,0,0h.01s0,0,0,0h0s0,0,0,0h0s0,0,0,0h0s0,0,0,0h0s0,0,0,0h0s0,0,0,0h0s0,0,0,0h0s0,0,0,0h0s0,0,0,0h0s0,0,0,0h0s0,0,0,0h0s0,0,0,0h0s0,0,0,0h0s0,0,0,0h0s0,0,0,0h0s0,0,0,0h0s0,0,0,0h0s0,0,0,0h0s0,0,0,0h0s0,0,0,0h0s0,0,0,0h0s0,0,0,0h0s0,0,0,0h0s0,0,0,0h0s0,0,0,0h0s0,0,0,0h0s0,0,0,0h0s0,0,0,0h0s0,0,0,0h0s0,0,0,0h0s0,.01,0,.01h0s0,.01,0,.01h0s0,.02,0,.02h0s0,.02,0,.02h0s0,.02,0,.02h0s0,.02,0,.02h0s0,.02,0,.02h0s0,.03,0,.03h0s0,.03,0,.03h0s0,.03,0,.03h0s0,.03,0,.03h0s0,.03,0,.03v.02s0,.02,0,.02v.02s0,.02,0,.02v.02s0,.02,0,.02v.02s0,.02,0,.02v.02s0,.02,0,.02v.02s0,.02,0,.02v.02s0,.02,0,.02v.02s0,.02,0,.02v.02s0,.02,0,.02v.02s0,.02,0,.02v.02s0,.02,0,.02v.02s0,.02,0,.02v.02s0,.02,0,.02v.02s0,.02,0,.02v.02s0,.02,0,.02v.02s0,.02,0,.02v.02s0,.02,0,.02v.02s0,.02,0,.02v.02s0,.02,0,.02v.02s0,.02,0,.02v.02s0,.02,0,.02v.02s0,.02,0,.02v.02s0,.02,0,.02v.02s0,.02,0,.02v.02s0,.02,0,.02v.02s0,.02,0,.02v.02s0,.02,0,.02v.02s0,.02,0,.02v.02s0,.02,0,.02v.02s0,.02,0,.02v.02s0,.02,0,.02v.02s0,.02,0,.02v.02s0,.02,0,.02v.02s0,.02,0,.02v.02s0,.02,0,.02v.02s0,.02,0,.02v.02s0,.02,0,.02v.02s0,.02,0,.02v.02s0,.02,0,.02v.02s0,.02,0,.02v.02s0,.02,0,.02v.02s0,.02,0,.02v.02s0,.02,0,.02v.02s0,.02,0,.02v.02s0,.02,0,.02v.02s0,.02,0,.02v.02s0,.02,0,.02v.02s0,.02,0,.02v.02s0,.02,0,.02v.02s0,.02,0,.02v.02s0,.02,0,.02v.02s0,.02,0,.02v.02s0,.02,0,.02v.02s0,.02,0,.02v.02s0,.02,0,.02v.02s0,.02,0,.02v.02s0,.02,0,.02v.02s0,.02,0,.02v.02s0,.02,0,.02v.02s0,.02,0,.02v.02s0,.02,0,.02v.02s0,.02,0,.02v.02s0,.02,0,.02v.02s0,.02,0,.02v.02s0,.02,0,.02v.02s0,.02,0,.02v.03s0,.03,0,.03v.02s0,.03,0,.03v.02s0,.02,0,.02v.02s0,.02,0,.02v.02s0,.02,0,.02v.02s0,.02,0,.02v.02s0,.02,0,.02v.02s0,.03,0,.03v.03s0,.03,0,.03v.03s0,.03,0,.03v.03s0,.03,0,.03v.03s0,.03,0,.03v.03s0,.03,0,.03v.03s0,.03,0,.03v.03s0,.03,0,.03v.03s0,.03,0,.03v.03s0,.03,0,.03v.03s0,.02,0,.02v.02s0,.02,0,.02v.02s0,.02,0,.02v.02s0,.02,0,.02v.02s0,.02,0,.02v.02s0,.02,0,.02v.02s0,.02,0,.02h0s0,.01,0,.01h0s0,.03,0,.03v.02s0,.02,0,.02v.02s0,.02,0,.02v.02s0,.02,0,.02v.02s0,.02,0,.02v.02s0,.03,0,.03v.02s0,.02,0,.02h0c.07.27.14.54.21.8.15.6.36,1.18.67,1.63.17.27.37.53.54.83h0s0,.02,0,.02h0s0,.03,0,.03h0s0,.03,0,.03v.02s.02.01.02.01h0s0,.03,0,.03h0s0,.03,0,.03h0s0,.03,0,.03h0s0,.03,0,.03h0s0,.03,0,.03h0s0,.02,0,.02h.01s0,.02,0,.02h.01s.01.02.01.02h.01s.01.02.01.02h0s0,.02,0,.02h0s0,.02,0,.02h0s0,.02,0,.02h0s0,.02,0,.02h0s0,.02,0,.02h0s0,.01,0,.01h0s0,.01,0,.01h0s0,.01,0,.01h0s0,.01,0,.01h0s0,0,0,0h0s0,0,0,0h0s0,0,0,0h0s0,0,0,0h0s0,0,0,0h0s0,0,0,0h0s0,0,0,0h0s0,0,0,0h0s0,0,0,0h0s0,0,0,0h0s0,0,0,0h0c.09-.09.13-.29.07-.45-.04-.79-.07-1.59-.14-2.38-.06-1.14-.23-2.25-.44-3.34.45.8.97,1.5,1.55,2.09.81.77,1.69,1.36,2.56,1.96.44.29.88.54,1.34.78.61.29,1.24.72,1.89.5.04-.01.09-.03.14-.06.19-.11.38-.34.27-.65-.24-.42-.62-.63-.92-.95-.82-.71-1.59-1.53-2.34-2.39-.04-.05-.09-.11-.13-.17,0,0-.91-.97-1.02-1.14-.12-.17,2.15,1.33,6.47,1.1.64-.14,1.27-.3,1.89-.54.54-.24,1.06-.57,1.59-.86.31-.2.65-.34.91-.67.13-.23.05-.58-.13-.69-.25-.13-.54-.05-.8-.09-.66-.05-1.25-.23-1.9-.56-.43-.2-.87-.41-1.31-.61-.05-.04-.1-.08-.15-.12-.17-.12-.37-.24-.52-.35-.24-.18-.44-.37-.7-.52-.29-.17-.55-.37-.83-.56-.21-.14-.5-.24-.74-.34-.26-.1-.48-.27-.73-.38-.08-.03-.16-.07-.23-.1,1.96-1.16,1.95-2.32,3.94-4.24.93-.83,1.9-1.57,2.89-2.24.35-.23.7-.44,1.04-.67.11-.08.22-.17.26-.36.07-.33-.12-.61-.33-.64Z"/>
    <path class="cls-2" d="M40.14,72.36s-.03.07-.05.1c-.63.7-1.19,1.47-1.77,2.21-.93,1.19-1.88,2.35-2.29,3.86,0,.05-.02.11-.03.18-.12.34-.24.69-.34,1.03-.15.49-.08,1.03-.25,1.51,0,0,0,0,0,0-.03.07-.03.15,0,.22.26.53.71.04.96-.22.8-.75,1.49-1.61,2.36-2.27.8-.58,1.51-1.28,2.22-1.97.88-.82,1.74-1.67,2.48-2.62.37-.4.72-.81,1.06-1.24-.12,2.1.4,4.22,1.28,6.12.71.59.89-.74,1.03-1.2.42-1.69.73-3.4.69-5.15.03-.61-.02-1.23-.16-1.84,1.27-.28,2.49-.8,3.53-1.61.54-.51,1.07-1.04,1.59-1.58.12-.13.24-.26.34-.41.14-.21-.05-.51-.3-.47-.86.37-1.82.41-2.73.65-.65.14-1.3.31-1.91.57.13-.67.2-1.36.31-1.98.21-1.64-.02-3.37-.79-4.85-.43-.94-.98-1.84-1.87-2.41-.45-.34-.82-.77-1.23-1.15-.1-.08-.21-.17-.35-.18-.36,0-.39.37-.33.64.02.35.08.69.17,1.03.16.64.24,1.3.4,1.94.12,1.29.26,2.58.26,3.88,0,.06,0,.13,0,.19-.83-1.75-2.16-3.32-3.69-4.34-1.29-.91-2.7-1.63-4.13-2.31-1.42-.75-2.86-1.46-4.34-2.08-.77-.33-1.59-.58-2.43-.67-.39-.05-1.04-.09-1.08.43.04.5.63.72.97,1.02,1.02.8,2.01,1.64,3,2.49,1.2,1.1,2.43,2.17,3.67,3.23-.11-.06-.22-.11-.33-.17-1.09-.56-2.27-.92-3.45-1.23-1.38-.47-2.85-.6-4.31-.69-1.99.04-4.01-.03-5.94.53-1.14.1-2.3.19-3.36.69-.2.09-.43.18-.58.34-.19.21-.08.57.19.64,1.25.37,2.47.53,3.78.61.95,0,1.85.24,2.76.49,1.24.32,2.47.67,3.7.99,1.58.41,3.09,1.04,4.64,1.56,1.05.36,2.11.69,3.17,1.01-1.81.19-3.59.75-5.24,1.5-1.75.74-3.61,1.37-5.1,2.59-1.15.94-2.24,2.07-2.81,3.47-.4.6-.69,1.56-.08,1.66.16.01.31-.08.45-.14.87-.43,1.7-.98,2.67-1.21,1.05-.35,2.04-.87,3.12-1.22,1.31-.58,2.7-.99,4.1-1.28,1.2-.17,2.39-.43,3.6-.58.94-.08,1.88-.17,2.81-.31Z"/>
    <path class="cls-2" d="M76.93,73.2c-.63-.95-1.32-1.85-2.11-2.51-1.24-1.08-2.63-1.71-4.02-2.22-1.15-.37-2.34-.41-3.51-.46-.13,0-.26.02-.38.03h0s.01-.01.01-.01h.01s.01-.02.01-.02h.01s.01-.02.01-.02h.01s.01-.02.01-.02h.01s.01-.02.01-.02h.01s.01-.02.01-.02h.01s.01-.02.01-.02h.01s.01-.02.01-.02h.01s.01-.02.01-.02h.01s.01-.02.01-.02h.01s.01-.02.01-.02h.01s.01-.02.01-.02h.01s0-.02,0-.02h0s0-.02,0-.02h0s0-.02,0-.02h0s0-.02,0-.02h0s0-.02,0-.02h0s0-.02,0-.02h0s0-.02,0-.02h0s0-.02,0-.02h0s0-.02,0-.02h0s0-.02,0-.02h0s0-.02,0-.02h0s0-.02,0-.02h0s0-.01,0-.01c-.01,0-.02,0-.04.01.38-.48.75-1,1.12-1.49.32-.4.63-.83.98-1.17.13-.07.24-.21.23-.44-.02-.29-.24-.43-.41-.31-.07.01-.14.02-.21.02-.09,0-.17.01-.26.03-.79.12-1.58.25-2.31.71-1.05.53-2.07,1.28-2.96,2.27-.53.6-.97,1.32-1.4,2.06.04-.99-.02-2.1-.02-2.72,0-.52-.05-1.04-.11-1.56-.02-.19-.04-.41-.17-.51-.38-.3-.86,1.2-1.02,1.61-.39.98-.76,2.46-.84,3.8-.14-.09-.28-.16-.43-.23-.2-.12-.41-.23-.62-.29-.22-.04-.52-.27-.66.1-.08.22.01.46.07.67.09.34.2.66.3.99.26.79.69,1.49,1.2,1.96-.56,1.13-.79,2.54-.87,3.92,0,.39-.17,1.44.24,1.44.14,0,.23-.21.31-.34.54-.82,1.02-1.74,1.32-2.78.26.95.54,1.91,1.01,2.67.47.96,1.05,1.78,1.7,2.47.15.15.28.38.47.43.45.03.37-.94.42-1.39.03-1.18-.18-2.37-.43-3.48-.06-.22-.12-.44-.18-.66,2.36,2.83,5.27,4.42,8.13,5.86.06.04.12.06.19.05.14-.02.27-.16.28-.39,0-.16-.04-.3-.12-.38-.19-.5-.35-1.02-.54-1.52-.4-1.06-1.09-1.74-1.74-2.43-.78-.97-1.62-1.86-2.51-2.61.08.02.16.05.24.07,2.16.5,4.35.18,6.53.12.28,0,.57-.04.85-.07.54-.07,1.09-.13,1.62.04.03,0,.06.01.09,0,.31-.04.39-.73.06-.89Z"/>
    <path class="cls-2" d="M61.06,56.29c-1.08,1.38-2.04,2.87-3.02,4.3-.59.91-1.17,1.99-1.74,2.96-.16.29-.28.59-.4.9-.03-.12-.06-.24-.09-.36-.03-.37-.06-.75-.1-1.12-.2-1.58-.47-3.15-.72-4.72-.15-.84-.33-1.69-.49-2.53-.14-1.24-.25-2.49-.17-3.74.23-3.3.84-6.54,1.61-9.76-.15-.1-.3-.22-.43-.34,0,0,0,0,0,0-.17-.15-.34-.31-.5-.46,0,0,0,0,0,0h0s0,0,0,0c-.23.05-.46.08-.68.13-.68,3.65-1.31,7.33-1.25,11.06.04,1.77.26,3.53.53,5.29-.68-1.28-1.44-2.53-2.22-3.75-1.08-1.64-2.46-3.06-3.6-4.65-.06-.1-.13-.19-.2-.29-.18,0-.36,0-.54-.02-.02.15-.03.3-.05.45,0,.07-.02.14-.02.21-.04.27-.07.54-.11.8.64.75,1.28,1.49,1.87,2.28.43.67.97,1.33,1.46,1.97,1.29,2,2.37,4.09,3.45,6.21.31.63.55,1.29.78,1.95.02.15.05.3.07.45.25,1.9.3,3.85.29,5.79-.06.52-.13,1.03-.22,1.54-.35,1.55-.71,3.1-.95,4.67,0,.04,0,.09-.01.13-.02.19-.02.38-.03.56-.51-1.33-1.32-2.54-2.4-3.47-.58-.58-1.23-1.1-1.96-1.49-.1.02-.19.04-.29.06-.12.03-.24.07-.36.1-.01,0-.03,0-.04.01-.11.03-.22.05-.34.06,0,0,0,0,0,0h0s0,.03,0,.04c0,.05.01.09.02.13,0,0,0,0,0,0,.03.2.05.4.05.6,0,.02,0,.03,0,.04.3.19.58.4.86.62.6.56,1.16,1.18,1.69,1.81.26.42.49.86.72,1.29.1.16.19.33.29.49.48,1.27.83,2.59,1.07,3.93.06.49.06.98.07,1.48.06,0,.12-.01.18-.02.18-.01.36-.02.54-.03.02,0,.04,0,.06,0,.02,0,.05,0,.07,0,.05,0,.11-.01.16-.02.27-.03.54-.06.81-.07.03,0,.07,0,.1,0,0-.01,0-.02,0-.03.11-1.38.28-2.75.47-4.13.19-.44.42-.86.66-1.27.62-.77,1.84-1.4,2.72-1.87.04-.12.07-.23.11-.35.05-.18.09-.36.14-.54.02-.07.05-.14.07-.21-.03-.05-.06-.09-.09-.14,0,0,0,0,0,0-.02-.04-.05-.08-.07-.12-.09-.13-.19-.25-.28-.37-.88.25-2.08.66-2.77,1.23.04-.29.08-.58.11-.87.17-1,.25-2,.27-3.01.27-1.23.56-2.45.87-3.66.55-1.46,1.29-2.84,1.99-4.23.71-1.23,1.48-2.41,2.31-3.57.24-.32.5-.64.76-.95-.01-.06-.03-.12-.04-.17-.08-.36-.16-.72-.2-1.09,0,0,0,0,0,0,0,0,0,0,0,0-.13-.02-.26-.04-.4-.06,0,0,0,0,0,0,0,0,0,0,0,0,0,0,0,0,0,0h0s0,0,0,0c0,0,0,0,0,0-.12,0-.25,0-.37-.02-.02,0-.03,0-.04,0Z"/>
  </g>
</svg>