<?xml version="1.0" encoding="UTF-8"?>
<svg id="Layer_1" data-name="Layer 1" xmlns="http://www.w3.org/2000/svg" viewBox="0 0 188.39 105.59">
  <defs>
    <style>
      .cls-1 {
        fill: #8f791f;
      }
    </style>
  </defs>
  <path class="cls-1" d="M83.26,44.02l-2.24-.64v-7.96c0-.74.07-1.38.2-1.89.13-.51.28-.91.45-1.18.32-.55.76-.98,1.31-1.28.56-.3,1.14-.45,1.74-.45,1.38,0,2.3.51,2.81,1.56.19.4.33.96.41,1.64.08.69.12,1.77.12,3.22v6.35l-2.24.64v2.14h9.37v-2.14l-2.58-.64v-6.78c0-1.92-.17-3.51-.49-4.71-.33-1.21-.85-2.2-1.56-2.93-.5-.53-1.1-.92-1.78-1.16-.67-.24-1.51-.36-2.48-.36-1.16,0-2.24.32-3.21.96-.82.54-1.51,1.25-2.06,2.12v-10.79h-7.13v2.14l2.58.64v20.87l-2.58.64v2.14h9.37v-2.14Z"/>
  <path class="cls-1" d="M96.85,42.53c.64,1.29,1.57,2.29,2.77,2.96,1.2.67,2.65,1.01,4.29,1.01,1.96,0,3.63-.4,4.98-1.19,1.34-.79,2.42-1.76,3.21-2.89l.08-.12-2.04-1.58-.09.12c-.67.87-1.5,1.53-2.44,1.96-.95.44-1.91.66-2.87.66-.86,0-1.59-.2-2.16-.59-.58-.4-1.05-.97-1.39-1.7-.42-.95-.64-2.15-.66-3.58h11.68v-.14c.06-.52.08-.89.1-1.13.01-.24.02-.48.02-.73,0-2.53-.73-4.54-2.17-5.98-1.44-1.44-3.42-2.17-5.88-2.17-2.67,0-4.76.88-6.23,2.62-1.46,1.73-2.2,4.2-2.2,7.35,0,.99.08,1.92.24,2.77.16.86.41,1.65.75,2.35ZM104.22,30.05c1.06,0,1.91.38,2.51,1.12.61.75.92,1.85.92,3.26v.72h-7.06c.25-3.43,1.43-5.1,3.63-5.1Z"/>
  <path class="cls-1" d="M125.29,27.44c-1.08,0-2.09.43-2.98,1.28-.83.79-1.51,1.89-2.01,3.29l-.71-4.23h-6.1v1.64l2.58.64v13.33l-2.58.64v2.14h10.75v-2.15l-3.62-.64v-5.13c0-1.15.1-2.13.3-2.91.2-.8.44-1.58.7-2.33.11-.3.29-.65.54-1.04.25-.39.53-.73.83-1.03.19-.18.36-.31.52-.37-.05.16-.08.28-.09.34-.01.08-.02.21-.02.37,0,.53.2,1.02.61,1.46.41.44,1.09.67,2.02.67.78,0,1.4-.3,1.83-.88.42-.57.63-1.21.63-1.91,0-.95-.31-1.73-.92-2.3-.61-.57-1.37-.86-2.28-.86Z"/>
  <path class="cls-1" d="M130.67,46.16h2.84l.93-3.13c.66,1.27,1.42,2.16,2.27,2.66.91.54,1.96.81,3.12.81,2.38,0,4.23-.75,5.5-2.23.77-.88,1.38-1.99,1.8-3.3.43-1.31.64-2.71.64-4.17s-.19-2.79-.58-4.03c-.39-1.24-.93-2.31-1.63-3.16-.6-.76-1.38-1.31-2.33-1.66-.94-.34-2-.51-3.15-.51-1.04,0-2,.17-2.84.51-.74.3-1.42.8-2.04,1.5v-9.72h-7.13v2.14l2.58.64v23.65ZM135.55,33.64c.22-.89.49-1.62.82-2.19.32-.55.74-.93,1.25-1.14.53-.22,1.09-.32,1.67-.32.68,0,1.24.14,1.66.43.42.29.76.71,1.02,1.26.28.61.52,1.42.71,2.39.19.98.28,2.11.28,3.37,0,1.15-.09,2.14-.26,2.93-.17.79-.43,1.48-.75,2.05-.28.45-.62.83-1.02,1.11-.39.28-.93.42-1.6.42s-1.26-.15-1.73-.45c-.47-.3-.88-.72-1.23-1.26-.33-.52-.6-1.21-.82-2.04-.22-.83-.33-1.92-.33-3.24s.11-2.44.33-3.33Z"/>
  <path class="cls-1" d="M92.05,59.21h.72v-3.75h-.72l-3.13,1.48-1.06.38c-.65-.5-1.4-.88-2.23-1.13-.86-.26-2.06-.39-3.56-.39-2.28,0-4.06.53-5.29,1.58-1.23,1.05-1.86,2.51-1.86,4.33,0,1.26.35,2.36,1.03,3.29.57.77,1.33,1.33,2.27,1.67-.58.14-1.07.36-1.47.65-.53.39-.92.85-1.15,1.36-.23.51-.35,1-.35,1.47,0,1.19.75,2.05,2.24,2.56-1.09.11-1.93.45-2.52,1.02-.68.65-1.02,1.52-1.02,2.59s.37,1.97,1.09,2.61c.71.63,1.67,1.09,2.86,1.36,1.18.27,2.5.41,3.94.41,3.23,0,5.62-.49,7.12-1.46,1.51-.98,2.28-2.55,2.28-4.65,0-1.52-.49-2.67-1.47-3.42-.96-.74-2.39-1.12-4.24-1.12h-3.89c-1.1,0-1.86-.07-2.26-.21-.37-.12-.54-.34-.54-.68,0-.46.23-.8.71-1.06.51-.27,1.19-.46,2.01-.57.23.02.45.04.68.05.22.01.45.02.68.02,2.17,0,3.86-.55,5.03-1.63,1.16-1.08,1.76-2.58,1.76-4.45,0-1.02-.19-1.88-.56-2.56h.56s2.36.27,2.36.27ZM81.87,73.41h1.17c1.67,0,2.85.16,3.52.47.64.3.95.8.95,1.52,0,.91-.41,1.59-1.26,2.06-.87.49-2.16.73-3.85.73-3.08,0-4.64-.81-4.64-2.4,0-.71.31-1.28.94-1.72.64-.45,1.7-.68,3.16-.68ZM84.64,64.34c-.53.62-1.37.94-2.5.94-.94,0-1.66-.31-2.18-.93-.52-.63-.79-1.56-.79-2.77,0-1.14.26-2.01.77-2.58.5-.57,1.24-.85,2.2-.85,1.13,0,1.98.29,2.5.86.53.57.8,1.44.8,2.58,0,1.21-.27,2.14-.8,2.77Z"/>
  <path class="cls-1" d="M108.98,71.54c-.14-.41-.21-1.16-.21-2.23v-4.35c0-3.42-.91-5.96-2.7-7.55-.53-.46-1.23-.84-2.07-1.15-.85-.31-1.82-.46-2.88-.46s-2.08.17-3.09.51c-1.02.34-1.87.85-2.54,1.51-.67.67-1.01,1.5-1.01,2.45,0,.73.22,1.34.64,1.82.43.49,1.02.74,1.75.74s1.36-.23,1.87-.69c.52-.46.79-1,.79-1.6,0-.26-.07-.57-.19-.92-.12-.32-.32-.57-.6-.75.13-.22.35-.4.65-.54.37-.17.78-.25,1.23-.25.61,0,1.12.15,1.52.44.41.3.75.7,1.03,1.19.24.41.44.92.59,1.5.15.57.27,1.38.35,2.42-3.58.56-6.24,1.35-7.92,2.36-1.74,1.04-2.62,2.53-2.62,4.43,0,1.38.42,2.47,1.25,3.26.83.78,1.98,1.18,3.42,1.18,1.34,0,2.6-.33,3.76-.99,1.08-.61,1.97-1.46,2.66-2.51.02,1.32.14,2.2.38,2.68.27.54.81.82,1.61.82,1.06,0,2.64-.33,4.7-.98l.1-.03v-1.76h-1.66c-.43,0-.69-.17-.81-.54ZM103.9,69.09c-.22.57-.45,1-.68,1.3-.41.54-.9.97-1.44,1.27-1.14.62-2.02.62-2.83-.13-.41-.38-.62-1.04-.62-1.95,0-.73.18-1.34.53-1.84.35-.5.96-.94,1.81-1.3.84-.36,2-.71,3.45-1.03.03.24.06.5.08.77.02.34.03.63.03.89,0,.78-.11,1.46-.33,2.02Z"/>
  <path class="cls-1" d="M124.77,55.8c-1.08,0-2.09.43-2.98,1.28-.83.79-1.51,1.89-2.01,3.29l-.71-4.23h-6.1v1.64l2.58.64v13.33l-2.58.64v2.14h10.75v-2.15l-3.62-.64v-5.13c0-1.15.1-2.12.3-2.91.2-.8.44-1.58.7-2.33.11-.3.29-.65.54-1.04.25-.39.53-.73.83-1.03.19-.18.36-.31.52-.37-.05.16-.08.28-.09.34-.01.08-.02.21-.02.37,0,.53.2,1.02.61,1.46.41.44,1.09.67,2.02.67.78,0,1.4-.3,1.83-.88.42-.57.63-1.21.63-1.91,0-.95-.31-1.73-.92-2.3-.61-.57-1.37-.86-2.28-.86Z"/>
  <path class="cls-1" d="M145.86,49.29h-7.13v2.14l2.58.64v6.02c-.59-.8-1.25-1.37-1.96-1.71-.82-.39-1.78-.58-2.84-.58-1.13,0-2.17.19-3.07.56-.91.37-1.7.93-2.37,1.66-.7.8-1.27,1.86-1.69,3.15-.42,1.29-.63,2.7-.63,4.18s.22,2.95.64,4.22c.43,1.28,1,2.32,1.7,3.11.59.68,1.32,1.22,2.18,1.6.85.38,1.92.57,3.16.57,1.18,0,2.22-.21,3.11-.62.8-.37,1.53-.99,2.17-1.87l.24,2.49,6.48-.35v-2.13l-2.58-.64v-22.45ZM141.01,68.6c-.2.93-.47,1.68-.82,2.24-.34.53-.77.91-1.27,1.13-1.14.5-2.25.44-3.2-.13-.52-.31-.94-.74-1.23-1.26-.26-.5-.48-1.23-.65-2.17-.18-.94-.27-2.07-.27-3.36,0-1.11.07-2.14.22-3.06.14-.92.36-1.64.64-2.16.29-.55.71-.93,1.23-1.14.54-.21,1.07-.32,1.59-.32.68,0,1.27.14,1.75.42s.88.68,1.2,1.19c.3.47.57,1.19.78,2.13.22.94.33,2.07.33,3.35,0,1.15-.1,2.2-.3,3.13Z"/>
  <path class="cls-1" d="M157.81,55.8c-2.67,0-4.76.88-6.23,2.62-1.46,1.73-2.2,4.2-2.2,7.35,0,.99.08,1.92.24,2.77.16.86.41,1.65.75,2.35.64,1.3,1.57,2.29,2.77,2.96,1.2.67,2.65,1.01,4.29,1.01,1.96,0,3.63-.4,4.98-1.19,1.34-.79,2.42-1.76,3.21-2.89l.08-.12-2.04-1.58-.09.12c-.67.87-1.5,1.53-2.44,1.97-.95.44-1.91.66-2.87.66-.86,0-1.59-.2-2.16-.59-.58-.4-1.05-.97-1.39-1.7-.42-.95-.64-2.15-.66-3.58h11.68v-.14c.06-.52.08-.89.1-1.13.01-.24.02-.48.02-.73,0-2.53-.73-4.54-2.17-5.98s-3.42-2.17-5.88-2.17ZM161.18,63.5h-7.06c.25-3.43,1.43-5.1,3.63-5.1,1.06,0,1.91.38,2.51,1.12.61.75.92,1.85.92,3.26v.72Z"/>
  <path class="cls-1" d="M185.81,71.74v-6.78c0-1.92-.1-3.46-.29-4.6-.19-1.15-.52-2.05-.98-2.69-.92-1.24-2.35-1.87-4.24-1.87-1.32,0-2.57.34-3.73,1.01-1.1.64-2,1.51-2.67,2.59l-.72-3.26h-6.1v2.14l2.58.64v12.83l-2.58.64v2.14h9.37v-2.14l-2.24-.64v-7.82c.09-1.71.58-3,1.46-3.82.73-.68,1.63-1.03,2.68-1.03.55,0,1.04.11,1.44.32.39.21.71.59.94,1.13.19.43.33,1.02.41,1.75.08.74.12,1.79.12,3.12v6.35l-2.24.64v2.14h9.37v-2.14l-2.58-.64Z"/>
  <path class="cls-1" d="M88.85,97.55c-.65.89-1.48,1.55-2.47,1.98-.99.42-1.95.64-2.84.64-.84,0-1.53-.18-2.06-.53-.54-.35-.98-.85-1.32-1.47-.26-.5-.47-1.1-.62-1.77-.15-.68-.23-1.63-.23-2.81,0-2.61.38-4.44,1.14-5.44.75-.98,1.81-1.48,3.16-1.48.76,0,1.46.12,2.07.36.52.2.91.45,1.19.76-.49.18-.87.46-1.13.85-.3.44-.44.95-.44,1.54s.18,1.17.54,1.72c.37.58,1.03.87,1.95.87.82,0,1.52-.28,2.08-.83.56-.55.85-1.36.85-2.4s-.32-2.03-.95-2.84c-.63-.8-1.5-1.43-2.59-1.87-1.08-.44-2.34-.66-3.74-.66-1.85,0-3.46.4-4.8,1.19-1.34.79-2.38,1.93-3.09,3.38-.71,1.44-1.07,3.17-1.07,5.12,0,2.16.41,4.02,1.22,5.53.66,1.25,1.59,2.21,2.76,2.86,1.17.65,2.61.97,4.28.97,1.58,0,3.08-.32,4.48-.95,1.4-.63,2.64-1.69,3.68-3.13l.08-.12-2.04-1.59-.09.12Z"/>
  <path class="cls-1" d="M107.72,86.38c-.75-.8-1.67-1.37-2.73-1.71-1.05-.34-2.29-.51-3.68-.51s-2.63.17-3.68.51c-1.06.34-1.97.92-2.73,1.71-.79.84-1.41,1.92-1.82,3.21-.42,1.28-.63,2.66-.63,4.1s.21,2.81.63,4.08c.42,1.28,1.03,2.36,1.82,3.22.75.8,1.67,1.37,2.73,1.71,1.05.34,2.29.51,3.68.51s2.63-.17,3.68-.51c1.06-.34,1.98-.92,2.73-1.72.79-.86,1.41-1.94,1.82-3.22.42-1.27.63-2.64.63-4.08s-.21-2.82-.63-4.1c-.42-1.29-1.03-2.37-1.82-3.21ZM104.24,99.4c-.27.42-.66.74-1.14.95-.49.21-1.09.32-1.78.32s-1.28-.11-1.76-.32c-.47-.21-.86-.53-1.16-.95-.69-1.06-1.05-2.99-1.05-5.71s.35-4.65,1.05-5.71c.3-.42.69-.74,1.16-.95.48-.21,1.08-.32,1.76-.32s1.29.11,1.78.32c.48.21.87.53,1.14.95.34.52.61,1.25.78,2.19.18.94.27,2.13.27,3.52,0,2.73-.35,4.65-1.05,5.71Z"/>
  <path class="cls-1" d="M114.79,98.12c-.84,0-1.52.26-2.02.77-.49.51-.75,1.21-.75,2.1s.25,1.54.73,2.02c.48.47,1.16.71,2,.71.89,0,1.59-.25,2.08-.75.5-.5.75-1.17.75-2.01s-.26-1.53-.76-2.05c-.51-.52-1.19-.78-2.03-.78Z"/>
  <path class="cls-1" d="M57.28,76.99c-.39-1.11-1.43-2.21-2.66-2.3-1.49-.04-2.97.06-4.44.21-2.93-.09-5.85-.25-8.78-.16-3.36.06-6.73.01-10.09-.03-2.24-.03-4.48-.06-6.72-.06-1.77.04-3.55,0-5.26.48-.33.08-.68.19-.86.5-.34.76-.48,1.59-.7,2.38-.18.9-.81,2.22.16,2.85.98.48,2.03.81,3.11,1.05h.02s.04,0,.04,0h.04s.04,0,.04,0h.04s.04,0,.04,0h.04s.04,0,.04,0h.04s.04,0,.04,0h.04s.04,0,.04,0h.04s.04,0,.04,0h.04s.04,0,.04,0h.04s.04,0,.04,0h.04s.04,0,.04,0h.04s.04,0,.04,0h.04s.04,0,.04,0h.04s.04,0,.04,0h.04s.04,0,.04,0h.03s.03,0,.03,0h.03s.03,0,.03,0h.04s.04,0,.04,0h.04s.04,0,.04,0h.04s.04,0,.04,0h.05s.05,0,.05,0h.05s.05,0,.05,0h.05s.05,0,.05,0h.06s.06,0,.06,0h.06s.06,0,.06,0h.06s.05,0,.05,0h.05s.05,0,.05,0h.05s.05,0,.05,0h.05s.05,0,.05,0h.05s.05,0,.05,0h.05s.05,0,.05,0h.05s.05,0,.05,0h.05s.05,0,.05,0h.05s.05,0,.05,0h.05s.05,0,.05,0h.05s.05,0,.05,0h.05s.05,0,.05,0h.05s.05,0,.05,0h.05s.05,0,.05,0h.05s.05,0,.05,0h.05s.05,0,.05,0h.05s.05,0,.05,0h.05s.05,0,.05,0h.05s.06,0,.06,0h.06s.06,0,.06,0h.06s.06,0,.06,0h.06s.07,0,.07,0h.28s.07,0,.07,0h.07s.07,0,.07,0h.07s.07,0,.07,0h.07s.07,0,.07,0h.07s.07,0,.07,0h.07s.07,0,.07,0h.07s.07,0,.07,0h.07s.07,0,.07,0h.07s.07,0,.07,0h.07s.07,0,.07,0h.07s.07,0,.07,0h.07s.07,0,.07,0h.07s.07,0,.07,0h.07s.07,0,.07,0h.07s.07,0,.07,0h.06s.06,0,.06,0h.06s.06,0,.06,0h.06s.06,0,.06,0h.06s.06,0,.06,0h.06s.06,0,.06,0h.06s.06,0,.06,0h.12s.06,0,.06,0h.24s.06,0,.06,0h.06s.06,0,.06,0h.06s.06,0,.06,0h.06s.06,0,.06,0h.06s.07,0,.07,0h.07s.07,0,.07,0h.07s.07,0,.07,0h.15s.07,0,.07,0h.07s.07,0,.07,0h.07s.07,0,.07,0h.07s.07,0,.07,0h.07s.07,0,.07,0h.07s.07,0,.07,0h.07s.07,0,.07,0h.07s.08,0,.08,0h.08s.08,0,.08,0h.08s.08,0,.08,0h.08s.08,0,.08,0h.08s.08,0,.08,0h.09s.09,0,.09,0h.09s.09,0,.09,0h.09s.09,0,.09,0h.09s.09,0,.09,0h.09s.09,0,.09,0h.09s.09,0,.09,0h.09s.09,0,.09,0h.09s.09,0,.09,0h.09s.09,0,.09,0h.09s.09,0,.09,0h.09s.09,0,.09,0h.1s.1,0,.1,0h.09s.09,0,.09,0h.09s.09,0,.09,0h.09s.09,0,.09,0h.09s.09,0,.09,0h.09s.09,0,.09,0h.09s.09,0,.09,0h.09s.08,0,.08,0h.08s.08,0,.08,0h.08s.08,0,.08,0h.08s.08,0,.08,0h.08s.08,0,.08,0h.08s.07,0,.07,0h.07s.07,0,.07,0h.07s.07,0,.07,0h.07s.07,0,.07,0h.07s.07,0,.07,0h.07s.07,0,.07,0h.07s.07,0,.07,0h.07s.07,0,.07,0h.07s.07,0,.07,0h.07s.07,0,.07,0h.07s.07,0,.07,0h.07s.07,0,.07,0h.07s.06,0,.06,0h.06s.06,0,.06,0h.06s.06,0,.06,0h.06s.06,0,.06,0h.06s.06,0,.06,0h.06s.06,0,.06,0h.06s.06,0,.06,0h.06s.06,0,.06,0h.06s.07,0,.07,0h.07s.07,0,.07,0h.07s.08,0,.08,0h.08s.08,0,.08,0h.08s.08,0,.08,0h.09s.09,0,.09,0h.09s.09,0,.09,0h.09s.09,0,.09,0h.09s.09,0,.09,0h.09s.09,0,.09,0h.09s.09,0,.09,0h.09s.09,0,.09,0h.09s.09,0,.09,0h.09s.09,0,.09,0h.09s.09,0,.09,0h.09s.09,0,.09,0h.09s.09,0,.09,0h.09s.09,0,.09,0h.6s.06,0,.06,0h.18s.06,0,.06,0h.06s.06,0,.06,0h.06s.06,0,.06,0h.06s.06,0,.06,0h.06s.06,0,.06,0h.06s.07,0,.07,0h.07s.07,0,.07,0h.07s.07,0,.07,0h.07s.07,0,.07,0h.06s.06,0,.06,0h.06s.06,0,.06,0h.06s.06,0,.06,0h.06s.06,0,.06,0h.06s.06,0,.06,0h.06s.07,0,.07,0h.07s.07,0,.07,0h.07s.07,0,.07,0h.07s.07,0,.07,0h.07s.07,0,.07,0h.07s.07,0,.07,0h.06s.06,0,.06,0h.06s.06,0,.06,0h.06s.05,0,.05,0h.05s.05,0,.05,0h.05s.05,0,.05,0h.05s.05,0,.05,0h.05s.05,0,.05,0h.05s.05,0,.05,0h.05s.05,0,.05,0h.05s.06,0,.06,0h.06s.06,0,.06,0h.06s.06,0,.06,0h.06s.06,0,.06,0h.06s.06,0,.06,0h.06s.06,0,.06,0h.06s.06,0,.06,0h.06s.06,0,.06,0h.06s.06,0,.06,0h.06s.06,0,.06,0h.06s.06,0,.06,0h.06s.06,0,.06,0h.12s.06,0,.06,0h.06s.06,0,.06,0h.06s.06,0,.06,0h.06s.06,0,.06,0h.06s.06,0,.06,0h.06s.06,0,.06,0h.06s.05,0,.05,0h.11s.05,0,.05,0h.05s.05,0,.05,0h.05s.05,0,.05,0h.1s.05,0,.05,0h.05s.05,0,.05,0h.05s.05,0,.05,0h.22s.06,0,.06,0h.18s.06,0,.06,0h.06s.06,0,.06,0h.06s.06,0,.06,0h.11s.05,0,.05,0h.05s.05,0,.05,0h.1s.05,0,.05,0h.1s.05,0,.05,0h.05s.05,0,.05,0h.05s.05,0,.05,0h.05s.05,0,.05,0h.05s.05,0,.05,0h.05s.05,0,.05,0h.05s.05,0,.05,0h.05s.05,0,.05,0h.05s.05,0,.05,0h.05s.05,0,.05,0h.05s.05,0,.05,0h.14s.05,0,.05,0h.05s.05,0,.05,0h.05s.05,0,.05,0h.05s.05,0,.05,0h.05s.05,0,.05,0h.09s.05,0,.05,0h.13s.04,0,.04,0h.04s.04,0,.04,0h.04s.04,0,.04,0h.03s.03,0,.03,0h.03s.03,0,.03,0h.03s.03,0,.03,0h.03s.03,0,.03,0h.03s.03,0,.03,0h.03s.03,0,.03,0h.03s.03,0,.03,0h.03s.04,0,.04,0h.04s.04,0,.04,0h.04s.04,0,.04,0h.04s.05,0,.05,0h.05s.05,0,.05,0h.05s.05,0,.05,0h.05s.05,0,.05,0h.05s.05,0,.05,0h.05s.05,0,.05,0h.05s.05,0,.05,0h.05s.05,0,.05,0h.05s.05,0,.05,0h.05s.05,0,.05,0h.05s.05,0,.05,0h.05s.05,0,.05,0h.05s.05,0,.05,0h.05s.05,0,.05,0h.04s.02-.06.02-.09c.3-.07.59-.14.89-.19.81-.22,1.77-.31,2.41-.9.19-.25.14-.59.14-.89-.03-.78.04-1.59-.17-2.35Z"/>
  <path class="cls-1" d="M53.59,82.66h-.05s-.05,0-.05,0h-.05s-.05,0-.05,0h-.05s-.05,0-.05,0h-.05s-.05,0-.05,0h-.05s-.05,0-.05,0h-.05s-.05,0-.05,0h-.05s-.05,0-.05,0h-.05s-.06,0-.06,0h-.06s-.06,0-.06,0h-.06s-.06,0-.06,0h-.06s-.06,0-.06,0h-.07s-.07,0-.07,0h-.07s-.07,0-.07,0h-.07s-.07,0-.07,0h-.07s-.07,0-.07,0h-.07s-.07,0-.07,0h-.07s-.07,0-.07,0h-.07s-.07,0-.07,0h-.07s-.07,0-.07,0h-.08s-.08,0-.08,0h-.08s-.07,0-.07,0h-.07s-.07,0-.07,0h-.07s-.07,0-.07,0h-.06s-.06,0-.06,0h-.06s-.06,0-.06,0h-.05s-.05,0-.05,0h-.05s-.05,0-.05,0h-.05s-.05,0-.05,0h-.05s-.05,0-.05,0h-.05s-.05,0-.05,0h-.05s-.05,0-.05,0h-.05s-.05,0-.05,0h-.05s-.05,0-.05,0h-.06s-.06,0-.06,0h-.06s-.06,0-.06,0h-.06s-.06,0-.06,0h-.06s-.06,0-.06,0h-.06s-.06,0-.06,0h-.26s-.07,0-.07,0h-.07s-.07,0-.07,0h-.07s-.07,0-.07,0h-.07s-.07,0-.07,0h-.07s-.07,0-.07,0h-.07s-.07,0-.07,0h-.07s-.07,0-.07,0h-.07s-.07,0-.07,0h-.13s-.07,0-.07,0h-.07s-.07,0-.07,0h-.07s-.06,0-.06,0h-.06s-.06,0-.06,0h-.06s-.06,0-.06,0h-.06s-.06,0-.06,0h-.06s-.06,0-.06,0h-.05s-.05,0-.05,0h-.05s-.05,0-.05,0h-.05s-.05,0-.05,0h-.05s-.05,0-.05,0h-.05s-.05,0-.05,0h-.05s-.05,0-.05,0h-.05s-.05,0-.05,0h-.05s-.05,0-.05,0h-.05s-.05,0-.05,0h-.05s-.05,0-.05,0h-.05s-.06,0-.06,0h-.06s-.06,0-.06,0h-.06s-.06,0-.06,0h-.06s-.06,0-.06,0h-.07s-.07,0-.07,0h-.07s-.07,0-.07,0h-.07s-.07,0-.07,0h-.07s-.07,0-.07,0h-.07s-.07,0-.07,0h-.07s-.07,0-.07,0h-.07s-.07,0-.07,0h-.07s-.06,0-.06,0h-.06s-.06,0-.06,0h-.06s-.06,0-.06,0h-.11s-.06,0-.06,0h-.05s-.05,0-.05,0h-.05s-.05,0-.05,0h-.05s-.05,0-.05,0h-.05s-.05,0-.05,0h-.05s-.05,0-.05,0h-.05s-.05,0-.05,0h-.05s-.04,0-.04,0h-.04s-.04,0-.04,0h-.04s-.04,0-.04,0h-.04s-.04,0-.04,0h-.04s-.04,0-.04,0h-.05s-.05,0-.05,0h-.05s-.05,0-.05,0h-.05s-.05,0-.05,0h-.05s-.05,0-.05,0h-.05s-.06,0-.06,0h-.06s-.06,0-.06,0h-.06s-.06,0-.06,0h-.06s-.06,0-.06,0h-.06s-.07,0-.07,0h-.07s-.07,0-.07,0h-.07s-.07,0-.07,0h-.07s-.07,0-.07,0h-.07s-.07,0-.07,0h-.07s-.07,0-.07,0h-.07s-.07,0-.07,0h-.08s-.08,0-.08,0h-.08s-.08,0-.08,0h-.08s-.07,0-.07,0h-.07s-.07,0-.07,0h-.15s-.07,0-.07,0h-.35s-.07,0-.07,0h-.14s-.07,0-.07,0h-.07s-.07,0-.07,0h-.07s-.07,0-.07,0h-.07s-.07,0-.07,0h-.28s-.07,0-.07,0h-.07s-.06,0-.06,0h-.06s-.06,0-.06,0h-.06s-.06,0-.06,0h-.06s-.06,0-.06,0h-.05s-.05,0-.05,0h-.05s-.05,0-.05,0h-.05s-.05,0-.05,0h-.05s-.06,0-.06,0h-.06s-.06,0-.06,0h-.06s-.06.01-.06.01h-.06s-.06.01-.06.01h-.06s-.06.01-.06.01h-.06s-.06.01-.06.01h-.06s-.06.01-.06.01h-.06s-.07.01-.07.01h-.07s-.07.01-.07.01h-.07s-.07.01-.07.01h-.07s-.07.01-.07.01h-.08s-.08.01-.08.01h-.08s-.08.01-.08.01h-.08s-.08.01-.08.01h-.08s-.08.01-.08.01h-.08s-.08.01-.08.01h-.07s-.07.01-.07.01h-.07s-.07,0-.07,0h-.07s-.07,0-.07,0h-.07s-.07,0-.07,0h-.07s-.08,0-.08,0h-.08s-.09,0-.09,0h-.09s-.09,0-.09,0h-.1s-.1,0-.1,0h-.1s-.11,0-.11,0h-.11s-.11,0-.11,0h-.11s-.1,0-.1,0h-.1s-.1,0-.1,0h-.1s-.1,0-.1,0h-.09s-.09,0-.09,0h-.09s-.09.01-.09.01h-.09s-.09.01-.09.01h-.09s-.09.01-.09.01h-.1s-.1.01-.1.01h-.1s-.1.01-.1.01h-.1s-.1.01-.1.01h-.1s-.1.01-.1.01h-.09s-.09,0-.09,0h-.09s-.08,0-.08,0h-.08s-.08,0-.08,0h-.08s-.07,0-.07,0h-.07s-.07,0-.07,0h-.07s-.07,0-.07,0h-.07s-.07,0-.07,0h-.07s-.07,0-.07,0h-.07s-.07,0-.07,0h-.07s-.07,0-.07,0h-.07s-.07,0-.07,0h-.07s-.07,0-.07,0h-.07s-.07,0-.07,0h-.07s-.07,0-.07,0h-.07s-.07,0-.07,0h-.07s-.07,0-.07,0h-.07s-.07,0-.07,0h-.07s-.07,0-.07,0h-.07s-.08,0-.08,0h-.08s-.08,0-.08,0h-.08s-.07,0-.07,0h-.07s-.07,0-.07,0h-.07s-.07,0-.07,0h-.07s-.07,0-.07,0h-.07s-.07,0-.07,0h-.07s-.07,0-.07,0h-.07s-.07,0-.07,0h-.07s-.08,0-.08,0h-.08s-.08,0-.08,0h-.24s-.08,0-.08,0h-.08s-.08,0-.08,0h-.08s-.08,0-.08,0h-.24s-.08,0-.08,0h-.08s-.08,0-.08,0h-.08s-.08,0-.08,0h-.23s-.08,0-.08,0h-.08s-.08,0-.08,0h-.08s-.08,0-.08,0h-.08s-.09,0-.09,0h-.09s-.09-.01-.09-.01h-.09s-.1-.02-.1-.02h-.1s-.1-.02-.1-.02h-.1s-.1-.02-.1-.02h-.1s-.1-.02-.1-.02h-.1s-.1-.02-.1-.02h-.1s-.1-.01-.1-.01h-.1s-.1-.01-.1-.01h-.1s-.09-.01-.09-.01h-.09s-.09,0-.09,0h-.09s-.09,0-.09,0h-.09s-.09,0-.09,0h-.09s-.09,0-.09,0h-.09s-.09,0-.09,0h-.09s-.09,0-.09,0h-.09s-.09,0-.09,0h-.09s-.03,0-.03,0c.05.18.11.37.17.55.18,1.04.35,2.07.54,3.11.56,2.45,1.15,4.89,1.62,7.36.47,1.76.94,3.52,1.28,5.31.18.61.33,1.26.53,1.89.14.64.3,1.27.55,1.89.13.33.28.66.38,1,0,.06.02.11.05.16,0,0,0,.01,0,.02.05.14.14.23.26.29.16.53.99.35,1.43.42.15.02.29,0,.43-.02,1.29.23,2.59.22,3.9.18,1.82-.03,3.67,0,5.5.07.39.01.78.02,1.17.02,1.61,0,3.21-.1,4.82-.16.29-.04.6-.04.92-.04.74,0,1.5.01,2.03-.52.23-.21.4-.48.49-.77h0s.05-.09.07-.14c.19-.57.37-1.14.54-1.72,1.02-3.21,1.69-6.46,2.3-9.79.66-2.96,1.24-5.93,1.98-8.87.07-.31.15-.61.23-.92h-.06ZM49.72,96.48s-.02,0-.02.01c.02-.06.04-.12.05-.17-.01.05-.02.11-.03.16Z"/>
  <path class="cls-1" d="M30.38,23.47c.93.74,1.9,1.43,2.86,2.13,1.17.76,2.46,1.34,3.8,1.78-.03,0-.06.01-.09.02-.84.29-1.64.74-2.39,1.21-.16.05-.29.19-.28.37.02.64,1.31.52,1.78.56,1.26-.05,2.56-.13,3.65-.82.4.42.77.77.97.93,1.37,1,3.06,1.53,4.35,2.67.12.1.32.34.45.49.06.13.18.24.32.28.27.08.56-.11.6-.38.02-.37-.14-.72-.23-1.08-.32-1.19-.96-2.26-1.6-3.29-.09-.15-.19-.3-.29-.44.45-.1.9-.2,1.35-.3,2.69-.66,5.36-1.67,7.62-3.28,1.44-1.14,2.91-2.29,4-3.77.4-.54.76-1.11,1.09-1.69.14-.29.38-.58.33-.92-.07-.4-.55-.48-.85-.27-.33.16-.68.29-1.01.45-1.19.66-2.5,1.05-3.83,1.31-1.41.35-2.71.86-4.06,1.46-.3.15-.59.31-.87.49,1.68-2.71,2.61-5.85,3.75-8.81.23-.61.48-1.21.71-1.81.1-.31.3-.64.2-.98-.39-.89-1.21,0-1.65.38-.94.91-1.86,1.84-2.69,2.84-.81,1.08-1.62,2.28-2.36,3.43-.17.3-.33.6-.5.91.48-1.9.74-3.85.98-5.81.2-1.37.44-2.74.52-4.12.07-1.38.03-2.77.06-4.15.01-.55.03-1.11.06-1.66,0-.39.11-.8.04-1.18-.1-.33-.52-.49-.81-.3-.36.3-.52.78-.77,1.18-1.02,2.09-2.49,3.95-3.24,6.16-.67,1.81-1.37,3.61-1.92,5.46-.58,1.94-.97,3.94-1.3,5.94,0,.03,0,.05-.01.08-.69-1.99-1.75-3.84-2.81-5.66-.55-.88-1.05-1.8-1.62-2.67-.45-.66-1.03-1.31-1.63-1.91-.45-.62-.98-1.26-1.43-1.27-.73.08-.54.93-.4,1.43.86,3.01,1.63,6.05,2.62,9.02.61,1.9,1.24,4.09,2.35,5.87-.48-.2-.97-.4-1.46-.58-.78-.28-1.59-.47-2.42-.6-.58-.04-2.35-.72-2.64-.09-.15.49.46.74.74,1.03Z"/>
  <path class="cls-1" d="M2.94,22.53c1.73,1,3.3,2.3,4.93,3.45,1.77,1.51,3.7,2.84,5.69,4.06,1.48.99,3.01,1.88,4.61,2.68,1.47.79,2.97,1.6,4.51,2.29-1.11.03-2.23.14-3.33.29-1.72.15-3.44.34-5.13.7-1.26.23-2.5.53-3.71.96-.91.22-1.79.33-2.74.45-.52.1-1.64.14-1.92.67-.08.21.04.42.23.51,1.24.28,2.45.69,3.71.92,1.67.41,3.36.75,5.08.88,1.29.2,2.58.18,3.87.05,1.33-.02,2.58-.45,3.84-.81.24-.08.48-.16.72-.25-.03.04-.06.09-.1.13-1.11,1.23-2.15,2.56-2.77,4.11-.1.31-.42.73-.13,1.02.68.4,2.75-.94,3.4-1.35,1.17-.72,2.16-1.65,2.99-2.73.02.96.25,1.93.52,2.85.16.59.17,1.29.62,1.75.35.29.68-.08.76-.42.3-.85.54-1.73.76-2.61.26-1.1.63-3.34.49-5.02.91.05,1.85-.04,2.71-.33.53-.23,1.02-.54,1.5-.86.85-.55,1.45-1.38,2.07-2.16.13-.17.32-.31.37-.53.08-.35-.36-.61-.64-.38-.34.09-.68.17-1.03.23-1.21.24-2.55.41-3.72.88.15-.35.28-.67.39-.91.52-1.19.98-2.42,1.14-3.71.13-.89.04-1.94-.16-2.85-.04-.44-.58-.71-.87-.32-.78,1.17-1.93,2.24-2.59,3.45-.03.07-.07.15-.1.22-.32-1.13-.78-2.22-1.26-3.29-.36-.82-.61-1.69-1.08-2.46-.89-1.3-1.76-2.74-3.01-3.76-.72-.58-1.47-1.1-2.14-1.74-.66-.56-1.28-1.17-2.04-1.6-.47-.27-.95-.52-1.45-.74-.19-.08-.41-.19-.62-.12-.63.32-.04,1.08.2,1.49.73,1.17,1.3,2.48,1.86,3.74,1.23,2.33,2.28,4.76,3.53,7.08,0,.01.01.02.02.04-.42-.32-.85-.62-1.3-.9-2.42-1.68-5.11-2.94-7.81-4.1-2.63-1.09-5.32-2.21-8.18-2.43-.96-.1-1.99-.12-2.88.29-.86.41-.49.92.18,1.18Z"/>
  <path class="cls-1" d="M64.41,32.63c-1.91-.4-3.84-.78-5.76-.41-2.13.24-1.67.43-3.61,1.78-.3.21-.59.43-.87.67.26-.5.52-1,.78-1.51.55-.98,1.1-1.96,1.57-3.03.76-1.61,1.47-3.23,1.89-5.11.17-.65.35-1.3.57-1.91.08-.17.12-.4.03-.59-.23-.46-.53-.03-.73.24-.23.26-.49.52-.74.81-.7.88-1.4,1.81-2.19,2.55-1.71,1.81-3.35,3.93-4.51,6.56-.33.78-.58,1.61-.81,2.45-.03-.84-.08-1.68-.15-2.51-.09-.89-.15-1.81-.17-2.72-.03-.41.13-1.27-.31-1.2-.17.06-.23.33-.31.54-.33.81-.68,1.6-.96,2.45-.47,1.43-.97,2.86-1.21,4.42-.24,1.43-.37,3.02-.06,4.48.1.42.21.88.36,1.29-.49,0-.98.02-1.46,0-.91.11-1.79.55-2.65.93-.21.08-.3.45-.14.7.25.37.62.5.94.66.41.17.83.34,1.25.47.64.16,1.26.2,1.9.3h0s0,0,0,0h0s0,0,0,0h0s0,0,0,0h0s0,0,0,0h0s0,0,0,0h0s0,0,0,0h0s0,0,0,0h0s0,0,0,0h0s0,0,0,0h0s0,0,0,0h0s0,0,0,0h0s0,0,0,0h0s0,0,0,0h0s0,0,0,0h0s0,0,0,0h0s0,0,0,0h0s0,0,0,0h0s0,0,0,0h0s0,0,0,0h0s0,0,0,0h0s0,0,0,0h0s0,0,0,0h0s0,0,0,0h0s0,0,0,0h0s0,0,0,0h0s0,0,0,0h.01s0,0,0,0h0s0,0,0,0h0s0,0,0,0h0s0,0,0,0h0s0,0,0,0h0s0,0,0,0h0s0,0,0,0h0s0,0,0,0h0s0,0,0,0h0s0,0,0,0h0s0,0,0,0h0s0,0,0,0h0s0,0,0,0h0s0,0,0,0h0s0,0,0,0h0s0,0,0,0h0s0,0,0,0h0s0,0,0,0h0s0,0,0,0h0s0,0,0,0h0s0,0,0,0h0s0,0,0,0h0s0,0,0,0h0s0,0,0,0h0s0,0,0,0h0s0,0,0,0h0s0,0,0,0h0s0,0,0,0h0s0,0,0,0h0s0,.01,0,.01h0s0,.01,0,.01h0s0,.02,0,.02h0s0,.02,0,.02h0s0,.02,0,.02h0s0,.02,0,.02h0s0,.02,0,.02h0s0,.03,0,.03h0s0,.03,0,.03h0s0,.03,0,.03v.02s0,.01,0,.01v.02s0,.02,0,.02v.02s0,.02,0,.02v.02s0,.02,0,.02v.02s0,.02,0,.02v.02s0,.02,0,.02v.02s0,.02,0,.02v.02s0,.02,0,.02v.02s0,.02,0,.02v.02s0,.02,0,.02v.02s0,.02,0,.02v.02s0,.02,0,.02v.02s0,.02,0,.02v.02s0,.02,0,.02v.02s0,.02,0,.02v.02s0,.02,0,.02v.02s0,.02,0,.02v.02s0,.02,0,.02v.02s0,.02,0,.02v.02s0,.02,0,.02v.02s0,.02,0,.02v.02s0,.02,0,.02v.02s0,.02,0,.02v.02s0,.02,0,.02v.02s0,.02,0,.02v.02s0,.02,0,.02v.02s0,.02,0,.02v.02s0,.02,0,.02v.02s0,.02,0,.02v.02s0,.02,0,.02v.02s0,.02,0,.02v.02s0,.02,0,.02v.02s0,.02,0,.02v.02s0,.02,0,.02v.02s0,.02,0,.02v.02s0,.02,0,.02v.02s0,.02,0,.02v.02s0,.02,0,.02v.02s0,.02,0,.02v.02s0,.02,0,.02v.02s0,.02,0,.02v.02s0,.02,0,.02v.02s0,.02,0,.02v.02s0,.02,0,.02v.02s0,.02,0,.02v.02s0,.02,0,.02v.02s0,.02,0,.02v.02s0,.02,0,.02v.02s0,.02,0,.02v.02s0,.02,0,.02v.02s0,.02,0,.02v.02s0,.02,0,.02v.02s0,.02,0,.02v.02s0,.02,0,.02v.02s0,.02,0,.02v.02s0,.02,0,.02v.02s0,.02,0,.02v.02s0,.02,0,.02v.02s0,.02,0,.02v.02s0,.02,0,.02v.02s0,.02,0,.02v.02s0,.02,0,.02v.02s0,.02,0,.02v.02s0,.02,0,.02v.02s0,.02,0,.02v.02s0,.02,0,.02v.02s0,.03,0,.03v.02s0,.03,0,.03v.03s0,.03,0,.03v.03s0,.03,0,.03v.03s0,.03,0,.03v.03s0,.03,0,.03v.03s0,.03,0,.03v.02s0,.03,0,.03v.03s0,.03,0,.03v.03s0,.03,0,.03v.03s0,.03,0,.03v.03s0,.03,0,.03v.03s0,.03,0,.03v.03s0,.03,0,.03v.03s0,.03,0,.03v.03s0,.03,0,.03v.03s0,.03,0,.03v.03s0,.03,0,.03v.03s0,.03,0,.03v.03s0,.03,0,.03v.03s0,.03,0,.03v.03s0,.03,0,.03v.03s0,.03,0,.03v.03s0,.03,0,.03v.03s0,.02,0,.02v.02s0,.02,0,.02v.02s0,.02,0,.02h0s0,.01,0,.01h0s0,.04,0,.04v.02s0,.03,0,.03v.03s0,.03,0,.03v.03s0,.03,0,.03v.03s0,.03,0,.03v.03s0,.03,0,.03v.03s0,.03,0,.03h0c.07.29.15.58.22.85.16.65.38,1.27.71,1.75.18.29.4.57.58.89h0s.01.02.01.02v.02s.02.02.02.02v.02s.02.02.02.02v.02s.02.02.02.02v.02s.02.01.02.01v.02s.02.02.02.02h0s.01.03.01.03h0s0,.03,0,.03h.01s.01.03.01.03h.01s.01.03.01.03h.01s.01.03.01.03h.01s.01.02.01.02h.01s.01.02.01.02h.01s.01.02.01.02h.01s.01.02.01.02h0s0,.02,0,.02h0s0,.02,0,.02h0s0,.02,0,.02h0s0,.01,0,.01h0s0,.01,0,.01h0s0,.01,0,.01h0s0,.01,0,.01h0s0,.01,0,.01h0s0,0,0,0h0s0,0,0,0h0s0,0,0,0h0s0,0,0,0h0s0,0,0,0h0s0,0,0,0h0s0,0,0,0h0s0,0,0,0h0s0,0,0,0h0s0,0,0,0h0c.09-.1.14-.31.08-.48-.05-.85-.08-1.71-.15-2.55-.06-1.22-.24-2.41-.48-3.58.48.86,1.04,1.61,1.66,2.24.87.83,1.81,1.46,2.74,2.1.47.31.95.58,1.44.83.65.32,1.34.77,2.03.53.05-.01.1-.03.15-.06.2-.12.4-.36.29-.7-.26-.45-.67-.67-.99-1.02-.88-.76-1.7-1.64-2.51-2.56-.05-.06-.1-.12-.14-.18,0,0-.97-1.04-1.1-1.23-.12-.19,2.31,1.43,6.95,1.18.68-.15,1.36-.33,2.03-.57.58-.25,1.14-.61,1.7-.92.33-.21.7-.37.97-.71.14-.24.05-.62-.14-.74-.27-.14-.58-.06-.86-.1-.71-.06-1.35-.25-2.04-.6-.47-.22-.93-.44-1.4-.65-.06-.04-.11-.09-.16-.13-.18-.13-.4-.26-.56-.38-.26-.19-.48-.4-.76-.56-.31-.18-.59-.4-.9-.6-.23-.16-.53-.26-.79-.36-.28-.11-.51-.29-.79-.41-.08-.04-.17-.07-.25-.11,2.11-1.25,2.09-2.49,4.23-4.55,1-.89,2.04-1.69,3.1-2.41.37-.25.75-.47,1.12-.72.12-.08.23-.18.28-.38.08-.35-.13-.66-.36-.69Z"/>
  <path class="cls-1" d="M23.46,63.06s-.03.07-.05.11c-.68.75-1.28,1.58-1.9,2.37-1,1.28-2.02,2.52-2.45,4.14,0,.05-.02.12-.04.19-.13.37-.25.74-.36,1.11-.16.53-.09,1.11-.27,1.62,0,0,0,0,0,0-.03.07-.03.16,0,.24.28.57.76.04,1.03-.24.86-.81,1.6-1.73,2.54-2.44.85-.62,1.62-1.38,2.38-2.11.95-.88,1.87-1.79,2.66-2.81.4-.43.78-.87,1.14-1.33-.13,2.25.43,4.53,1.37,6.57.77.63.95-.79,1.1-1.28.45-1.81.78-3.65.74-5.53.03-.65-.02-1.32-.17-1.97,1.37-.3,2.67-.86,3.79-1.73.58-.55,1.15-1.12,1.7-1.7.12-.14.26-.28.36-.44.15-.23-.06-.55-.33-.51-.93.4-1.96.44-2.93.7-.7.15-1.4.33-2.05.61.14-.72.22-1.46.33-2.12.22-1.76-.02-3.62-.84-5.21-.46-1.01-1.06-1.97-2.01-2.59-.48-.37-.88-.83-1.32-1.23-.11-.09-.23-.19-.38-.19-.39-.01-.42.4-.35.69.03.37.09.74.18,1.11.18.69.26,1.39.43,2.08.13,1.39.28,2.77.28,4.16,0,.07,0,.14,0,.21-.89-1.88-2.32-3.56-3.96-4.66-1.39-.98-2.9-1.75-4.43-2.48-1.52-.81-3.07-1.57-4.66-2.23-.83-.35-1.71-.63-2.61-.72-.41-.05-1.11-.1-1.16.46.05.54.67.77,1.04,1.09,1.09.86,2.16,1.77,3.22,2.67,1.29,1.18,2.61,2.33,3.94,3.47-.12-.06-.24-.12-.36-.18-1.18-.6-2.43-.98-3.71-1.32-1.48-.5-3.06-.65-4.62-.74-2.13.05-4.31-.03-6.38.57-1.23.11-2.47.21-3.6.74-.22.1-.46.19-.63.36-.21.22-.09.62.21.69,1.34.4,2.66.57,4.06.65,1.02,0,1.99.26,2.96.53,1.33.34,2.65.72,3.98,1.06,1.7.44,3.32,1.12,4.98,1.67,1.13.38,2.26.74,3.4,1.09-1.94.2-3.85.81-5.63,1.61-1.88.8-3.88,1.47-5.48,2.78-1.23,1.01-2.4,2.23-3.02,3.72-.43.64-.74,1.67-.09,1.78.17.01.34-.09.48-.15.94-.46,1.83-1.05,2.86-1.3,1.13-.37,2.2-.93,3.34-1.31,1.4-.63,2.89-1.06,4.41-1.37,1.29-.19,2.57-.46,3.87-.62,1.01-.08,2.02-.18,3.02-.33Z"/>
  <path class="cls-1" d="M62.96,63.96c-.68-1.02-1.41-1.98-2.26-2.69-1.33-1.16-2.82-1.84-4.31-2.39-1.24-.4-2.51-.44-3.77-.49-.14,0-.27.02-.41.04h0s.01-.01.01-.01h.01s.01-.02.01-.02h.01s.01-.02.01-.02h.01s.01-.02.01-.02h.01s.01-.02.01-.02h.01s.01-.02.01-.02h.01s.01-.03.01-.03h.01s.01-.02.01-.02h.01s.01-.03.01-.03h.01s.01-.02.01-.02h.01s.01-.02.01-.02h.01s.01-.02.01-.02h.01s.01-.02.01-.02h0s.01-.02.01-.02h0s0-.02,0-.02h0s0-.02,0-.02h0s0-.02,0-.02h0s0-.02,0-.02h0s0-.02,0-.02h0s0-.02,0-.02h0s0-.02,0-.02h0s0-.02,0-.02h0s0-.02,0-.02h0s0-.02,0-.02h0s0-.01,0-.01c-.01,0-.03,0-.04.01.41-.52.8-1.07,1.21-1.6.34-.43.67-.89,1.06-1.26.13-.08.26-.23.24-.47-.02-.31-.25-.47-.44-.34-.07.01-.15.02-.22.02-.09,0-.18.01-.27.03-.85.13-1.69.27-2.48.76-1.13.57-2.22,1.37-3.17,2.44-.56.64-1.04,1.41-1.5,2.22.04-1.06-.02-2.25-.02-2.92-.01-.56-.06-1.12-.12-1.67-.02-.2-.05-.44-.18-.55-.41-.32-.93,1.29-1.09,1.72-.42,1.06-.82,2.65-.9,4.08-.15-.09-.3-.17-.46-.25-.22-.13-.44-.25-.67-.31-.23-.04-.56-.29-.71.1-.08.23.01.5.08.72.1.36.22.71.33,1.06.28.85.74,1.6,1.29,2.11-.6,1.21-.85,2.72-.94,4.21,0,.42-.18,1.54.25,1.54.15,0,.25-.22.33-.37.58-.88,1.1-1.87,1.42-2.98.27,1.02.58,2.05,1.08,2.87.51,1.03,1.12,1.91,1.83,2.65.16.16.3.41.5.46.49.04.4-1,.45-1.49.03-1.27-.19-2.54-.46-3.74-.06-.24-.13-.48-.2-.71,2.53,3.04,5.66,4.74,8.73,6.29.06.05.13.06.2.06.15-.02.29-.17.3-.42,0-.17-.05-.32-.13-.41-.21-.53-.37-1.1-.58-1.63-.43-1.14-1.17-1.86-1.87-2.61-.84-1.04-1.74-2-2.69-2.81.09.02.17.05.26.07,2.32.53,4.67.19,7.01.13.3,0,.61-.04.91-.08.58-.07,1.17-.14,1.74.05.04.01.07.01.1,0,.33-.04.42-.78.07-.95Z"/>
  <path class="cls-1" d="M45.91,45.81c-1.16,1.48-2.19,3.08-3.24,4.62-.63.98-1.26,2.14-1.87,3.17-.17.31-.3.64-.43.97-.03-.13-.06-.26-.1-.39-.03-.4-.06-.8-.11-1.21-.22-1.69-.5-3.38-.77-5.06-.16-.91-.35-1.81-.53-2.72-.15-1.34-.26-2.68-.18-4.02.25-3.54.9-7.03,1.73-10.47-.16-.11-.32-.24-.46-.37,0,0,0,0,0,0-.18-.16-.36-.33-.54-.49,0,0,0,0-.01,0h0s0,0,0,0c-.24.06-.49.09-.73.14-.73,3.92-1.4,7.87-1.35,11.87.05,1.9.28,3.79.56,5.68-.74-1.37-1.54-2.71-2.38-4.03-1.16-1.76-2.64-3.28-3.87-4.99-.07-.1-.14-.21-.21-.31-.19,0-.39,0-.58-.02-.02.16-.04.32-.06.48,0,.07-.02.15-.03.22-.04.29-.08.58-.12.86.68.8,1.37,1.6,2,2.44.46.72,1.04,1.43,1.57,2.12,1.38,2.15,2.54,4.39,3.7,6.67.33.68.59,1.39.84,2.1.02.16.05.32.07.49.27,2.04.32,4.13.31,6.21-.06.55-.14,1.1-.24,1.65-.38,1.66-.77,3.33-1.02,5.01,0,.05,0,.09-.01.14-.02.2-.02.4-.03.6-.55-1.43-1.41-2.73-2.58-3.73-.62-.62-1.32-1.18-2.1-1.6-.1.03-.21.04-.31.06-.13.03-.25.08-.38.11-.01,0-.03,0-.04.01-.12.03-.24.05-.36.07,0,0,0,0,0,0h0s0,.03,0,.04c0,.05.01.1.02.14,0,0,0,0,0,0,.03.21.05.43.06.64,0,.02,0,.03,0,.05.32.2.62.43.92.67.65.61,1.25,1.27,1.82,1.94.28.45.53.92.78,1.38.1.18.21.35.31.53.51,1.37.89,2.78,1.15,4.22.06.53.07,1.06.07,1.59.06,0,.13-.01.19-.02.19-.02.39-.03.58-.04.02,0,.04,0,.06,0,.03,0,.05,0,.07,0,.06,0,.12-.01.18-.02.29-.03.58-.06.87-.08.04,0,.07,0,.11,0,0-.01,0-.02,0-.04.12-1.48.3-2.96.5-4.43.21-.47.45-.93.71-1.37.66-.83,1.98-1.5,2.92-2.01.04-.12.08-.25.11-.38.05-.19.09-.39.15-.58.02-.08.05-.15.08-.23-.03-.05-.06-.1-.09-.15,0,0,0,0,0,0-.03-.04-.05-.08-.08-.13-.1-.14-.2-.27-.3-.4-.94.27-2.23.71-2.97,1.32.04-.31.08-.62.12-.93.18-1.07.27-2.15.29-3.23.29-1.32.6-2.63.94-3.93.59-1.57,1.39-3.05,2.14-4.54.76-1.32,1.59-2.58,2.48-3.83.26-.35.53-.68.82-1.02-.01-.06-.03-.12-.04-.19-.09-.39-.17-.78-.21-1.17,0,0,0,0,0,0,0,0,0,0,0,0-.14-.02-.28-.05-.42-.06,0,0,0,0,0,0,0,0,0,0,0,0,0,0,0,0,0,0h0s0,0,0,0c0,0,0,0,0,0-.13,0-.27,0-.4-.02-.02,0-.03,0-.05,0Z"/>
</svg>