<?xml version="1.0" encoding="UTF-8"?>
<svg id="Layer_1" data-name="Layer 1" xmlns="http://www.w3.org/2000/svg" viewBox="0 0 71.69 98.15">
  <g>
    <path d="M53.24,71.57c-.36-1.03-1.33-2.05-2.47-2.13-1.38-.04-2.76.06-4.12.19-2.72-.09-5.44-.24-8.17-.15-3.13.05-6.26.01-9.38-.03-2.08-.03-4.17-.05-6.25-.05-1.64.04-3.3,0-4.89.45-.31.08-.64.17-.8.47-.31.7-.45,1.48-.65,2.22-.16.83-.76,2.07.15,2.65.91.44,1.89.76,2.89.98h.02s.04,0,.04,0h.04s.04,0,.04,0h.04s.04,0,.04,0h.04s.04,0,.04,0h.04s.04,0,.04,0h.04s.04,0,.04,0h.04s.04,0,.04,0h.04s.04,0,.04,0h.04s.04,0,.04,0h.04s.04,0,.04,0h.04s.04,0,.04,0h.04s.04,0,.04,0h.04s.03,0,.03,0h.03s.03,0,.03,0h.03s.03,0,.03,0h.03s.03,0,.03,0h.03s.03,0,.03,0h.03s.04,0,.04,0h.04s.04,0,.04,0h.04s.04,0,.04,0h.05s.05,0,.05,0h.05s.05,0,.05,0h.05s.05,0,.05,0h.05s.05,0,.05,0h.05s.05,0,.05,0h.05s.05,0,.05,0h.05s.05,0,.05,0h.05s.05,0,.05,0h.05s.04,0,.04,0h.04s.04,0,.04,0h.04s.04,0,.04,0h.04s.04,0,.04,0h.04s.04,0,.04,0h.04s.04,0,.04,0h.04s.05,0,.05,0h.05s.05,0,.05,0h.05s.05,0,.05,0h.05s.05,0,.05,0h.05s.05,0,.05,0h.05s.05,0,.05,0h.05s.05,0,.05,0h.05s.05,0,.05,0h.05s.05,0,.05,0h.05s.05,0,.05,0h.06s.06,0,.06,0h.06s.06,0,.06,0h.26s.07,0,.07,0h.07s.07,0,.07,0h.07s.07,0,.07,0h.07s.07,0,.07,0h.07s.07,0,.07,0h.07s.07,0,.07,0h.07s.06,0,.06,0h.06s.06,0,.06,0h.06s.06,0,.06,0h.06s.06,0,.06,0h.06s.06,0,.06,0h.06s.06,0,.06,0h.06s.06,0,.06,0h.06s.06,0,.06,0h.06s.06,0,.06,0h.06s.06,0,.06,0h.06s.06,0,.06,0h.06s.05,0,.05,0h.05s.06,0,.06,0h.05s.05,0,.05,0h.05s.05,0,.05,0h.11s.05,0,.05,0h.22s.06,0,.06,0h.06s.06,0,.06,0h.06s.06,0,.06,0h.06s.06,0,.06,0h.06s.06,0,.06,0h.06s.06,0,.06,0h.07s.07,0,.07,0h.14s.07,0,.07,0h.07s.07,0,.07,0h.07s.07,0,.07,0h.07s.07,0,.07,0h.07s.07,0,.07,0h.07s.07,0,.07,0h.07s.07,0,.07,0h.07s.07,0,.07,0h.07s.07,0,.07,0h.07s.07,0,.07,0h.07s.08,0,.08,0h.08s.08,0,.08,0h.08s.08,0,.08,0h.08s.08,0,.08,0h.08s.08,0,.08,0h.08s.08,0,.08,0h.08s.08,0,.08,0h.08s.08,0,.08,0h.08s.08,0,.08,0h.08s.08,0,.08,0h.08s.08,0,.08,0h.09s.09,0,.09,0h.09s.09,0,.09,0h.09s.09,0,.09,0h.09s.09,0,.09,0h.09s.08,0,.08,0h.08s.08,0,.08,0h.08s.08,0,.08,0h.08s.08,0,.08,0h.08s.08,0,.08,0h.08s.08,0,.08,0h.08s.08,0,.08,0h.07s.07,0,.07,0h.07s.07,0,.07,0h.07s.07,0,.07,0h.07s.07,0,.07,0h.07s.07,0,.07,0h.07s.07,0,.07,0h.07s.07,0,.07,0h.07s.07,0,.07,0h.07s.06,0,.06,0h.06s.06,0,.06,0h.07s.06,0,.06,0h.07s.07,0,.07,0h.07s.07,0,.07,0h.06s.06,0,.06,0h.06s.06,0,.06,0h.06s.06,0,.06,0h.06s.06,0,.06,0h.05s.05,0,.05,0h.05s.05,0,.05,0h.05s.05,0,.05,0h.05s.05,0,.05,0h.05s.06,0,.06,0h.06s.06,0,.06,0h.06s.06,0,.06,0h.06s.06,0,.06,0h.07s.07,0,.07,0h.07s.07,0,.07,0h.08s.08,0,.08,0h.08s.08,0,.08,0h.08s.08,0,.08,0h.08s.08,0,.08,0h.08s.08,0,.08,0h.08s.08,0,.08,0h.08s.08,0,.08,0h.08s.08,0,.08,0h.08s.08,0,.08,0h.08s.08,0,.08,0h.08s.08,0,.08,0h.08s.08,0,.08,0h.08s.08,0,.08,0h.08s.08,0,.08,0h.56s.06,0,.06,0h.17s.05,0,.05,0h.05s.06,0,.06,0h.06s.06,0,.06,0h.06s.06,0,.06,0h.06s.06,0,.06,0h.06s.06,0,.06,0h.06s.06,0,.06,0h.06s.06,0,.06,0h.06s.06,0,.06,0h.06s.06,0,.06,0h.06s.06,0,.06,0h.06s.06,0,.06,0h.06s.06,0,.06,0h.06s.06,0,.06,0h.06s.06,0,.06,0h.06s.06,0,.06,0h.06s.07,0,.07,0h.06s.07,0,.07,0h.07s.06,0,.06,0h.06s.06,0,.06,0h.06s.06,0,.06,0h.06s.05,0,.05,0h.05s.05,0,.05,0h.05s.05,0,.05,0h.05s.05,0,.05,0h.04s.05,0,.05,0h.04s.04,0,.04,0h.05s.05,0,.05,0h.05s.05,0,.05,0h.05s.05,0,.05,0h.05s.05,0,.05,0h.06s.06,0,.06,0h.06s.06,0,.06,0h.06s.06,0,.06,0h.06s.06,0,.06,0h.06s.06,0,.06,0h.06s.06,0,.06,0h.06s.06,0,.06,0h.06s.06,0,.06,0h.06s.06,0,.06,0h.06s.06,0,.06,0h.11s.06,0,.06,0h.06s.06,0,.06,0h.06s.06,0,.06,0h.05s.05,0,.05,0h.05s.05,0,.05,0h.05s.05,0,.05,0h.05s.05,0,.05,0h.1s.05,0,.05,0h.05s.05,0,.05,0h.05s.05,0,.05,0h.1s.05,0,.05,0h.05s.05,0,.05,0h.05s.05,0,.05,0h.21s.05,0,.05,0h.17s.06,0,.06,0h.05s.05,0,.05,0h.05s.05,0,.05,0h.1s.05,0,.05,0h.05s.05,0,.05,0h.09s.05,0,.05,0h.09s.05,0,.05,0h.05s.05,0,.05,0h.05s.05,0,.05,0h.05s.05,0,.05,0h.05s.05,0,.05,0h.05s.05,0,.05,0h.05s.05,0,.05,0h.05s.05,0,.05,0h.05s.05,0,.05,0h.05s.05,0,.05,0h.05s.05,0,.05,0h.13s.04,0,.04,0h.04s.04,0,.04,0h.04s.04,0,.04,0h.04s.04,0,.04,0h.05s.04,0,.04,0h.09s.04,0,.04,0h.12s.04,0,.04,0h.04s.04,0,.04,0h.03s.03,0,.03,0h.03s.03,0,.03,0h.03s.03,0,.03,0h.03s.03,0,.03,0h.03s.03,0,.03,0h.03s.03,0,.03,0h.03s.03,0,.03,0h.03s.03,0,.03,0h.03s.03,0,.03,0h.03s.04,0,.04,0h.04s.04,0,.04,0h.04s.04,0,.04,0h.04s.04,0,.04,0h.05s.05,0,.05,0h.05s.05,0,.05,0h.05s.05,0,.05,0h.04s.04,0,.04,0h.04s.04,0,.04,0h.04s.04,0,.04,0h.04s.04,0,.04,0h.04s.04,0,.04,0h.05s.05,0,.05,0h.05s.05,0,.05,0h.05s.05,0,.05,0h.05s.05,0,.05,0h.04s.01-.05.02-.08c.27-.07.55-.13.82-.17.75-.21,1.65-.29,2.24-.83.18-.23.13-.55.13-.82-.02-.73.04-1.48-.16-2.18Z"/>
    <path d="M49.81,76.83h-.05s-.05,0-.05,0h-.05s-.05,0-.05,0h-.05s-.05,0-.05,0h-.05s-.05,0-.05,0h-.05s-.05,0-.05,0h-.05s-.05,0-.05,0h-.05s-.05,0-.05,0h-.05s-.05,0-.05,0h-.05s-.05,0-.05,0h-.05s-.06,0-.06,0h-.06s-.06,0-.06,0h-.06s-.06,0-.06,0h-.06s-.06,0-.06,0h-.07s-.07,0-.07,0h-.07s-.07,0-.07,0h-.07s-.07,0-.07,0h-.07s-.07,0-.07,0h-.07s-.07,0-.07,0h-.07s-.07,0-.07,0h-.07s-.07,0-.07,0h-.07s-.07,0-.07,0h-.07s-.07,0-.07,0h-.06s-.06,0-.06,0h-.06s-.06,0-.06,0h-.05s-.05,0-.05,0h-.05s-.05,0-.05,0h-.05s-.05,0-.05,0h-.04s-.04,0-.04,0h-.04s-.04,0-.04,0h-.04s-.04,0-.04,0h-.04s-.05,0-.05,0h-.05s-.05,0-.05,0h-.05s-.05,0-.05,0h-.05s-.05,0-.05,0h-.05s-.05,0-.05,0h-.06s-.06,0-.06,0h-.06s-.06,0-.06,0h-.06s-.06,0-.06,0h-.24s-.06,0-.06,0h-.06s-.06,0-.06,0h-.06s-.06,0-.06,0h-.06s-.06,0-.06,0h-.06s-.06,0-.06,0h-.06s-.06,0-.06,0h-.06s-.06,0-.06,0h-.06s-.06,0-.06,0h-.12s-.06,0-.06,0h-.06s-.06,0-.06,0h-.06s-.06,0-.06,0h-.06s-.06,0-.06,0h-.06s-.06,0-.06,0h-.06s-.05,0-.05,0h-.05s-.05,0-.05,0h-.05s-.05,0-.05,0h-.05s-.05,0-.05,0h-.05s-.05,0-.05,0h-.05s-.05,0-.05,0h-.05s-.05,0-.05,0h-.05s-.05,0-.05,0h-.05s-.05,0-.05,0h-.05s-.05,0-.05,0h-.05s-.05,0-.05,0h-.05s-.05,0-.05,0h-.05s-.05,0-.05,0h-.05s-.05,0-.05,0h-.06s-.06,0-.06,0h-.06s-.06,0-.06,0h-.06s-.06,0-.06,0h-.06s-.07,0-.07,0h-.07s-.07,0-.07,0h-.07s-.07,0-.07,0h-.07s-.07,0-.07,0h-.07s-.07,0-.07,0h-.06s-.06,0-.06,0h-.06s-.06,0-.06,0h-.06s-.06,0-.06,0h-.05s-.05,0-.05,0h-.11s-.05,0-.05,0h-.05s-.05,0-.05,0h-.05s-.05,0-.05,0h-.05s-.05,0-.05,0h-.05s-.05,0-.05,0h-.04s-.04,0-.04,0h-.04s-.04,0-.04,0h-.04s-.04,0-.04,0h-.04s-.04,0-.04,0h-.04s-.04,0-.04,0h-.04s-.04,0-.04,0h-.04s-.04,0-.04,0h-.04s-.04,0-.04,0h-.04s-.04,0-.04,0h-.05s-.05,0-.05,0h-.05s-.05,0-.05,0h-.05s-.05,0-.05,0h-.05s-.05,0-.05,0h-.06s-.06,0-.06,0h-.06s-.06,0-.06,0h-.06s-.06,0-.06,0h-.06s-.06,0-.06,0h-.06s-.07,0-.07,0h-.07s-.07,0-.07,0h-.07s-.07,0-.07,0h-.07s-.07,0-.07,0h-.07s-.07,0-.07,0h-.07s-.07,0-.07,0h-.07s-.07,0-.07,0h-.07s-.07,0-.07,0h-.07s-.07,0-.07,0h-.14s-.07,0-.07,0h-.33s-.06,0-.06,0h-.13s-.07,0-.07,0h-.07s-.07,0-.07,0h-.07s-.07,0-.07,0h-.07s-.07,0-.07,0h-.26s-.06,0-.06,0h-.06s-.06,0-.06,0h-.06s-.06,0-.06,0h-.05s-.05,0-.05,0h-.05s-.05,0-.05,0h-.05s-.05,0-.05,0h-.05s-.05,0-.05,0h-.05s-.05,0-.05,0h-.05s-.05,0-.05,0h-.05s-.05,0-.05,0h-.05s-.05,0-.05,0h-.05s-.06,0-.06,0h-.06s-.06,0-.06,0h-.06s-.06,0-.06,0h-.06s-.06.01-.06.01h-.06s-.06.01-.06.01h-.06s-.07.01-.07.01h-.07s-.07.01-.07.01h-.07s-.07.01-.07.01h-.07s-.07.01-.07.01h-.07s-.07.01-.07.01h-.07s-.07.01-.07.01h-.07s-.07.01-.07.01h-.07s-.07.01-.07.01h-.07s-.07.01-.07.01h-.07s-.07,0-.07,0h-.07s-.07,0-.07,0h-.07s-.07,0-.07,0h-.07s-.07,0-.07,0h-.08s-.08,0-.08,0h-.08s-.09,0-.09,0h-.09s-.09,0-.09,0h-.1s-.1,0-.1,0h-.1s-.1,0-.1,0h-.1s-.1,0-.1,0h-.1s-.09,0-.09,0h-.09s-.09,0-.09,0h-.09s-.08,0-.08,0h-.08s-.08,0-.08,0h-.08s-.08.01-.08.01h-.08s-.09.01-.09.01h-.09s-.09.01-.09.01h-.09s-.09.01-.09.01h-.09s-.09.01-.09.01h-.09s-.09,0-.09,0h-.09s-.09,0-.09,0h-.08s-.08,0-.08,0h-.08s-.07,0-.07,0h-.07s-.07,0-.07,0h-.07s-.07,0-.07,0h-.07s-.06,0-.06,0h-.06s-.06,0-.06,0h-.06s-.06,0-.06,0h-.07s-.07,0-.07,0h-.07s-.06,0-.06,0h-.06s-.06,0-.06,0h-.06s-.06,0-.06,0h-.06s-.06,0-.06,0h-.06s-.06,0-.06,0h-.06s-.06,0-.06,0h-.07s-.07,0-.07,0h-.07s-.07,0-.07,0h-.07s-.07,0-.07,0h-.07s-.07,0-.07,0h-.07s-.07,0-.07,0h-.07s-.07,0-.07,0h-.07s-.07,0-.07,0h-.07s-.07,0-.07,0h-.07s-.07,0-.07,0h-.07s-.07,0-.07,0h-.07s-.07,0-.07,0h-.07s-.07,0-.07,0h-.07s-.07,0-.07,0h-.07s-.07,0-.07,0h-.22s-.07,0-.07,0h-.07s-.07,0-.07,0h-.07s-.07,0-.07,0h-.22s-.07,0-.07,0h-.07s-.07,0-.07,0h-.07s-.07,0-.07,0h-.21s-.07,0-.07,0h-.07s-.07,0-.07,0h-.07s-.07,0-.07,0h-.08s-.08,0-.08,0h-.08s-.09-.01-.09-.01h-.09s-.09-.01-.09-.01h-.09s-.09-.02-.09-.02h-.09s-.1-.02-.1-.02h-.1s-.1-.02-.1-.02h-.1s-.1-.01-.1-.01h-.09s-.09-.01-.09-.01h-.09s-.09-.01-.09-.01h-.09s-.09,0-.09,0h-.09s-.08,0-.08,0h-.08s-.08,0-.08,0h-.08s-.08,0-.08,0h-.08s-.08,0-.08,0h-.08s-.08,0-.08,0h-.08s-.08,0-.08,0h-.08s-.08,0-.08,0h-.09s-.03,0-.03,0c.05.17.1.34.15.51.17.96.33,1.93.51,2.89.52,2.28,1.07,4.54,1.51,6.84.44,1.64.87,3.27,1.19,4.94.16.57.31,1.17.49,1.76.13.6.28,1.18.51,1.75.12.31.26.61.36.93,0,.05.02.1.05.15,0,0,0,.01,0,.02.04.13.13.21.24.27.15.49.92.33,1.33.39.14.01.27,0,.4-.02,1.2.21,2.41.2,3.62.17,1.69-.03,3.41,0,5.11.07.36.01.72.02,1.09.02,1.49,0,2.99-.09,4.48-.15.27-.04.56-.03.86-.03.69,0,1.39.01,1.89-.49.21-.2.38-.44.45-.72h0s.05-.08.06-.13c.18-.53.34-1.06.5-1.6.95-2.99,1.57-6.01,2.14-9.1.61-2.75,1.15-5.51,1.84-8.25.07-.29.14-.57.22-.86h-.05ZM46.22,89.68s-.01,0-.02.01c.02-.05.03-.11.05-.16-.01.05-.02.1-.03.15Z"/>
    <path d="M28.24,21.81c.86.69,1.77,1.33,2.66,1.98,1.09.71,2.29,1.24,3.53,1.65-.03,0-.06.01-.09.02-.78.27-1.52.69-2.22,1.13-.15.04-.27.18-.26.35.02.59,1.22.48,1.65.52,1.17-.05,2.38-.12,3.39-.77.37.39.72.72.9.86,1.27.93,2.85,1.42,4.04,2.48.11.09.3.31.42.46.06.12.16.22.3.26.25.08.52-.1.56-.36.02-.34-.13-.67-.21-1-.3-1.1-.89-2.1-1.49-3.06-.09-.14-.18-.28-.27-.41.42-.09.84-.19,1.25-.28,2.5-.61,4.98-1.55,7.09-3.05,1.34-1.06,2.7-2.12,3.72-3.51.37-.5.7-1.03,1.01-1.57.13-.27.35-.54.3-.86-.06-.37-.51-.45-.79-.25-.31.15-.63.27-.94.42-1.11.61-2.32.97-3.56,1.22-1.32.33-2.52.8-3.77,1.36-.28.14-.55.29-.81.45,1.56-2.52,2.42-5.44,3.49-8.19.21-.56.44-1.12.66-1.68.09-.29.28-.6.18-.91-.36-.82-1.13,0-1.53.35-.87.84-1.73,1.71-2.5,2.64-.76,1-1.5,2.12-2.19,3.18-.16.28-.31.56-.46.84.45-1.77.69-3.58.91-5.4.18-1.27.41-2.55.48-3.83.06-1.28.03-2.57.06-3.86,0-.51.03-1.03.05-1.55,0-.36.11-.74.04-1.1-.09-.3-.48-.46-.75-.28-.34.28-.49.73-.71,1.09-.95,1.94-2.31,3.67-3.01,5.73-.62,1.68-1.28,3.35-1.78,5.07-.54,1.8-.9,3.66-1.21,5.52,0,.03,0,.05-.01.08-.65-1.85-1.63-3.57-2.61-5.26-.51-.82-.97-1.67-1.51-2.48-.42-.61-.96-1.22-1.52-1.78-.42-.58-.91-1.18-1.33-1.18-.68.07-.5.87-.38,1.33.8,2.8,1.52,5.62,2.43,8.38.57,1.77,1.15,3.8,2.18,5.46-.45-.19-.9-.37-1.35-.54-.73-.26-1.48-.44-2.25-.56-.54-.04-2.18-.67-2.45-.09-.14.45.43.69.69.96Z"/>
    <path d="M2.73,20.94c1.61.93,3.06,2.14,4.58,3.2,1.64,1.41,3.44,2.64,5.29,3.78,1.38.92,2.8,1.74,4.28,2.49,1.37.74,2.76,1.49,4.2,2.13-1.04.03-2.07.13-3.1.27-1.6.14-3.2.32-4.77.65-1.17.21-2.32.49-3.44.89-.85.21-1.67.3-2.54.42-.48.09-1.52.13-1.79.62-.08.19.04.39.22.47,1.15.26,2.28.64,3.44.85,1.56.38,3.12.7,4.72.82,1.2.19,2.4.16,3.6.05,1.23-.02,2.4-.42,3.57-.76.22-.08.44-.15.67-.23-.03.04-.06.08-.09.13-1.03,1.14-2,2.38-2.57,3.82-.1.29-.39.68-.12.95.63.37,2.55-.88,3.16-1.25,1.09-.67,2.01-1.53,2.78-2.54.02.9.23,1.79.48,2.65.15.55.16,1.2.57,1.63.32.27.63-.07.71-.39.28-.79.51-1.61.71-2.43.24-1.02.59-3.11.46-4.67.85.05,1.72-.04,2.52-.3.49-.21.95-.5,1.39-.8.79-.51,1.35-1.28,1.92-2.01.12-.16.29-.29.34-.49.07-.32-.34-.56-.59-.36-.32.08-.63.16-.96.21-1.13.22-2.37.38-3.46.82.14-.32.26-.62.36-.85.48-1.1.91-2.25,1.06-3.44.12-.82.03-1.8-.15-2.65-.04-.41-.54-.66-.81-.29-.72,1.09-1.79,2.08-2.41,3.21-.03.07-.06.14-.09.2-.3-1.05-.73-2.06-1.17-3.06-.34-.76-.57-1.57-1.01-2.28-.83-1.21-1.64-2.55-2.8-3.5-.67-.53-1.37-1.02-1.99-1.62-.62-.52-1.19-1.09-1.89-1.49-.44-.25-.88-.48-1.34-.69-.18-.08-.38-.17-.58-.11-.59.29-.04,1,.18,1.38.68,1.09,1.21,2.3,1.73,3.48,1.15,2.17,2.12,4.42,3.28,6.58,0,.01.01.02.02.04-.39-.3-.79-.57-1.21-.83-2.25-1.57-4.75-2.73-7.26-3.81-2.44-1.01-4.94-2.05-7.61-2.26-.89-.09-1.85-.11-2.68.27-.8.38-.46.85.17,1.1Z"/>
    <path d="M71.18,30.15c-2.62-.37-5.28-.71-7.92-.38-2.93.22-5.88.87-8.55,2.11-.41.19-.81.4-1.2.61.36-.46.71-.92,1.07-1.38.75-.9,1.51-1.79,2.15-2.78,1.04-1.47,2.02-2.95,2.6-4.68.24-.59.48-1.19.79-1.75.12-.16.16-.37.04-.54-.31-.42-.73-.03-1,.22-.32.24-.67.48-1.01.74-.97.81-1.93,1.66-3,2.34-2.35,1.66-4.6,3.6-6.19,6.01-.45.71-.8,1.47-1.11,2.25-.04-.77-.11-1.54-.21-2.3-.12-.82-.21-1.66-.23-2.49-.04-.38.18-1.16-.43-1.1-.24.05-.32.31-.42.49-.45.75-.94,1.46-1.32,2.25-.65,1.31-1.33,2.62-1.66,4.05-.33,1.31-.5,2.77-.08,4.1.14.39.29.81.5,1.18-.67,0-1.34.02-2.01,0-1.25.1-2.45.5-3.65.86-.28.07-.41.41-.2.64.34.34.85.46,1.3.6.57.16,1.14.31,1.72.43.88.15,1.73.19,2.61.27h0s0,0,0,0h0s0,0,0,0h0s0,0,0,0h0s0,0,0,0h0s0,0,0,0h0s0,0,0,0h0s0,0,0,0h0s0,0,0,0h0s0,0,0,0h0s0,0,0,0h0s0,0,0,0h0s0,0,0,0h0s0,0,0,0h0s0,0,0,0h0s0,0,0,0h0s0,0,0,0h0s0,0,0,0h0s0,0,0,0h0s0,0,0,0h0s0,0,0,0h0s0,0,0,0h0s0,0,0,0h0s0,0,0,0h0s0,0,0,0h0s0,0,0,0h0s0,0,0,0h0s0,0,0,0h0s0,0,0,0h0s0,0,0,0h0s0,0,0,0h0s0,0,0,0h0s0,0,0,0h0s0,0,0,0h0s0,0,0,0h0s0,0,0,0h0s0,0,0,0h0s0,0,0,0h0s0,0,0,0h0s0,0,0,0h0s0,0,0,0h0s0,0,0,0h0s0,0,0,0h0s0,0,0,0h0s0,0,0,0h0s0,0,0,0h0s0,0,0,0h0s0,0,0,0h0s0,0,0,0h0s0,0,0,0h0s0,0,0,0h0s0,0,0,0h0s0,0,0,0h0s0,0,0,0h0s0,0,0,0h0s0,0,0,0h0s0,0,0,0h0s0,0,0,0h0s0,0,0,0h0s0,0,0,0h0s0,0,0,0h0s0,0,0,0h0s0,0,0,0h0s0,0,0,0h0s0,0,0,0h0s0,0,0,0h0s0,0,0,0h0s0,0,0,0h0s0,.01,0,.01h0s0,.01,0,.01h0s0,.02,0,.02h0s0,.02,0,.02h0s0,.02,0,.02h0s0,.02,0,.02h0s0,.02,0,.02h0s0,.03,0,.03h0s0,.03,0,.03h0s0,.03,0,.03h0s0,.03,0,.03h0s0,.03,0,.03h0s0,.03,0,.03v.02s0,.02,0,.02v.02s0,.02,0,.02v.02s0,.02,0,.02v.02s0,.02,0,.02v.02s0,.02,0,.02v.02s0,.02,0,.02v.02s0,.02,0,.02v.02s0,.02,0,.02v.02s0,.02,0,.02v.02s0,.02,0,.02v.02s0,.02,0,.02v.02s0,.02,0,.02v.02s0,.02,0,.02v.02s0,.02,0,.02v.02s0,.02,0,.02v.02s0,.02,0,.02v.02s0,.02,0,.02v.02s0,.02,0,.02v.02s0,.02,0,.02v.02s0,.02,0,.02v.02s0,.02,0,.02v.02s0,.02,0,.02v.02s0,.02,0,.02v.02s0,.02,0,.02v.02s0,.02,0,.02v.02s0,.02,0,.02v.02s0,.02,0,.02v.02s0,.02,0,.02v.02s0,.02,0,.02v.02s0,.02,0,.02v.02s0,.02,0,.02v.02s0,.02,0,.02v.02s0,.02,0,.02v.02s0,.02,0,.02v.02s0,.02,0,.02v.02s0,.02,0,.02v.02s0,.02,0,.02v.02s0,.02,0,.02v.02s0,.02,0,.02v.02s0,.02,0,.02v.02s0,.02,0,.02v.02s0,.02,0,.02v.02s0,.02,0,.02v.02s0,.02,0,.02v.02s0,.02,0,.02v.02s0,.02,0,.02v.02s0,.02,0,.02v.02s0,.02,0,.02v.02s0,.02,0,.02v.02s0,.02,0,.02v.02s0,.02,0,.02v.02s0,.02,0,.02v.02s0,.02,0,.02v.02s0,.02,0,.02v.02s0,.02,0,.02v.02s0,.02,0,.02v.02s0,.02,0,.02v.02s0,.02,0,.02v.02s0,.02,0,.02v.02s0,.02,0,.02v.02s0,.02,0,.02v.02s0,.02,0,.02v.02s0,.02,0,.02v.02s0,.02,0,.02v.02s0,.02,0,.02v.02s0,.02,0,.02v.02s0,.02,0,.02v.02s0,.02,0,.02v.02s0,.02,0,.02v.02s0,.02,0,.02v.02s.01.02.01.02v.02s.01.02.01.02v.02s.01.02.01.02v.02s0,.03,0,.03v.03s.01.03.01.03v.03s0,.03,0,.03v.03s0,.03,0,.03v.03s0,.03,0,.03v.03s0,.03,0,.03v.03s.01.02.01.02v.03s.01.02.01.02v.02s.01.02.01.02v.02s.01.02.01.02v.02s.01.02.01.02v.02s.01.02.01.02v.02s.01.02.01.02v.02s.01.02.01.02v.02s.01.02.01.02v.02s.01.02.01.02h0s0,.01,0,.01h0s0,.03,0,.03v.02s.01.02.01.02v.02s.01.02.01.02v.02s.01.02.01.02v.02s.01.02.01.02v.02s.01.02.01.02v.02s.01.02.01.02h0c.1.27.2.53.31.78.22.59.53,1.16.98,1.61.24.26.55.52.8.82h0s.01.02.01.02h.01s.01.03.01.03h.01s.01.03.01.03h.01s.01.03.01.03h.01s.01.03.01.03h.01s.01.03.01.03h.01s.01.03.01.03h.01s.01.03.01.03h.01s.01.03.01.03h.01s.01.02.01.02h.02s.01.02.01.02h.02s.02.02.02.02h.02s.02.02.02.02h.01s.01.02.01.02h.01s.01.02.01.02h.01s.01.02.01.02h.01s.01.02.01.02h.01s.01.02.01.02h.01s.01.01.01.01h.01s.01.01.01.01h.01s.01.01.01.01h0s0,.01,0,.01h0s0,0,0,0h0s0,0,0,0h0s0,0,0,0h0s0,0,0,0h0s0,0,0,0h0s0,0,0,0h0s0,0,0,0h0s0,0,0,0h0s0,0,0,0h0s0,0,0,0h0s0,0,0,0h0c.13-.09.19-.28.11-.44-.06-.78-.11-1.56-.2-2.34-.09-1.12-.34-2.21-.65-3.28.66.78,1.43,1.48,2.28,2.05,1.19.76,2.49,1.34,3.77,1.92.65.28,1.31.53,1.97.76.9.29,1.84.71,2.79.49.07-.01.14-.03.21-.06.28-.11.55-.33.4-.64-.36-.41-.92-.62-1.36-.93-1.21-.69-2.34-1.5-3.45-2.35-.07-.05-.13-.11-.2-.16.79.23,1.59.44,2.39.58,1.64.22,3.3.33,4.96.28.12,0,.23,0,.35,0,.45-.01.9-.03,1.34-.07,1.46-.12,2.91-.37,4.33-.72.8-.23,1.56-.56,2.34-.85.45-.2.96-.34,1.34-.65.19-.22.07-.57-.19-.67-.38-.13-.79-.05-1.19-.09-.98-.05-1.85-.23-2.8-.55-2.31-.72-4.64-1.38-6.86-2.36-1.11-.49-2.34-.62-3.52-.9-.16-.03-.31-.07-.47-.09,3.51-1.22,6.87-2.85,9.99-4.86,1.37-.82,2.8-1.54,4.26-2.21.51-.23,1.03-.43,1.54-.66.16-.08.32-.17.38-.35.11-.32-.18-.6-.49-.63Z"/>
    <path d="M21.8,58.62s-.03.07-.05.1c-.63.69-1.19,1.47-1.77,2.2-.93,1.19-1.88,2.34-2.28,3.85,0,.05-.02.11-.03.18-.12.34-.23.68-.34,1.03-.15.49-.08,1.03-.25,1.51,0,0,0,0,0,0-.03.07-.03.15,0,.22.26.53.71.04.96-.22.79-.75,1.48-1.61,2.36-2.27.79-.58,1.51-1.28,2.21-1.96.88-.82,1.73-1.66,2.47-2.61.37-.4.72-.81,1.06-1.23-.12,2.09.4,4.21,1.27,6.11.71.59.89-.74,1.02-1.19.41-1.69.72-3.4.69-5.14.03-.61-.02-1.23-.16-1.83,1.27-.28,2.48-.8,3.52-1.61.54-.51,1.07-1.04,1.58-1.58.12-.13.24-.26.34-.41.14-.21-.05-.51-.3-.47-.86.37-1.82.41-2.72.65-.65.14-1.3.31-1.9.57.13-.67.2-1.36.31-1.97.21-1.64-.02-3.37-.78-4.84-.43-.94-.98-1.83-1.87-2.41-.45-.34-.81-.77-1.23-1.14-.1-.08-.21-.17-.35-.18-.36,0-.39.37-.33.64.02.35.08.69.17,1.03.16.64.24,1.29.4,1.94.12,1.29.26,2.58.26,3.87,0,.06,0,.13,0,.19-.83-1.75-2.16-3.31-3.68-4.33-1.29-.91-2.7-1.63-4.12-2.3-1.42-.75-2.85-1.46-4.33-2.07-.77-.33-1.59-.58-2.42-.67-.39-.05-1.04-.09-1.08.43.04.5.62.72.96,1.02,1.02.8,2.01,1.64,2.99,2.48,1.2,1.1,2.42,2.17,3.66,3.23-.11-.06-.22-.11-.33-.17-1.09-.56-2.26-.91-3.45-1.23-1.37-.47-2.84-.6-4.3-.69-1.98.04-4.01-.03-5.93.53-1.14.1-2.3.19-3.35.69-.2.09-.42.18-.58.34-.19.21-.08.57.19.64,1.25.37,2.47.53,3.78.6.95,0,1.85.24,2.75.49,1.24.32,2.46.67,3.7.98,1.58.41,3.08,1.04,4.63,1.56,1.05.35,2.11.69,3.16,1.01-1.81.18-3.58.75-5.23,1.5-1.75.74-3.6,1.36-5.09,2.58-1.15.94-2.23,2.07-2.8,3.46-.4.6-.68,1.55-.08,1.66.16.01.31-.08.45-.14.87-.43,1.7-.98,2.66-1.21,1.05-.35,2.04-.86,3.11-1.22,1.31-.58,2.69-.99,4.1-1.28,1.2-.17,2.39-.43,3.6-.58.93-.08,1.87-.17,2.8-.31Z"/>
    <path d="M43.1,42.96c-.23-.01-.45-.03-.68-.03-.97,1.28-1.86,2.64-2.76,3.94-.58.91-1.17,1.99-1.73,2.95-.16.29-.28.59-.4.9-.03-.12-.06-.24-.09-.36-.03-.37-.06-.75-.1-1.12-.2-1.57-.47-3.14-.72-4.71-.14-.84-.33-1.68-.49-2.53-.14-1.24-.25-2.49-.17-3.74.23-3.21.81-6.37,1.56-9.5-.08-.06-.15-.11-.23-.17-.19-.15-.38-.3-.55-.47-.3.12-.6.23-.91.33-.63,3.44-1.19,6.9-1.14,10.41.04,1.77.26,3.53.52,5.28-.68-1.28-1.43-2.52-2.21-3.75-1.08-1.64-2.45-3.05-3.59-4.64-.01-.02-.03-.04-.04-.07-.06,0-.13,0-.19,0-.11,0-.22-.02-.32-.02-.03.51-.07,1.02-.12,1.53.55.65,1.1,1.3,1.62,1.98.43.67.97,1.33,1.46,1.97,1.28,1.99,2.36,4.08,3.44,6.2.31.63.55,1.29.78,1.95.02.15.04.3.07.45.25,1.89.3,3.84.29,5.77-.06.51-.13,1.03-.22,1.54-.35,1.55-.71,3.09-.95,4.66,0,.04,0,.09-.01.13-.02.19-.02.37-.03.56-.51-1.33-1.31-2.53-2.4-3.47-.46-.46-.98-.86-1.53-1.21-.38.12-.76.2-1.14.27.02.24.04.48.06.72.19.14.39.27.57.42.6.56,1.16,1.18,1.69,1.8.26.42.49.85.72,1.29.1.16.19.33.29.49.47,1.27.83,2.59,1.07,3.92.06.49.06.98.07,1.48.06,0,.12-.01.18-.02.18-.01.36-.02.54-.03.02,0,.04,0,.06,0,.02,0,.05,0,.07,0,.05,0,.11-.01.16-.02.27-.03.54-.06.81-.07.03,0,.07,0,.1,0,0-.01,0-.02,0-.03.11-1.38.28-2.75.47-4.12.02-.04.04-.07.06-.11l.43-3.53c.04-.29.08-.58.11-.86.17-1,.25-2,.27-3,.27-1.22.56-2.44.87-3.65.55-1.46,1.29-2.83,1.99-4.22.71-1.22,1.48-2.4,2.3-3.56.16-.21.33-.42.5-.62-.16-.42-.28-.85-.38-1.29Z"/>
  </g>
  <g>
    <g>
      <path d="M50.22,62.77v-2.94c0-.66-.02-1.15-.05-1.47-.04-.32-.1-.58-.19-.77-.24-.5-.69-.75-1.34-.75-.28,0-.56.07-.82.21-.26.14-.47.35-.62.61-.08.13-.15.32-.21.56-.06.24-.09.53-.09.88v3.67l1.02.29v.85h-4.13v-.85l1.17-.29v-9.59l-1.17-.29v-.85h3.11v5.09c.26-.49.61-.87,1.04-1.16.43-.28.91-.43,1.42-.43.44,0,.8.05,1.1.16s.56.28.78.51c.31.33.55.76.69,1.3.15.54.22,1.25.22,2.12v3.14l1.17.29v.85h-4.13v-.85l1.02-.29Z"/>
      <path d="M53.42,64.01h-4.33v-1.03l1.02-.29v-2.86c0-.65-.02-1.14-.05-1.46-.03-.31-.1-.56-.18-.74-.23-.46-.64-.69-1.25-.69-.27,0-.53.07-.77.2-.25.13-.44.32-.59.57-.08.12-.14.3-.2.53-.06.23-.09.52-.09.85v3.59l1.02.29v1.03h-4.33v-1.03l1.17-.29v-9.44l-1.17-.29v-1.03h3.31v4.83c.24-.36.54-.65.89-.88.45-.29.94-.44,1.48-.44.45,0,.83.06,1.14.17.31.11.59.29.82.54.32.34.57.79.72,1.35.15.55.22,1.27.22,2.15v3.06l1.17.29v1.03ZM49.3,63.81h3.93v-.67l-1.17-.29v-3.22c0-.86-.07-1.57-.22-2.1-.14-.52-.37-.95-.67-1.26-.21-.22-.46-.38-.75-.49-.29-.1-.65-.15-1.07-.15-.5,0-.96.14-1.37.41-.42.27-.76.65-1.01,1.12l-.19.35v-5.38h-2.91v.67l1.17.29v9.75l-1.17.29v.67h3.93v-.68l-1.02-.29v-3.75c0-.35.03-.65.09-.9.06-.25.14-.44.23-.58.16-.28.38-.49.66-.64.28-.15.57-.23.87-.23.69,0,1.17.27,1.43.8.1.2.16.47.2.8.04.33.05.82.05,1.48v3.02l-1.02.29v.68Z"/>
    </g>
    <g>
      <path d="M62.31,64c0,.93-.33,1.62-1,2.06-.67.44-1.74.65-3.2.65-.65,0-1.24-.06-1.77-.18-.53-.12-.96-.32-1.27-.6-.31-.28-.47-.66-.47-1.13s.15-.84.44-1.13.73-.44,1.31-.46v-.06c-.77-.21-1.16-.6-1.16-1.16,0-.2.05-.42.15-.64.1-.22.27-.42.5-.59.23-.17.54-.28.91-.33-.54-.13-.96-.4-1.26-.81s-.46-.9-.46-1.45c0-.81.27-1.45.82-1.92.55-.47,1.33-.7,2.36-.7.68,0,1.21.06,1.6.17.39.12.73.29,1.02.53l.52-.18,1.4-.67h.26v1.57h-.26l-1.07-.12h-.38c.2.31.3.73.3,1.23,0,.83-.26,1.49-.78,1.97-.52.48-1.26.72-2.24.72-.1,0-.2,0-.3,0-.1,0-.2-.01-.3-.02-.4.05-.71.14-.95.27-.24.13-.36.31-.36.54,0,.18.1.31.29.37.19.07.54.1,1.05.1h1.77c.83,0,1.46.17,1.89.5.43.33.64.83.64,1.5ZM58.65,63.41h-.53c-.68,0-1.17.11-1.48.32-.3.21-.46.49-.46.84,0,.77.73,1.16,2.18,1.16.78,0,1.38-.11,1.78-.34s.61-.56.61-1c0-.36-.16-.61-.47-.75-.31-.15-.86-.22-1.63-.22ZM56.83,58.1c0,.57.12,1,.37,1.3.25.3.6.45,1.04.45.54,0,.93-.15,1.19-.45.25-.3.38-.73.38-1.3,0-.54-.13-.94-.38-1.22-.25-.27-.65-.41-1.19-.41-.46,0-.81.14-1.05.41-.24.27-.37.68-.37,1.22Z"/>
      <path d="M58.11,66.82c-.65,0-1.26-.06-1.8-.19-.55-.13-.99-.34-1.32-.62-.34-.3-.51-.7-.51-1.21s.16-.9.47-1.2c.25-.24.6-.39,1.03-.46-.61-.24-.91-.63-.91-1.15,0-.22.05-.45.16-.68.11-.24.29-.45.53-.63.16-.12.36-.21.58-.28-.39-.16-.71-.4-.95-.73-.32-.43-.48-.94-.48-1.51,0-.84.29-1.51.86-2,.56-.48,1.38-.72,2.43-.72.69,0,1.23.06,1.63.18.38.11.72.29,1.01.51l.47-.16,1.43-.68h.36v1.77h-.36l-1.08-.12h-.2c.15.31.23.69.23,1.13,0,.86-.27,1.55-.81,2.05-.54.5-1.31.75-2.31.75-.1,0-.21,0-.31,0-.1,0-.21-.01-.31-.02-.36.05-.67.14-.89.26-.21.11-.3.26-.3.45,0,.14.07.23.22.28.18.06.52.09,1.02.09h1.77c.85,0,1.51.17,1.95.52.45.35.68.88.68,1.58,0,.97-.35,1.69-1.05,2.14-.68.44-1.78.67-3.25.67ZM58.21,55.64c-1,0-1.77.23-2.3.68-.52.45-.79,1.07-.79,1.84,0,.53.15,1,.44,1.4.29.39.7.65,1.21.78l.51.13-.52.07c-.36.05-.65.15-.87.32-.22.16-.38.35-.47.55-.09.21-.14.41-.14.6,0,.51.35.86,1.08,1.06l.07.02v.23h-.1c-.55.02-.97.17-1.24.43-.28.27-.41.61-.41,1.06s.14.8.44,1.06c.3.27.71.46,1.23.58.52.12,1.11.18,1.75.18,1.44,0,2.49-.21,3.14-.64.65-.42.96-1.07.96-1.97,0-.64-.2-1.11-.6-1.42-.41-.31-1.02-.47-1.83-.47h-1.77c-.52,0-.88-.03-1.08-.1-.3-.1-.36-.31-.36-.47,0-.27.14-.48.41-.63.25-.13.58-.22.99-.28.12,0,.22.02.32.02.1,0,.2,0,.3,0,.94,0,1.67-.23,2.17-.7.49-.46.74-1.1.74-1.9,0-.49-.1-.88-.29-1.18l-.1-.15h.56l1.08.12h.15v-1.37h-.14l-1.38.66-.58.21-.04-.03c-.28-.22-.62-.4-.99-.51-.38-.11-.9-.17-1.57-.17ZM58.36,65.83c-1.51,0-2.28-.42-2.28-1.26,0-.38.17-.69.5-.92.32-.23.83-.34,1.53-.34h.53c.79,0,1.34.08,1.67.23.35.17.53.45.53.84,0,.47-.22.84-.66,1.08-.42.24-1.04.36-1.83.36ZM58.12,63.51c-.66,0-1.13.1-1.42.3-.28.19-.41.44-.41.76,0,.7.7,1.06,2.08,1.06.76,0,1.34-.11,1.73-.33.38-.21.56-.51.56-.91,0-.32-.14-.53-.41-.66-.3-.14-.83-.21-1.59-.21h-.53ZM58.24,59.95c-.48,0-.85-.16-1.12-.49-.26-.32-.4-.78-.4-1.37s.13-.99.39-1.29c.26-.29.64-.44,1.13-.44.56,0,.99.15,1.26.44.27.29.41.73.41,1.29,0,.59-.14,1.05-.4,1.37-.27.32-.7.48-1.26.48ZM58.24,56.57c-.43,0-.75.13-.98.38-.23.25-.34.64-.34,1.15,0,.54.12.96.35,1.24.23.28.55.41.97.41.5,0,.88-.14,1.11-.41.24-.28.36-.7.36-1.24,0-.51-.12-.9-.35-1.15-.23-.25-.61-.38-1.11-.38Z"/>
    </g>
    <g>
      <path d="M67.82,55.54c.63,0,1.19.1,1.68.3.49.2.87.47,1.15.83.28.36.42.77.42,1.25s-.12.8-.37,1.04-.54.36-.9.36c-.4,0-.67-.12-.83-.37-.16-.24-.24-.49-.24-.75s.06-.47.19-.66c.13-.19.32-.32.57-.39-.13-.18-.34-.33-.63-.44-.29-.11-.61-.17-.97-.17-.64,0-1.14.23-1.49.7-.36.47-.53,1.3-.53,2.51,0,.55.04.98.11,1.29.07.31.17.59.29.82.16.29.37.53.62.69s.58.25.97.25c.42,0,.86-.1,1.32-.3.46-.2.85-.5,1.15-.92l.82.64c-.47.65-1.02,1.12-1.64,1.4-.63.28-1.3.43-2.01.43-.75,0-1.39-.14-1.91-.43-.52-.29-.93-.71-1.23-1.27-.37-.68-.55-1.51-.55-2.48,0-.88.16-1.65.48-2.3.32-.65.78-1.15,1.38-1.51.6-.35,1.31-.53,2.15-.53Z"/>
      <path d="M67.5,64.17c-.77,0-1.42-.15-1.96-.45-.54-.3-.96-.74-1.27-1.31-.37-.69-.56-1.54-.56-2.53,0-.89.17-1.68.49-2.34.33-.66.8-1.19,1.42-1.55.61-.36,1.35-.55,2.2-.55.64,0,1.22.1,1.71.3.5.2.9.49,1.19.86.29.37.44.81.44,1.31s-.13.86-.4,1.11c-.26.26-.59.39-.97.39-.43,0-.74-.14-.91-.41-.17-.26-.25-.53-.25-.8s.07-.51.21-.72c.11-.17.28-.3.48-.38-.12-.12-.29-.22-.5-.3-.28-.11-.59-.16-.93-.16-.61,0-1.07.22-1.41.66-.34.45-.51,1.27-.51,2.45,0,.54.03.97.1,1.27.07.3.16.57.28.8.15.28.35.5.59.66.24.16.54.23.92.23.4,0,.83-.1,1.28-.29.44-.19.82-.49,1.11-.89l.06-.08.98.76-.06.08c-.48.66-1.04,1.14-1.68,1.43-.64.29-1.33.44-2.05.44ZM67.82,55.64c-.81,0-1.52.17-2.1.52-.58.34-1.03.84-1.34,1.47-.31.63-.47,1.39-.47,2.26,0,.95.18,1.77.54,2.44.28.54.68.95,1.19,1.23.5.28,1.13.42,1.86.42.69,0,1.35-.14,1.97-.42.58-.26,1.1-.7,1.55-1.29l-.67-.52c-.3.39-.68.68-1.13.87-.93.4-1.84.4-2.39.04-.27-.18-.49-.42-.66-.73-.13-.24-.23-.53-.3-.85-.07-.32-.11-.76-.11-1.32,0-1.24.18-2.08.55-2.57.37-.49.9-.74,1.57-.74.37,0,.7.06,1,.17.31.12.53.28.68.48l.08.12-.14.04c-.23.06-.4.18-.52.35-.12.17-.17.37-.17.61s.07.47.22.69c.14.22.38.32.75.32.33,0,.6-.11.83-.33.22-.22.33-.54.33-.97,0-.45-.13-.85-.4-1.19-.27-.34-.64-.61-1.11-.8-.47-.19-1.02-.29-1.64-.29Z"/>
    </g>
  </g>
  <path d="M42.73,61.71c.36-.05.71-.07,1.06-.09,0-.13-.02-.26-.02-.39-.04-.3-.07-.6-.05-.9,0-.03.01-.06.01-.09-1.76-.15-5.45.93-7.07,3.21l-.2,2.8s2.26-3.88,5.74-4.4c.17-.06.34-.12.52-.14Z"/>
</svg>